<svg width="446" height="609" viewBox="0 0 446 609" fill="none" xmlns="http://www.w3.org/2000/svg">
<g clip-path="url(#clip0_213_148)">
<rect width="303" height="545" transform="translate(155) rotate(16.4651)" fill="#FAFAFA"/>
<mask id="mask0_213_148" style="mask-type:luminance" maskUnits="userSpaceOnUse" x="0" y="0" width="446" height="609">
<path d="M445.575 85.8798L155 0L0.529686 522.651L291.104 608.531L445.575 85.8798Z" fill="white"/>
</mask>
<g mask="url(#mask0_213_148)">
<path d="M445.575 85.8798L155 0L0.529686 522.651L291.104 608.531L445.575 85.8798Z" fill="#FAFAFA"/>
<path d="M430.189 90.1573L165.588 11.9539L49.4953 404.754L314.097 482.957L430.189 90.1573Z" fill="#0B0B0B"/>
<path d="M430.854 93.8834L164.629 15.2002L17.3544 513.504L283.579 592.187L430.854 93.8834Z" stroke="#0B0B0B" stroke-width="4"/>
<path d="M192.22 101.011C203.875 104.456 216.116 97.8014 219.56 86.1477C223.004 74.4941 216.348 62.2545 204.693 58.8098C193.038 55.3652 180.798 62.0199 177.353 73.6736C173.909 85.3272 180.565 97.5668 192.22 101.011Z" fill="#FAFAFA" stroke="#0B0B0B" stroke-width="4"/>
<path d="M170.153 175.676C181.808 179.121 194.048 172.466 197.492 160.812C200.937 149.159 194.281 136.919 182.626 133.474C170.971 130.03 158.73 136.684 155.286 148.338C151.842 159.992 158.498 172.231 170.153 175.676Z" fill="#FAFAFA" stroke="#0B0B0B" stroke-width="4"/>
<path d="M148.086 250.34C159.741 253.785 171.982 247.13 175.426 235.477C178.87 223.823 172.214 211.583 160.559 208.139C148.904 204.694 136.664 211.349 133.22 223.002C129.775 234.656 136.432 246.896 148.086 250.34Z" fill="#FAFAFA" stroke="#0B0B0B" stroke-width="4"/>
<path d="M126.019 325.005C137.674 328.45 149.914 321.795 153.359 310.141C156.803 298.487 150.147 286.248 138.492 282.803C126.837 279.359 114.597 286.013 111.152 297.667C107.708 309.321 114.364 321.56 126.019 325.005Z" fill="#FAFAFA" stroke="#0B0B0B" stroke-width="4"/>
<path d="M103.952 399.669C115.607 403.114 127.847 396.459 131.291 384.805C134.736 373.152 128.079 360.912 116.424 357.468C104.77 354.023 92.5292 360.678 89.0849 372.331C85.6407 383.985 92.2968 396.225 103.952 399.669Z" fill="#FAFAFA" stroke="#0B0B0B" stroke-width="4"/>
<path d="M275.01 125.48C286.665 128.925 298.906 122.27 302.35 110.616C305.794 98.9628 299.138 86.7232 287.483 83.2786C275.828 79.8339 263.588 86.4887 260.144 98.1423C256.699 109.796 263.355 122.036 275.01 125.48Z" fill="#FAFAFA" stroke="#0B0B0B" stroke-width="4"/>
<path d="M252.943 200.145C264.598 203.589 276.838 196.934 280.283 185.281C283.727 173.627 277.071 161.388 265.416 157.943C253.761 154.498 241.52 161.153 238.076 172.807C234.632 184.46 241.288 196.7 252.943 200.145Z" fill="#FAFAFA" stroke="#0B0B0B" stroke-width="4"/>
<path d="M230.876 274.809C242.531 278.254 254.771 271.599 258.215 259.945C261.659 248.292 255.003 236.052 243.348 232.607C231.693 229.163 219.453 235.818 216.009 247.471C212.564 259.125 219.221 271.364 230.876 274.809Z" fill="#FAFAFA" stroke="#0B0B0B" stroke-width="4"/>
<path d="M208.808 349.473C220.463 352.918 232.703 346.263 236.148 334.61C239.592 322.956 232.936 310.716 221.281 307.272C209.626 303.827 197.386 310.482 193.941 322.135C190.497 333.789 197.153 346.029 208.808 349.473Z" fill="#FAFAFA" stroke="#0B0B0B" stroke-width="4"/>
<path d="M186.741 424.138C198.396 427.582 210.636 420.928 214.08 409.274C217.525 397.62 210.869 385.381 199.214 381.936C187.559 378.491 175.318 385.146 171.874 396.8C168.43 408.453 175.086 420.693 186.741 424.138Z" fill="#FAFAFA" stroke="#0B0B0B" stroke-width="4"/>
<path d="M357.799 149.949C369.454 153.393 381.695 146.739 385.139 135.085C388.583 123.431 381.927 111.192 370.272 107.747C358.617 104.302 346.377 110.957 342.933 122.611C339.488 134.264 346.144 146.504 357.799 149.949Z" fill="#FAFAFA" stroke="#0B0B0B" stroke-width="4"/>
<path d="M335.732 224.613C347.387 228.058 359.627 221.403 363.072 209.749C366.516 198.096 359.86 185.856 348.205 182.411C336.55 178.967 324.309 185.621 320.865 197.275C317.421 208.929 324.077 221.168 335.732 224.613Z" fill="#FAFAFA" stroke="#0B0B0B" stroke-width="4"/>
<path d="M313.665 299.278C325.32 302.722 337.56 296.068 341.004 284.414C344.448 272.76 337.792 260.521 326.137 257.076C314.482 253.631 302.242 260.286 298.798 271.94C295.354 283.593 302.01 295.833 313.665 299.278Z" fill="#FAFAFA" stroke="#0B0B0B" stroke-width="4"/>
<path d="M291.598 373.942C303.253 377.387 315.494 370.732 318.938 359.078C322.382 347.424 315.726 335.185 304.071 331.74C292.416 328.296 280.176 334.95 276.731 346.604C273.287 358.258 279.943 370.497 291.598 373.942Z" fill="#FAFAFA" stroke="#0B0B0B" stroke-width="4"/>
<path d="M269.531 448.606C281.186 452.051 293.426 445.396 296.87 433.743C300.315 422.089 293.659 409.849 282.004 406.405C270.349 402.96 258.108 409.615 254.664 421.269C251.22 432.922 257.876 445.162 269.531 448.606Z" fill="#FAFAFA" stroke="#0B0B0B" stroke-width="4"/>
<path d="M86.3553 491.793C84.9657 491.383 83.974 490.581 83.3803 489.389C82.7903 488.184 82.7045 486.874 83.1228 485.458C83.5411 484.043 84.3235 482.996 85.4699 482.319C86.6163 481.641 87.8843 481.507 89.2739 481.918C90.7284 482.348 91.7165 483.233 92.2383 484.573L90.9995 485.181C90.6439 484.187 89.9661 483.542 88.9661 483.246C87.9791 482.954 87.0872 483.058 86.2902 483.557C85.5063 484.059 84.9569 484.843 84.6422 485.907C84.3275 486.972 84.3607 487.935 84.7417 488.796C85.1395 489.648 85.8319 490.22 86.8189 490.511C87.8059 490.803 88.7254 490.63 89.5776 489.992L90.2868 491.176C89.1203 492.017 87.8098 492.223 86.3553 491.793ZM90.1015 495.251L91.1665 491.648C91.6739 491.699 92.1349 491.525 92.5496 491.125C92.9682 490.712 93.4557 489.875 94.0121 488.613L95.9861 484.156L102.531 486.09L100.131 494.213L101.222 494.535L100.134 498.216L98.6727 497.785L99.3807 495.389L92.2706 493.287L91.5625 495.683L90.1015 495.251ZM96.8918 485.821L95.4213 489.22C94.7131 490.804 93.9324 491.774 93.0791 492.128L98.6698 493.781L100.69 486.944L96.8918 485.821ZM107.017 497.9C105.614 497.485 104.599 496.691 103.972 495.517C103.348 494.331 103.253 493.003 103.687 491.536C104.094 490.16 104.879 489.128 106.042 488.441C107.209 487.741 108.455 487.587 109.78 487.979C111.169 488.389 112.125 489.194 112.646 490.393C113.184 491.583 113.238 492.905 112.808 494.359L112.699 494.729L105.082 492.478C104.875 493.419 104.984 494.291 105.41 495.095C105.836 495.899 106.536 496.445 107.51 496.732C108.679 497.078 109.764 496.968 110.764 496.402L111.183 497.564C109.938 498.241 108.549 498.353 107.017 497.9ZM111.574 493.232C111.799 492.423 111.739 491.622 111.395 490.828C111.054 490.021 110.39 489.472 109.403 489.18C108.468 488.904 107.634 489.003 106.901 489.478C106.18 489.957 105.679 490.6 105.399 491.407L111.574 493.232ZM112.636 499.561L112.993 498.353C113.435 498.484 113.885 498.299 114.343 497.799C114.802 497.299 115.323 496.394 115.908 495.085L117.882 490.627L124.427 492.562L121.647 501.97L120.186 501.538L122.586 493.416L118.788 492.293L117.317 495.692C116.599 497.357 115.869 498.49 115.127 499.089C114.389 499.676 113.558 499.833 112.636 499.561ZM131.908 505.002L130.447 504.57L130.764 503.499C129.714 504.135 128.547 504.263 127.261 503.883C126.391 503.626 125.707 503.12 125.21 502.366C124.713 501.612 124.606 500.754 124.89 499.794C125.182 498.807 125.731 498.143 126.538 497.803C127.361 497.453 128.214 497.409 129.097 497.67C130.435 498.065 131.347 498.801 131.834 499.876L132.335 498.182C132.519 497.558 132.442 497.006 132.105 496.525C131.767 496.044 131.247 495.7 130.546 495.493C129.442 495.166 128.352 495.317 127.277 495.946L126.895 494.731C128.202 493.988 129.608 493.839 131.115 494.284C132.193 494.603 132.992 495.122 133.514 495.841C134.036 496.559 134.138 497.458 133.819 498.536L131.908 505.002ZM128.098 502.987C129.267 503.332 130.245 503.198 131.034 502.584L131.558 500.811C131.23 499.867 130.481 499.222 129.313 498.877C128.637 498.677 128.021 498.707 127.465 498.966C126.925 499.216 126.565 499.646 126.384 500.256C126.208 500.854 126.276 501.41 126.59 501.927C126.92 502.434 127.423 502.787 128.098 502.987ZM136.298 506.3L134.837 505.868L137.617 496.46L139.078 496.892L137.921 500.807L142.83 502.258L143.987 498.343L145.448 498.775L142.667 508.182L141.206 507.75L142.45 503.543L137.541 502.092L136.298 506.3ZM153.416 510.067C152.292 510.766 151.028 510.907 149.626 510.493C148.223 510.078 147.234 509.271 146.657 508.069C146.093 506.872 146.018 505.572 146.432 504.17C146.847 502.767 147.614 501.723 148.735 501.038C149.872 500.343 151.142 500.203 152.545 500.618C153.947 501.032 154.93 501.838 155.494 503.036C156.075 504.224 156.158 505.519 155.744 506.922C155.329 508.324 154.553 509.373 153.416 510.067ZM148.024 507.457C148.388 508.327 149.051 508.904 150.012 509.188C150.973 509.472 151.836 509.346 152.602 508.81C153.371 508.261 153.905 507.48 154.205 506.467C154.504 505.454 154.478 504.514 154.127 503.648C153.776 502.782 153.12 502.207 152.159 501.923C151.198 501.639 150.326 501.769 149.544 502.315C148.778 502.851 148.247 503.619 147.952 504.619C147.652 505.632 147.676 506.578 148.024 507.457ZM163.215 514.255L161.754 513.823L164.535 504.416L165.996 504.848L164.839 508.763L169.748 510.213L170.905 506.298L172.366 506.73L169.585 516.138L168.124 515.706L169.368 511.499L164.459 510.048L163.215 514.255ZM179.847 519.171L178.386 518.739L178.702 517.667C177.653 518.303 176.485 518.431 175.2 518.051C174.33 517.794 173.646 517.289 173.149 516.534C172.651 515.78 172.545 514.923 172.829 513.962C173.12 512.975 173.67 512.311 174.476 511.971C175.3 511.621 176.153 511.577 177.036 511.838C178.374 512.233 179.286 512.969 179.773 514.045L180.274 512.35C180.458 511.727 180.381 511.175 180.043 510.694C179.705 510.212 179.186 509.868 178.484 509.661C177.381 509.335 176.291 509.486 175.216 510.114L174.833 508.9C176.14 508.156 177.547 508.007 179.053 508.452C180.131 508.771 180.931 509.29 181.453 510.009C181.975 510.728 182.076 511.626 181.758 512.704L179.847 519.171ZM176.037 517.155C177.205 517.5 178.184 517.366 178.973 516.752L179.497 514.98C179.168 514.035 178.42 513.391 177.251 513.045C176.576 512.846 175.96 512.875 175.403 513.134C174.863 513.384 174.503 513.814 174.323 514.425C174.146 515.022 174.215 515.579 174.528 516.095C174.858 516.602 175.361 516.955 176.037 517.155ZM191.722 522.935C190.631 522.612 189.71 522.121 188.959 521.461C188.208 520.802 187.71 520.097 187.466 519.347L188.725 518.597C188.961 519.231 189.382 519.814 189.987 520.346C190.61 520.869 191.317 521.248 192.109 521.482C193.122 521.781 193.984 521.803 194.695 521.547C195.41 521.278 195.879 520.767 196.101 520.014C196.331 519.235 196.197 518.567 195.698 518.01C195.212 517.457 194.449 517.027 193.41 516.72L190.761 515.937L191.187 514.495L193.836 515.278C194.758 515.551 195.563 515.598 196.251 515.42C196.956 515.233 197.414 514.783 197.625 514.069C197.833 513.367 197.695 512.734 197.213 512.168C196.744 511.605 196.061 511.192 195.165 510.927C193.697 510.493 192.315 510.656 191.017 511.416L190.42 510.139C191.116 509.695 191.92 509.41 192.833 509.285C193.762 509.15 194.721 509.228 195.708 509.52C197.032 509.912 198.044 510.55 198.743 511.434C199.455 512.322 199.653 513.298 199.339 514.363C199.085 515.22 198.59 515.822 197.852 516.169C197.131 516.506 196.394 516.634 195.641 516.553C196.336 516.829 196.92 517.34 197.391 518.087C197.875 518.837 197.977 519.686 197.697 520.634C197.375 521.725 196.662 522.488 195.559 522.925C194.455 523.361 193.176 523.364 191.722 522.935ZM203.351 526.372C201.949 525.957 200.934 525.163 200.306 523.989C199.683 522.802 199.588 521.475 200.021 520.008C200.428 518.632 201.213 517.6 202.377 516.913C203.544 516.213 204.79 516.059 206.114 516.45C207.504 516.861 208.459 517.666 208.98 518.865C209.518 520.054 209.572 521.376 209.143 522.831L209.033 523.201L201.417 520.95C201.209 521.891 201.318 522.763 201.744 523.567C202.171 524.371 202.871 524.916 203.845 525.204C205.013 525.55 206.098 525.44 207.098 524.874L207.517 526.036C206.272 526.713 204.884 526.825 203.351 526.372ZM207.908 521.704C208.133 520.895 208.073 520.093 207.729 519.3C207.388 518.493 206.725 517.944 205.738 517.652C204.803 517.376 203.968 517.475 203.235 517.95C202.514 518.429 202.014 519.072 201.733 519.878L207.908 521.704ZM219.753 530.965L218.292 530.533L220.473 523.151L215.233 529.629L214.688 529.468L213.792 521.176L211.61 528.558L210.149 528.127L212.93 518.719L214.858 519.289L215.68 527.114L220.585 520.981L222.533 521.557L219.753 530.965ZM221.487 531.732L221.844 530.524C222.286 530.655 222.736 530.47 223.194 529.97C223.652 529.47 224.174 528.565 224.759 527.256L226.733 522.798L233.278 524.733L230.497 534.141L229.036 533.709L231.437 525.587L227.638 524.464L226.168 527.863C225.45 529.528 224.72 530.661 223.978 531.26C223.239 531.847 222.409 532.004 221.487 531.732ZM237.592 536.492C236.19 536.077 235.175 535.283 234.547 534.109C233.924 532.922 233.829 531.595 234.262 530.128C234.669 528.751 235.454 527.72 236.617 527.033C237.784 526.333 239.03 526.179 240.355 526.57C241.744 526.981 242.7 527.786 243.221 528.985C243.759 530.174 243.813 531.496 243.383 532.951L243.274 533.321L235.657 531.07C235.45 532.011 235.559 532.883 235.985 533.687C236.411 534.491 237.111 535.036 238.085 535.324C239.254 535.67 240.339 535.56 241.339 534.994L241.758 536.156C240.513 536.832 239.125 536.944 237.592 536.492ZM242.149 531.823C242.374 531.015 242.314 530.213 241.97 529.42C241.629 528.613 240.965 528.064 239.978 527.772C239.043 527.496 238.209 527.595 237.476 528.07C236.755 528.549 236.255 529.192 235.974 529.998L242.149 531.823Z" fill="#7B7B7B"/>
<path d="M71.9869 462.527L73.806 456.372C74.4894 456.481 75.0516 456.458 75.4919 456.306C75.9497 456.159 76.4519 455.734 76.9991 455.029C77.5463 454.324 78.1235 453.263 78.7318 451.842L82.3621 443.285L94.6734 446.924L90.5133 461L92.0717 461.46L90.1681 467.901L86.4799 466.811L87.424 463.617L76.6192 460.423L75.6751 463.617L71.9869 462.527ZM82.3173 453.184C81.4148 455.346 80.2247 456.792 78.7474 457.522L86.7991 459.902L89.9998 449.072L84.7273 447.514L82.3173 453.184ZM105.532 468.968L93.2722 465.345L98.3918 448.023L110.651 451.646L109.692 454.892L101.121 452.359L100.038 456.021L108.428 458.5L107.468 461.747L99.0788 459.267L97.9198 463.189L106.491 465.722L105.532 468.968ZM116.129 472.1L112.415 471.003L116.575 456.927L111.51 455.43L112.47 452.184L126.287 456.267L125.328 459.514L120.289 458.024L116.129 472.1ZM138.013 478.568L133.806 477.325L133.608 474.075L126.18 471.88L124.221 474.492L120.014 473.248L131.835 457.907L136.458 459.273L138.013 478.568ZM133.555 470.53L133.056 462.278L128.152 468.933L133.555 470.53ZM138.482 479.046L139.449 475.773C140.384 476.05 141.213 475.89 141.935 475.294C142.662 474.681 143.476 473.329 144.375 471.243L148.005 462.686L160.317 466.325L155.197 483.647L151.483 482.549L155.643 468.473L150.37 466.915L147.96 472.585C147.236 474.271 146.494 475.634 145.736 476.671C145 477.696 144.225 478.408 143.41 478.808C142.612 479.213 141.835 479.424 141.075 479.445C140.316 479.466 139.452 479.332 138.482 479.046ZM163.731 467.334L167.419 468.424L165.6 474.579L170.015 475.884C171.816 476.416 173.077 477.373 173.799 478.753C174.521 480.133 174.649 481.611 174.183 483.187C173.712 484.779 172.798 485.96 171.442 486.726C170.109 487.48 168.533 487.588 166.715 487.051L158.611 484.656L163.731 467.334ZM168.562 478.984L164.64 477.825L163.259 482.5L167.181 483.659C167.925 483.879 168.593 483.85 169.183 483.573C169.796 483.283 170.207 482.783 170.417 482.074C170.626 481.364 170.55 480.73 170.188 480.171C169.849 479.599 169.307 479.204 168.562 478.984ZM188.555 493.506L186.088 492.777L188.892 488.833L186.424 488.104L183.646 492.055L181.205 491.334L183.982 487.382L181.489 486.645L182.786 484.741L185.331 485.493L188.008 481.597L185.463 480.845L186.726 478.959L189.349 479.734L192.117 475.723L194.558 476.445L191.791 480.456L194.233 481.178L197 477.166L199.467 477.896L196.648 481.891L199.167 482.636L197.93 484.529L195.333 483.762L192.63 487.651L195.253 488.426L193.982 490.338L191.307 489.547L188.555 493.506ZM190.189 486.929L192.891 483.04L190.45 482.319L187.773 486.215L190.189 486.929ZM210.064 499.863L197.026 496.01L197.878 493.127C202.398 491.469 205.425 490.237 206.963 489.43C208.523 488.612 209.454 487.69 209.756 486.669C209.966 485.96 209.854 485.323 209.416 484.761C208.98 484.2 208.381 483.806 207.619 483.581C205.8 483.043 204.055 483.253 202.378 484.206L200.996 481.143C202.087 480.449 203.29 480.042 204.605 479.922C205.943 479.79 207.245 479.912 208.508 480.285C210.414 480.849 211.84 481.816 212.79 483.189C213.757 484.567 213.993 486.095 213.496 487.774C213.076 489.195 212.103 490.421 210.572 491.457C209.066 492.48 206.861 493.503 203.959 494.529L211.024 496.617L210.064 499.863ZM219.651 503.035C217.157 502.298 215.533 500.914 214.777 498.884C214.022 496.853 214.033 494.522 214.811 491.891C215.604 489.208 216.963 487.255 218.885 486.035C220.808 484.815 223.025 484.576 225.536 485.318C227.544 485.912 229.074 487.013 230.123 488.622L227.625 490.962C226.938 489.779 225.92 488.99 224.569 488.59C223.305 488.217 222.125 488.385 221.03 489.098C219.941 489.792 219.19 490.832 218.781 492.217C218.735 492.373 218.707 492.497 218.7 492.588C219.317 492.093 220.097 491.75 221.038 491.557C221.979 491.364 222.9 491.401 223.801 491.667C225.446 492.153 226.692 493.067 227.538 494.41C228.389 495.734 228.553 497.279 228.031 499.045C227.525 500.759 226.49 501.998 224.929 502.76C223.367 503.521 221.607 503.613 219.651 503.035ZM220.41 499.701C221.345 499.978 222.167 499.938 222.874 499.583C223.599 499.232 224.059 498.727 224.253 498.07C224.504 497.221 224.381 496.489 223.886 495.872C223.395 495.238 222.701 494.787 221.8 494.521C220.415 494.112 219.127 494.324 217.94 495.159C217.739 496.154 217.823 497.082 218.19 497.944C218.562 498.788 219.301 499.374 220.41 499.701ZM248.039 511.086L237.26 507.901L237.951 505.563L232.99 504.097L230.896 506.02L227.025 504.876L240.131 493.218L252.26 496.803L251.393 499.737L244.043 497.565L243.267 500.188L250.436 502.307L249.569 505.241L242.4 503.123L241.556 505.979L248.906 508.152L248.039 511.086ZM238.833 502.577L240.453 497.097L235.509 501.594L238.833 502.577ZM263.651 513.752C261.816 514.735 259.774 514.894 257.523 514.228C255.271 513.563 253.634 512.317 252.612 510.49C251.606 508.667 251.424 506.674 252.063 504.51C252.703 502.347 253.94 500.772 255.774 499.79C257.626 498.812 259.677 498.656 261.928 499.321C264.18 499.987 265.807 501.23 266.813 503.052C267.835 504.879 268.027 506.876 267.388 509.039C266.748 511.203 265.502 512.774 263.651 513.752ZM255.75 509.045C256.279 510.124 257.166 510.847 258.413 511.216C259.66 511.584 260.79 511.458 261.802 510.834C262.832 510.215 263.534 509.275 263.907 508.011C264.286 506.73 264.208 505.558 263.675 504.497C263.164 503.423 262.285 502.702 261.038 502.334C259.791 501.965 258.653 502.09 257.623 502.708C256.616 503.314 255.922 504.258 255.544 505.539C255.17 506.803 255.24 507.971 255.75 509.045ZM263.757 498.676C263.256 498.528 262.866 498.252 262.589 497.851C262.312 497.449 262.08 497.059 261.889 496.684C261.716 496.313 261.5 496.088 261.24 496.012C260.617 495.827 260.146 496.273 259.829 497.346L258.089 496.831C258.417 495.723 258.912 494.937 259.576 494.475C260.241 494.013 261.022 493.914 261.923 494.18C262.408 494.324 262.788 494.597 263.065 494.998C263.342 495.399 263.566 495.787 263.739 496.157C263.935 496.517 264.162 496.734 264.421 496.811C265.045 496.995 265.512 496.56 265.825 495.503L267.565 496.017C267.237 497.126 266.742 497.911 266.078 498.373C265.431 498.841 264.658 498.942 263.757 498.676Z" fill="#0B0B0B"/>
</g>
</g>
<defs>
<clipPath id="clip0_213_148">
<rect width="303" height="545" fill="white" transform="translate(155) rotate(16.4651)"/>
</clipPath>
</defs>
</svg>
