<svg width="830" height="612" viewBox="0 0 830 612" fill="none" xmlns="http://www.w3.org/2000/svg">
<g clip-path="url(#clip0_220_1909)">
<rect width="866" height="401" transform="translate(0 224.137) rotate(-15)" fill="#FAFAFA"/>
<path d="M836.492 3.73125e-05L0 224.137L103.786 611.474L940.278 387.336L836.492 3.73125e-05Z" fill="#FAFAFA"/>
<path d="M139.312 315.183L786.045 144.029" stroke="#7B7B7B" stroke-width="2"/>
<path d="M146.041 340.297L792.774 169.144" stroke="#7B7B7B" stroke-width="2"/>
<path d="M152.77 365.411L799.503 194.258" stroke="#7B7B7B" stroke-width="2"/>
<path d="M159.499 390.525L806.232 219.372" stroke="#7B7B7B" stroke-width="2"/>
<path d="M166.229 415.639L812.962 244.486" stroke="#7B7B7B" stroke-width="2"/>
<path d="M172.958 440.754L819.691 269.6" stroke="#7B7B7B" stroke-width="2"/>
<path d="M180.657 465.608L827.388 294.448" stroke="#7B7B7B" stroke-width="2"/>
<path d="M188.354 490.462L835.086 319.303" stroke="#7B7B7B" stroke-width="2"/>
<path d="M156.471 282.633L220.917 523.148" stroke="#7B7B7B" stroke-width="2"/>
<path d="M178.688 276.68L243.133 517.195" stroke="#7B7B7B" stroke-width="2"/>
<path d="M200.904 270.727L265.35 511.243" stroke="#7B7B7B" stroke-width="2"/>
<path d="M223.12 264.774L287.566 505.29" stroke="#7B7B7B" stroke-width="2"/>
<path d="M245.337 258.821L309.783 499.337" stroke="#7B7B7B" stroke-width="2"/>
<path d="M267.553 252.869L331.999 493.384" stroke="#7B7B7B" stroke-width="2"/>
<path d="M289.77 246.916L354.215 487.431" stroke="#7B7B7B" stroke-width="2"/>
<path d="M311.985 240.963L376.431 481.478" stroke="#7B7B7B" stroke-width="2"/>
<path d="M334.202 235.01L398.648 475.526" stroke="#7B7B7B" stroke-width="2"/>
<path d="M356.418 229.057L420.864 469.573" stroke="#7B7B7B" stroke-width="2"/>
<path d="M378.635 223.104L443.081 463.62" stroke="#7B7B7B" stroke-width="2"/>
<path d="M400.851 217.151L465.297 457.667" stroke="#7B7B7B" stroke-width="2"/>
<path d="M423.066 211.199L487.512 451.714" stroke="#7B7B7B" stroke-width="2"/>
<path d="M445.283 205.246L509.729 445.761" stroke="#7B7B7B" stroke-width="2"/>
<path d="M467.499 199.293L531.945 439.808" stroke="#7B7B7B" stroke-width="2"/>
<path d="M489.716 193.34L554.162 433.856" stroke="#7B7B7B" stroke-width="2"/>
<path d="M511.932 187.387L576.378 427.903" stroke="#7B7B7B" stroke-width="2"/>
<path d="M534.148 181.434L598.594 421.95" stroke="#7B7B7B" stroke-width="2"/>
<path d="M556.364 175.482L620.81 415.997" stroke="#7B7B7B" stroke-width="2"/>
<path d="M578.581 169.529L643.027 410.044" stroke="#7B7B7B" stroke-width="2"/>
<path d="M600.797 163.576L665.243 404.091" stroke="#7B7B7B" stroke-width="2"/>
<path d="M623.014 157.623L687.46 398.139" stroke="#7B7B7B" stroke-width="2"/>
<path d="M645.229 151.67L709.675 392.186" stroke="#7B7B7B" stroke-width="2"/>
<path d="M667.446 145.718L731.892 386.233" stroke="#7B7B7B" stroke-width="2"/>
<path d="M689.662 139.765L754.108 380.28" stroke="#7B7B7B" stroke-width="2"/>
<path d="M711.879 133.812L776.325 374.327" stroke="#7B7B7B" stroke-width="2"/>
<path d="M734.095 127.859L798.541 368.375" stroke="#7B7B7B" stroke-width="2"/>
<path d="M756.312 121.906L820.757 362.422" stroke="#7B7B7B" stroke-width="2"/>
<path d="M212.085 517.233L344.067 481.868C344.85 481.659 345.429 480.997 345.533 480.193L355.742 401.143C355.968 399.397 358.177 398.773 359.282 400.144L408.232 460.824C409.275 462.117 411.348 461.649 411.734 460.035L428.393 390.473C428.501 390.023 428.762 389.622 429.133 389.343L454.071 370.512C454.34 370.308 454.553 370.041 454.691 369.733L477.922 317.856C478.002 317.678 478.054 317.489 478.08 317.294L489.696 227.352C489.801 226.548 490.379 225.887 491.162 225.677L518.333 218.396C518.732 218.289 519.088 218.062 519.352 217.744L549.066 182.062C549.286 181.798 549.571 181.594 549.894 181.473L577.691 170.922L609.184 155.253C609.568 155.062 610.002 154.999 610.424 155.074L644.772 161.166C645.069 161.218 645.349 161.337 645.594 161.514L694.931 197.171C695.074 197.275 695.203 197.398 695.314 197.534L743.95 257.695C745.144 259.174 747.533 258.309 747.505 256.408L745.509 121.02C745.49 119.764 746.621 118.802 747.858 119.022L780.921 124.885" stroke="#0B0B0B" stroke-width="4" stroke-dasharray="8 10"/>
<path d="M65.4155 305.996L84.734 300.819" stroke="#0B0B0B" stroke-width="4" stroke-linecap="round"/>
<path d="M70.0742 323.383L89.3927 318.206" stroke="#0B0B0B" stroke-width="4" stroke-linecap="round"/>
<path d="M74.7329 340.769L94.0514 335.593" stroke="#0B0B0B" stroke-width="4" stroke-linecap="round"/>
<path d="M79.3916 358.156L98.7101 352.979" stroke="#0B0B0B" stroke-width="4" stroke-linecap="round"/>
<path d="M84.0503 375.542L103.369 370.366" stroke="#0B0B0B" stroke-width="4" stroke-linecap="round"/>
<path d="M88.709 392.929L108.028 387.753" stroke="#0B0B0B" stroke-width="4" stroke-linecap="round"/>
<path d="M93.3682 410.316L112.687 405.139" stroke="#0B0B0B" stroke-width="4" stroke-linecap="round"/>
<path d="M98.0269 427.702L117.345 422.526" stroke="#0B0B0B" stroke-width="4" stroke-linecap="round"/>
<path d="M102.686 445.089L122.004 439.913" stroke="#0B0B0B" stroke-width="4" stroke-linecap="round"/>
<path d="M107.344 462.476L126.663 457.299" stroke="#0B0B0B" stroke-width="4" stroke-linecap="round"/>
<path d="M112.003 479.863L131.321 474.686" stroke="#0B0B0B" stroke-width="4" stroke-linecap="round"/>
<path d="M116.662 497.249L135.98 492.073" stroke="#0B0B0B" stroke-width="4" stroke-linecap="round"/>
<path d="M121.32 514.636L140.639 509.459" stroke="#0B0B0B" stroke-width="4" stroke-linecap="round"/>
<path d="M125.979 532.022L145.298 526.846" stroke="#0B0B0B" stroke-width="4" stroke-linecap="round"/>
<path d="M67.7451 314.689L77.4044 312.101" stroke="#0B0B0B" stroke-width="4" stroke-linecap="round"/>
<path d="M72.4038 332.076L82.0631 329.487" stroke="#0B0B0B" stroke-width="4" stroke-linecap="round"/>
<path d="M77.0625 349.462L86.7218 346.874" stroke="#0B0B0B" stroke-width="4" stroke-linecap="round"/>
<path d="M81.7212 366.849L91.3804 364.261" stroke="#0B0B0B" stroke-width="4" stroke-linecap="round"/>
<path d="M86.3799 384.236L96.0391 381.648" stroke="#0B0B0B" stroke-width="4" stroke-linecap="round"/>
<path d="M91.0386 401.623L100.698 399.034" stroke="#0B0B0B" stroke-width="4" stroke-linecap="round"/>
<path d="M95.6973 419.009L105.357 416.421" stroke="#0B0B0B" stroke-width="4" stroke-linecap="round"/>
<path d="M100.356 436.396L110.015 433.808" stroke="#0B0B0B" stroke-width="4" stroke-linecap="round"/>
<path d="M105.015 453.782L114.674 451.194" stroke="#0B0B0B" stroke-width="4" stroke-linecap="round"/>
<path d="M109.673 471.169L119.333 468.581" stroke="#0B0B0B" stroke-width="4" stroke-linecap="round"/>
<path d="M114.333 488.556L123.992 485.967" stroke="#0B0B0B" stroke-width="4" stroke-linecap="round"/>
<path d="M118.991 505.942L128.65 503.354" stroke="#0B0B0B" stroke-width="4" stroke-linecap="round"/>
<path d="M123.65 523.329L133.309 520.741" stroke="#0B0B0B" stroke-width="4" stroke-linecap="round"/>
<path d="M128.309 540.716L137.968 538.128" stroke="#0B0B0B" stroke-width="4" stroke-linecap="round"/>
<path d="M156.36 510.423L149.56 512.245L149.365 511.519C152.116 507.751 153.926 505.112 153.392 503.118C152.995 501.635 151.608 501.344 150.48 501.646C149.197 501.99 148.357 502.811 148.012 503.748L147.26 503.354C147.721 502.17 148.812 501.232 150.265 500.842C151.779 500.437 153.742 500.838 154.289 502.878C154.897 505.15 153.057 507.863 150.72 511.073L156.145 509.62L156.36 510.423ZM162.36 509.014C160.645 509.474 159.416 509.091 158.432 508.261L158.861 507.517C159.779 508.281 160.816 508.567 162.145 508.211C163.644 507.809 164.436 506.437 164.059 505.031C163.641 503.47 162.302 502.802 160.819 503.199C159.876 503.452 159.155 503.976 158.584 504.875L157.845 504.774L156.396 499.365L162.346 497.771L162.561 498.575L157.492 499.933L158.573 503.967C158.95 503.335 159.707 502.636 160.773 502.35C162.504 501.886 164.372 502.612 164.947 504.76C165.498 506.815 164.261 508.505 162.36 509.014Z" fill="#0B0B0B"/>
<path d="M220.012 537.048C219.053 537.305 218.201 537.152 217.43 536.564L217.744 535.817C218.286 536.235 218.959 536.519 219.762 536.303C220.968 535.98 221.503 535.009 221.2 533.881L219.585 527.853L220.435 527.625L222.059 533.684C222.535 535.461 221.542 536.638 220.012 537.048ZM225.385 526.299L226.374 526.034L232.314 533.553L231.356 533.81L229.909 531.994L225.288 533.233L224.973 535.52L223.999 535.781L225.385 526.299ZM229.428 531.312L226.128 527.094L225.363 532.401L229.428 531.312ZM240.899 531.253L240.065 531.476L232.672 525.771L234.594 532.942L233.744 533.17L231.466 524.67L232.332 524.438L239.664 530.043L237.772 522.98L238.622 522.752L240.899 531.253ZM249.628 528.914L248.747 529.15L246.308 520.047L245.127 522.252L244.433 521.825L246.063 518.821L246.866 518.605L249.628 528.914ZM253.305 527.697C253.537 528.562 253.246 529.518 252.755 530.097L252.208 529.846C252.611 529.373 252.82 528.671 252.723 528.184C252.723 528.184 252.619 528.228 252.573 528.241C252.202 528.34 251.864 528.132 251.765 527.761C251.67 527.406 251.881 527.018 252.251 526.919C252.669 526.807 253.135 527.063 253.305 527.697ZM265.951 524.54L259.151 526.362L258.956 525.636C261.706 521.868 263.517 519.229 262.983 517.235C262.585 515.752 261.199 515.461 260.071 515.763C258.788 516.107 257.948 516.928 257.603 517.865L256.851 517.47C257.312 516.287 258.402 515.348 259.855 514.959C261.37 514.553 263.333 514.955 263.879 516.995C264.488 519.267 262.647 521.98 260.311 525.19L265.735 523.736L265.951 524.54ZM272.044 523.106C269.262 523.852 267.452 521.239 266.798 518.797C266.14 516.34 266.409 513.203 269.191 512.458C271.942 511.721 273.759 514.298 274.417 516.755C275.072 519.197 274.795 522.369 272.044 523.106ZM271.829 522.302C273.977 521.727 274.042 519.125 273.475 517.008C272.903 514.875 271.57 512.682 269.406 513.261C267.227 513.845 267.154 516.416 267.725 518.549C268.293 520.666 269.65 522.886 271.829 522.302ZM281.446 520.587C278.665 521.332 276.855 518.72 276.2 516.278C275.542 513.82 275.811 510.684 278.593 509.938C281.344 509.201 283.161 511.779 283.82 514.236C284.474 516.678 284.197 519.85 281.446 520.587ZM281.231 519.783C283.379 519.207 283.444 516.606 282.877 514.489C282.305 512.356 280.972 510.162 278.809 510.742C276.629 511.326 276.556 513.896 277.128 516.029C277.695 518.147 279.052 520.367 281.231 519.783ZM292.391 517.455L291.51 517.691L290.756 514.879L285.873 516.187L285.661 515.399L288.439 507.466L289.629 507.147L291.422 513.839L292.936 513.433L293.152 514.237L291.637 514.643L292.391 517.455ZM290.541 514.075L288.984 508.264L286.569 515.139L290.541 514.075Z" fill="#0B0B0B"/>
<path d="M771.556 389.263C770.597 389.519 769.745 389.367 768.974 388.778L769.288 388.032C769.83 388.449 770.503 388.733 771.306 388.518C772.512 388.195 773.047 387.223 772.744 386.095L771.129 380.068L771.979 379.84L773.603 385.898C774.079 387.675 773.086 388.853 771.556 389.263ZM776.929 378.514L777.918 378.249L783.858 385.767L782.9 386.024L781.453 384.209L776.832 385.447L776.517 387.734L775.543 387.995L776.929 378.514ZM780.972 383.526L777.672 379.308L776.907 384.615L780.972 383.526ZM792.443 383.467L791.609 383.691L784.216 377.985L786.138 385.156L785.288 385.384L783.01 376.884L783.876 376.652L791.208 382.257L789.316 375.195L790.166 374.967L792.443 383.467ZM801.172 381.128L800.291 381.364L797.852 372.261L796.671 374.466L795.977 374.039L797.607 371.035L798.41 370.82L801.172 381.128ZM804.849 379.911C805.081 380.776 804.79 381.732 804.299 382.311L803.752 382.06C804.155 381.588 804.364 380.886 804.267 380.398C804.267 380.398 804.163 380.443 804.117 380.455C803.746 380.554 803.408 380.347 803.309 379.976C803.214 379.62 803.425 379.232 803.795 379.133C804.213 379.021 804.679 379.277 804.849 379.911ZM817.495 376.754L810.694 378.577L810.5 377.85C813.25 374.082 815.061 371.443 814.527 369.45C814.129 367.966 812.743 367.675 811.615 367.977C810.332 368.321 809.492 369.142 809.147 370.08L808.395 369.685C808.856 368.501 809.946 367.563 811.399 367.174C812.914 366.768 814.877 367.169 815.423 369.209C816.032 371.481 814.191 374.194 811.855 377.404L817.279 375.951L817.495 376.754ZM823.588 375.32C820.806 376.066 818.996 373.453 818.342 371.011C817.684 368.554 817.953 365.417 820.735 364.672C823.486 363.935 825.303 366.513 825.961 368.97C826.616 371.412 826.339 374.583 823.588 375.32ZM823.373 374.517C825.521 373.941 825.586 371.34 825.019 369.222C824.447 367.09 823.114 364.896 820.95 365.476C818.771 366.06 818.698 368.63 819.269 370.763C819.837 372.88 821.194 375.101 823.373 374.517ZM835.893 371.825L829.092 373.647L828.898 372.92C831.648 369.152 833.459 366.514 832.925 364.52C832.527 363.036 831.141 362.745 830.013 363.048C828.73 363.391 827.89 364.213 827.545 365.15L826.793 364.755C827.254 363.571 828.344 362.633 829.797 362.244C831.312 361.838 833.275 362.24 833.821 364.28C834.43 366.552 832.589 369.264 830.253 372.475L835.677 371.021L835.893 371.825ZM841.275 370.581C839.591 371.033 838.158 370.572 837.307 369.806L837.769 369.119C838.56 369.785 839.731 370.134 841.044 369.782C842.636 369.355 843.417 368.251 843.053 366.891C842.655 365.408 841.269 365.117 839.723 365.531C839.306 365.643 838.924 365.762 838.773 365.818L838.55 364.984C838.708 364.958 839.095 364.854 839.512 364.743C840.887 364.374 841.966 363.456 841.598 362.08C841.254 360.797 839.92 360.393 838.591 360.749C837.416 361.064 836.706 361.751 836.176 362.804L835.471 362.397C835.961 361.321 836.923 360.335 838.422 359.933C840.215 359.452 842.006 360.016 842.474 361.763C842.896 363.339 841.749 364.375 840.91 364.766C841.831 364.618 843.506 364.998 843.962 366.698C844.417 368.398 843.47 369.993 841.275 370.581Z" fill="#0B0B0B"/>
<path d="M139.389 459.264C137.674 459.724 136.445 459.341 135.46 458.512L135.89 457.767C136.808 458.532 137.845 458.817 139.174 458.461C140.673 458.059 141.465 456.687 141.088 455.281C140.67 453.72 139.331 453.052 137.848 453.449C136.905 453.702 136.184 454.226 135.613 455.125L134.874 455.025L133.425 449.615L139.375 448.021L139.59 448.825L134.521 450.183L135.602 454.217C135.979 453.586 136.736 452.886 137.802 452.6C139.533 452.136 141.401 452.862 141.976 455.01C142.527 457.065 141.29 458.755 139.389 459.264ZM148.477 456.829C145.695 457.575 143.885 454.962 143.231 452.52C142.573 450.063 142.842 446.926 145.624 446.181C148.375 445.444 150.192 448.021 150.85 450.479C151.505 452.921 151.228 456.092 148.477 456.829ZM148.262 456.026C150.41 455.45 150.475 452.849 149.908 450.731C149.336 448.599 148.003 446.405 145.839 446.985C143.66 447.569 143.587 450.139 144.158 452.272C144.726 454.389 146.083 456.61 148.262 456.026Z" fill="#0B0B0B"/>
<path d="M123.601 407.391L122.627 407.652L124.408 396.988L118.705 398.516L118.49 397.712L125.243 395.903L125.409 396.521L123.601 407.391ZM133.17 405.026C131.455 405.486 130.226 405.103 129.241 404.273L129.671 403.529C130.589 404.293 131.626 404.579 132.955 404.222C134.454 403.821 135.246 402.449 134.869 401.043C134.451 399.482 133.112 398.813 131.629 399.211C130.686 399.463 129.965 399.988 129.394 400.886L128.655 400.786L127.206 395.377L133.156 393.783L133.371 394.586L128.302 395.945L129.383 399.978C129.76 399.347 130.517 398.647 131.583 398.362C133.314 397.898 135.182 398.623 135.757 400.771C136.308 402.827 135.071 404.517 133.17 405.026Z" fill="#0B0B0B"/>
<path d="M110.243 355.066L109.362 355.302L106.923 346.199L105.742 348.404L105.048 347.977L106.678 344.973L107.481 344.757L110.243 355.066ZM116.284 353.646C113.502 354.391 111.692 351.779 111.038 349.337C110.379 346.879 110.648 343.743 113.43 342.998C116.181 342.26 117.998 344.838 118.657 347.295C119.311 349.737 119.035 352.909 116.284 353.646ZM116.068 352.842C118.216 352.267 118.281 349.665 117.714 347.548C117.143 345.415 115.809 343.221 113.646 343.801C111.467 344.385 111.393 346.956 111.965 349.088C112.532 351.206 113.889 353.426 116.068 352.842ZM125.686 351.126C122.904 351.872 121.095 349.259 120.44 346.817C119.782 344.36 120.051 341.223 122.833 340.478C125.584 339.741 127.401 342.319 128.059 344.776C128.714 347.218 128.437 350.389 125.686 351.126ZM125.471 350.323C127.619 349.747 127.684 347.146 127.117 345.028C126.545 342.896 125.212 340.702 123.048 341.282C120.869 341.866 120.796 344.436 121.368 346.569C121.935 348.686 123.292 350.907 125.471 350.323Z" fill="#0B0B0B"/>
<path d="M830.645 12.9546L14.438 231.657L112.53 597.743L928.738 379.041L830.645 12.9546Z" stroke="#0B0B0B" stroke-width="4"/>
<path d="M72.1206 282.955C65.8228 284.643 59.7882 282.367 58.1731 276.34C56.4028 269.733 60.1121 262.403 67.8009 260.343C72.3987 259.111 76.6545 260.621 78.6833 263.556L72.9169 268C72.1813 266.954 70.7351 266.348 68.9192 266.835C65.9055 267.642 64.6286 270.759 65.4051 273.656C66.078 276.168 68.424 277.196 70.8195 276.554C72.0172 276.233 72.496 275.856 72.8306 275.559L72.7829 274.454L69.2283 275.407L68.9739 269.512L79.715 266.634L80.2072 277.434C78.2314 279.951 75.6366 282.013 72.1206 282.955ZM103.619 274.018L95.6208 276.161L92.4161 270.229L90.1752 270.829L90.4821 277.538L83.257 279.474L82.238 256.971L93.0178 254.083C98.311 252.665 101.905 254.642 102.899 258.351C103.976 262.369 102.068 266.069 99.3031 267.804L103.619 274.018ZM94.1107 263.107L94.3426 263.045C95.2698 262.797 95.8176 261.905 95.6105 261.132C95.4656 260.591 95.0323 260.21 94.105 260.459L89.7776 261.618L89.8993 264.236L94.1107 263.107ZM111.16 249.222L119.969 246.861L129.218 267.159L121.259 269.292L120.357 267.007L112.707 269.057L112.063 271.756L103.911 273.94L111.16 249.222ZM118.033 260.963L115.973 255.593L114.44 261.926L118.033 260.963ZM137.722 264.881L130.497 266.816L129.478 244.313L140.296 241.415C145.28 240.079 149.068 242.005 150.113 245.907C151.221 250.041 149.083 255.045 143.79 256.463L137.415 258.171L137.722 264.881ZM137.139 251.578L141.621 250.377C142.548 250.129 143.068 249.286 142.861 248.513C142.685 247.856 142.04 247.615 141.306 247.811L137.017 248.96L137.139 251.578ZM174.967 254.901L167.78 256.826L167.41 248.643L159.953 250.641L160.324 258.824L153.097 260.761L152.079 238.257L159.305 236.321L159.677 244.048L167.134 242.05L166.762 234.323L173.948 232.398L174.967 254.901ZM200.935 248.44C194.328 250.21 188.537 247.455 186.974 241.621C185.183 234.936 189.197 227.815 196.499 225.858C203.106 224.088 208.896 226.843 210.46 232.677C212.251 239.362 208.237 246.483 200.935 248.44ZM199.44 242.09C202.57 241.251 203.96 237.939 203.225 235.196C202.624 232.955 200.543 231.525 197.993 232.208C194.864 233.046 193.474 236.359 194.209 239.102C194.809 241.343 196.89 242.773 199.44 242.09ZM220.92 242.588L213.695 244.524L212.676 222.021L229.985 217.383L230.276 223.723L220.192 226.425L220.258 228.064L230.111 225.424L230.402 231.765L220.549 234.405L220.92 242.588ZM251.105 234.5L243.88 236.436L242.861 213.932L260.17 209.294L260.461 215.635L250.377 218.337L250.444 219.976L260.296 217.336L260.587 223.677L250.735 226.317L251.105 234.5ZM276.474 228.199C269.867 229.969 264.076 227.214 262.513 221.38C260.722 214.696 264.736 207.574 272.038 205.618C278.645 203.847 284.436 206.602 285.999 212.437C287.79 219.121 283.776 226.242 276.474 228.199ZM274.98 221.849C278.109 221.011 279.499 217.698 278.764 214.955C278.164 212.714 276.083 211.284 273.532 211.967C270.403 212.806 269.013 216.118 269.748 218.862C270.348 221.103 272.429 222.533 274.98 221.849ZM311.063 218.434L303.645 220.422L295.906 210.859L296.42 222.358L289.233 224.283L288.214 201.78L296.057 199.679L303.322 208.706L302.858 197.856L310.044 195.931L311.063 218.434ZM326.288 214.354L319.101 216.28L318.358 200.37L312.833 201.851L312.557 195.257L330.755 190.381L331.031 196.974L325.545 198.445L326.288 214.354ZM351.358 207.637L344.132 209.573L343.114 187.07L353.932 184.171C358.916 182.836 362.703 184.761 363.749 188.663C364.857 192.797 362.719 197.801 357.426 199.22L351.051 200.928L351.358 207.637ZM350.775 194.335L355.257 193.134C356.184 192.885 356.703 192.042 356.496 191.269C356.32 190.612 355.676 190.371 354.942 190.568L350.653 191.717L350.775 194.335ZM378.989 200.73C372.383 202.5 366.592 199.745 365.029 193.911C363.238 187.227 367.251 180.105 374.554 178.149C381.161 176.378 386.951 179.133 388.514 184.968C390.305 191.652 386.292 198.773 378.989 200.73ZM377.495 194.38C380.625 193.542 382.015 190.229 381.28 187.486C380.679 185.245 378.598 183.815 376.048 184.498C372.919 185.337 371.529 188.649 372.264 191.393C372.864 193.634 374.945 195.064 377.495 194.38ZM398.975 194.878L391.75 196.814L390.731 174.311L401.549 171.412C406.533 170.077 410.321 172.002 411.366 175.904C412.474 180.038 410.336 185.042 405.043 186.461L398.668 188.169L398.975 194.878ZM398.392 181.576L402.874 180.375C403.801 180.126 404.321 179.283 404.114 178.51C403.938 177.853 403.293 177.612 402.559 177.809L398.27 178.958L398.392 181.576ZM427.495 187.733C419.884 189.772 415.253 187.328 414.156 183.232C414.021 182.73 413.954 182.168 413.925 181.596L413.332 168.255L420.595 166.309L421.157 178.913C421.19 179.194 421.214 179.436 421.276 179.668C421.742 181.406 423.49 182.056 425.615 181.487C427.778 180.907 428.709 179.125 428.614 176.915L428.052 164.311L435.316 162.364L435.899 175.667C436.166 181.765 434.141 185.952 427.495 187.733ZM455.806 179.65L440.197 183.833L439.178 161.33L446.403 159.394L447.107 175.314L455.492 173.067L455.806 179.65ZM463.346 154.854L472.155 152.493L481.404 172.791L473.445 174.924L472.543 172.639L464.893 174.689L464.249 177.388L456.097 179.572L463.346 154.854ZM470.219 166.595L468.159 161.225L466.626 167.558L470.219 166.595ZM503.044 166.993L495.046 169.136L491.841 163.203L489.6 163.804L489.907 170.513L482.682 172.449L481.663 149.946L492.443 147.057C497.736 145.639 501.33 147.616 502.324 151.325C503.401 155.343 501.493 159.043 498.728 160.778L503.044 166.993ZM493.536 156.082L493.768 156.02C494.695 155.771 495.243 154.879 495.036 154.106C494.891 153.565 494.457 153.185 493.53 153.433L489.203 154.593L489.324 157.21L493.536 156.082ZM513.15 164.285L505.925 166.221L504.906 143.718L512.131 141.782L513.15 164.285ZM528.377 160.205L521.191 162.13L520.447 146.221L514.922 147.701L514.646 141.108L532.845 136.232L533.12 142.825L527.634 144.295L528.377 160.205ZM549.279 154.604L542.169 156.509L541.746 147.512L532.766 136.253L540.726 134.12L545.01 140.219L548.53 132.029L556.605 129.865L548.856 145.607L549.279 154.604Z" fill="#0B0B0B"/>
<path d="M359.694 409.353C363.161 408.424 365.219 404.859 364.29 401.392C363.361 397.924 359.797 395.867 356.329 396.796C352.862 397.725 350.804 401.289 351.733 404.757C352.662 408.224 356.226 410.282 359.694 409.353Z" fill="#0B0B0B"/>
<path d="M430.794 396.513C434.261 395.584 436.319 392.02 435.39 388.553C434.461 385.085 430.896 383.027 427.429 383.956C423.961 384.885 421.904 388.45 422.833 391.917C423.762 395.385 427.326 397.443 430.794 396.513Z" fill="#0B0B0B"/>
<path d="M492.824 233.918C496.291 232.989 498.349 229.425 497.42 225.957C496.491 222.49 492.927 220.432 489.459 221.361C485.992 222.29 483.934 225.855 484.863 229.322C485.792 232.79 489.356 234.847 492.824 233.918Z" fill="#0B0B0B"/>
<path d="M750.102 127.711C753.57 126.782 755.627 123.218 754.698 119.75C753.769 116.283 750.205 114.225 746.738 115.154C743.27 116.083 741.212 119.647 742.141 123.115C743.07 126.582 746.635 128.64 750.102 127.711Z" fill="#0B0B0B"/>
<path d="M611.681 161.695C615.415 160.694 617.631 156.856 616.631 153.122C615.63 149.387 611.792 147.171 608.057 148.172C604.323 149.173 602.107 153.011 603.108 156.745C604.108 160.479 607.947 162.695 611.681 161.695Z" fill="#0B0B0B"/>
<path d="M823.496 110.654C822.821 108.135 824.099 105.672 826.727 104.968C829.354 104.264 831.692 105.758 832.367 108.277C832.748 109.699 832.47 110.949 831.809 112.004L831.149 111.519C831.686 110.679 831.9 109.562 831.61 108.48C831.063 106.44 829.126 105.269 826.963 105.849C824.814 106.425 823.691 108.415 824.238 110.455C824.544 111.599 825.341 112.346 825.918 112.705L827.896 112.175L827.125 109.3L827.867 109.102L828.865 112.826L825.836 113.638C824.755 113.066 823.865 112.029 823.496 110.654ZM826.866 122.487L826.584 121.436L829.392 118.067L828.886 116.181L825.424 117.109L825.197 116.259L833.697 113.981L834.6 117.35C835.063 119.081 834.247 120.36 832.825 120.741C831.387 121.126 830.142 120.433 829.682 118.966L826.866 122.487ZM830.302 118.436C830.642 119.703 831.553 120.138 832.589 119.86C833.609 119.587 834.153 118.712 833.826 117.491L833.167 115.034L829.644 115.978L830.302 118.436ZM836.601 124.818L836.866 125.807L829.347 131.747L829.09 130.789L830.905 129.342L829.667 124.721L827.38 124.406L827.119 123.433L836.601 124.818ZM831.588 128.861L835.806 125.561L830.499 124.796L831.588 128.861ZM829.958 134.028L829.73 133.178L838.23 130.9L839.133 134.27C839.618 136.078 838.699 137.285 837.354 137.645C835.994 138.009 834.579 137.428 834.095 135.62L833.42 133.1L829.958 134.028ZM834.835 135.355C835.175 136.622 836.098 137.037 837.118 136.764C838.123 136.495 838.69 135.647 838.359 134.411L837.701 131.953L834.177 132.897L834.835 135.355ZM833.771 148.258L833.547 147.423L837.55 146.351L836.067 140.818L832.065 141.891L831.837 141.041L840.337 138.763L840.565 139.613L836.809 140.619L838.292 146.152L842.047 145.146L842.271 145.98L833.771 148.258ZM836.519 158.516L835.513 154.761L844.013 152.483L844.999 156.161C845.405 157.676 844.831 158.873 843.487 159.233C842.467 159.507 841.569 159.002 841.165 158.298C841.174 159.257 840.476 160.239 839.518 160.496C838.112 160.872 836.95 160.123 836.519 158.516ZM837.252 158.22C837.55 159.333 838.35 159.848 839.34 159.583C840.174 159.359 840.801 158.545 840.482 157.355L839.728 154.542L836.498 155.408L837.252 158.22ZM841.223 157.09C841.517 158.188 842.339 158.597 843.173 158.373C844.07 158.133 844.511 157.369 844.221 156.287L843.484 153.536L840.486 154.339L841.223 157.09ZM838.563 166.143L838.335 165.293L841.967 164.32L845.875 159.43L846.148 160.45L842.84 164.55L847.738 166.385L848.007 167.389L842.195 165.17L838.563 166.143ZM841.872 179.235C841.197 176.716 842.475 174.253 845.103 173.549C847.73 172.845 850.068 174.339 850.743 176.858C851.124 178.28 850.846 179.53 850.185 180.585L849.525 180.1C850.062 179.26 850.276 178.142 849.986 177.061C849.439 175.021 847.502 173.85 845.339 174.43C843.191 175.005 842.067 176.996 842.614 179.036C842.921 180.18 843.717 180.927 844.294 181.286L846.272 180.756L845.502 177.881L846.243 177.682L847.241 181.407L844.212 182.219C843.132 181.647 842.241 180.61 841.872 179.235ZM844.431 188.784C843.727 186.157 845.238 183.946 847.711 183.283C850.199 182.617 852.598 183.78 853.302 186.407C854.002 189.019 852.51 191.241 850.022 191.907C847.549 192.57 845.131 191.396 844.431 188.784ZM845.188 188.581C845.743 190.652 847.699 191.585 849.786 191.026C851.903 190.459 853.1 188.681 852.545 186.61C851.982 184.508 850.064 183.597 847.947 184.164C845.861 184.723 844.625 186.479 845.188 188.581ZM847.189 199.077C846.485 196.449 847.996 194.239 850.469 193.576C852.957 192.91 855.356 194.072 856.06 196.7C856.76 199.312 855.268 201.533 852.78 202.2C850.307 202.863 847.889 201.689 847.189 199.077ZM847.946 198.874C848.501 200.945 850.457 201.878 852.544 201.319C854.661 200.752 855.858 198.974 855.303 196.903C854.739 194.801 852.822 193.89 850.705 194.457C848.619 195.016 847.383 196.772 847.946 198.874ZM849.997 209.556C849.322 207.037 850.6 204.574 853.227 203.87C855.855 203.166 858.193 204.66 858.868 207.179C859.249 208.601 858.971 209.851 858.31 210.907L857.649 210.421C858.186 209.581 858.4 208.464 858.111 207.382C857.564 205.342 855.627 204.171 853.463 204.751C851.315 205.327 850.192 207.317 850.739 209.357C851.045 210.501 851.842 211.248 852.418 211.607L854.396 211.077L853.626 208.203L854.368 208.004L855.366 211.728L852.337 212.54C851.256 211.968 850.365 210.932 849.997 209.556ZM853.072 220.292L851.697 215.161L860.198 212.883L860.425 213.733L852.682 215.808L853.83 220.089L853.072 220.292ZM855.102 227.866L853.578 222.178L862.078 219.901L863.602 225.588L862.845 225.791L861.548 220.954L858.55 221.757L859.826 226.517L859.068 226.72L857.793 221.96L854.563 222.825L855.859 227.663L855.102 227.866ZM857.482 236.747L857.254 235.897L864.997 233.823L864.268 231.103L865.025 230.9L866.715 237.205L865.957 237.408L865.224 234.673L857.482 236.747ZM860.334 247.394L860.053 246.343L862.86 242.973L862.355 241.088L858.893 242.016L858.665 241.166L867.165 238.888L868.068 242.257C868.532 243.988 867.715 245.267 866.293 245.648C864.856 246.033 863.61 245.34 863.151 243.873L860.334 247.394ZM863.771 243.342C864.11 244.61 865.022 245.045 866.057 244.767C867.077 244.494 867.622 243.619 867.294 242.398L866.636 239.941L863.112 240.885L863.771 243.342ZM862.397 255.093L860.873 249.406L869.373 247.128L870.897 252.816L870.14 253.019L868.844 248.181L865.846 248.985L867.121 253.745L866.364 253.948L865.088 249.187L861.858 250.053L863.155 254.89L862.397 255.093ZM864.881 264.364L864.658 263.53L870.363 256.137L863.192 258.059L862.964 257.209L871.464 254.931L871.696 255.796L866.091 263.129L873.154 261.237L873.382 262.087L864.881 264.364ZM866.318 269.727L865.552 266.868L874.052 264.59L874.819 267.449C875.564 270.231 874.092 272.464 871.758 273.09C869.409 273.719 867.064 272.509 866.318 269.727ZM867.076 269.524C867.693 271.827 869.586 272.711 871.518 272.193C873.45 271.676 874.687 269.986 874.061 267.652L873.523 265.643L866.537 267.515L867.076 269.524ZM868.598 278.977C868.209 277.524 868.474 276.228 869.084 275.352L869.828 275.716C869.355 276.422 869.017 277.573 869.344 278.794C869.796 280.478 870.796 280.873 871.661 280.641C874.134 279.979 871.318 275.035 874.348 274.223C875.739 273.85 877.018 274.916 877.453 276.538C877.813 277.883 877.603 279.016 877.048 279.91L876.328 279.573C876.9 278.74 876.972 277.711 876.711 276.737C876.4 275.578 875.495 274.86 874.599 275.1C872.482 275.667 875.131 280.672 871.917 281.533C870.588 281.889 869.199 281.218 868.598 278.977Z" fill="#0B0B0B"/>
<path d="M804.832 113.667L804.596 112.786L813.699 110.347L811.494 109.166L811.921 108.472L814.925 110.102L815.14 110.905L804.832 113.667ZM806.106 118.422L805.87 117.541L814.973 115.102L812.768 113.92L813.195 113.226L816.199 114.856L816.414 115.659L806.106 118.422ZM806.764 121.436C806.665 121.065 806.887 120.658 807.258 120.558C807.613 120.463 808.009 120.705 808.109 121.076C808.208 121.446 807.982 121.838 807.627 121.934C807.256 122.033 806.864 121.807 806.764 121.436ZM808.282 127.284C807.536 124.503 810.149 122.693 812.591 122.038C815.048 121.38 818.185 121.649 818.93 124.431C819.667 127.182 817.09 128.999 814.632 129.658C812.19 130.312 809.019 130.035 808.282 127.284ZM809.085 127.069C809.661 129.217 812.262 129.282 814.38 128.715C816.513 128.143 818.706 126.81 818.126 124.646C817.543 122.467 814.972 122.394 812.839 122.966C810.722 123.533 808.502 124.89 809.085 127.069ZM810.676 136.157C810.315 134.813 810.637 133.848 811.244 133.023L812.018 133.379C811.491 134.067 811.177 134.814 811.479 135.942C812.088 138.214 814.66 138.353 816.823 137.773C816.978 137.732 817.148 137.686 817.303 137.645C816.476 137.402 815.152 136.482 814.775 135.075C814.278 133.221 814.951 131.467 817.146 130.879C818.831 130.427 820.777 131.264 821.366 133.458C822.111 136.24 819.815 137.932 817.048 138.674C814.405 139.382 811.438 139.001 810.676 136.157ZM815.605 135.019C815.907 136.147 816.928 137.049 818.121 137.359C819.494 136.859 821.092 135.652 820.57 133.705C820.098 131.943 818.514 131.473 817.402 131.771C815.717 132.222 815.212 133.55 815.605 135.019ZM812.309 142.128C812.209 141.757 812.431 141.35 812.802 141.25C813.158 141.155 813.554 141.397 813.653 141.768C813.753 142.139 813.526 142.53 813.171 142.626C812.8 142.725 812.408 142.499 812.309 142.128ZM814.952 151.437L813.13 144.637L813.856 144.442C817.625 147.193 820.263 149.003 822.257 148.469C823.741 148.072 824.032 146.685 823.729 145.557C823.386 144.274 822.564 143.434 821.627 143.089L822.022 142.337C823.206 142.798 824.144 143.889 824.533 145.342C824.939 146.856 824.537 148.819 822.497 149.366C820.225 149.974 817.512 148.134 814.302 145.797L815.756 151.222L814.952 151.437ZM816.386 157.529C815.64 154.748 818.253 152.938 820.695 152.283C823.152 151.625 826.289 151.894 827.034 154.676C827.771 157.427 825.194 159.244 822.736 159.903C820.295 160.557 817.123 160.28 816.386 157.529ZM817.19 157.314C817.765 159.462 820.367 159.527 822.484 158.96C824.617 158.388 826.81 157.055 826.231 154.892C825.647 152.712 823.076 152.639 820.943 153.211C818.826 153.778 816.606 155.135 817.19 157.314ZM819.882 169.835L818.06 163.035L818.786 162.84C822.554 165.591 825.193 167.401 827.187 166.867C828.67 166.47 828.961 165.083 828.659 163.955C828.315 162.672 827.494 161.832 826.557 161.487L826.952 160.735C828.135 161.196 829.073 162.287 829.463 163.74C829.869 165.254 829.467 167.217 827.427 167.764C825.155 168.372 822.442 166.532 819.232 164.195L820.686 169.62L819.882 169.835ZM821.125 175.217C820.674 173.532 821.135 172.1 821.901 171.249L822.588 171.711C821.922 172.502 821.573 173.672 821.925 174.986C822.351 176.578 823.455 177.359 824.815 176.994C826.299 176.597 826.59 175.21 826.176 173.664C826.064 173.247 825.945 172.865 825.888 172.715L826.722 172.491C826.748 172.65 826.852 173.036 826.964 173.453C827.332 174.829 828.251 175.908 829.626 175.539C830.909 175.196 831.314 173.861 830.957 172.532C830.643 171.358 829.955 170.647 828.902 170.118L829.31 169.412C830.385 169.903 831.372 170.864 831.773 172.363C832.254 174.156 831.69 175.947 829.944 176.415C828.367 176.837 827.331 175.69 826.941 174.851C827.088 175.772 826.709 177.447 825.009 177.903C823.309 178.358 821.713 177.411 821.125 175.217Z" fill="#0B0B0B"/>
</g>
<defs>
<clipPath id="clip0_220_1909">
<rect width="866" height="401" fill="white" transform="translate(0 224.137) rotate(-15)"/>
</clipPath>
</defs>
</svg>
