<svg width="1305" height="745" viewBox="0 0 1305 745" fill="none" xmlns="http://www.w3.org/2000/svg">
<path d="M864.805 571.204L744.784 546.976L722.009 658.941L842.031 683.169L864.805 571.204Z" fill="#FAFAFA" stroke="#0B0B0B" stroke-width="4"/>
<path d="M759.996 549.276L737.03 662.178" stroke="#0B0B0B" stroke-width="4"/>
<path d="M769.257 551.146L746.292 664.047" stroke="#0B0B0B" stroke-width="4"/>
<path d="M778.521 553.016L755.556 665.917" stroke="#0B0B0B" stroke-width="4"/>
<path d="M787.782 554.886L764.816 667.787" stroke="#0B0B0B" stroke-width="4"/>
<path d="M797.046 556.755L774.08 669.656" stroke="#0B0B0B" stroke-width="4"/>
<path d="M806.309 558.625L783.344 671.527" stroke="#0B0B0B" stroke-width="4"/>
<path d="M815.574 560.495L792.609 673.396" stroke="#0B0B0B" stroke-width="4"/>
<path d="M824.835 562.365L801.869 675.266" stroke="#0B0B0B" stroke-width="4"/>
<path d="M834.095 564.235L811.13 677.136" stroke="#0B0B0B" stroke-width="4"/>
<path d="M843.359 566.104L820.394 679.006" stroke="#0B0B0B" stroke-width="4"/>
<path d="M852.623 567.975L829.657 680.876" stroke="#0B0B0B" stroke-width="4"/>
<path d="M861.887 569.845L838.923 682.746" stroke="#0B0B0B" stroke-width="4"/>
<path d="M1176.1 257.373L1056.08 233.145L1033.3 345.11L1153.32 369.337L1176.1 257.373Z" fill="#FAFAFA" stroke="#0B0B0B" stroke-width="4"/>
<path d="M1071.29 235.445L1048.33 348.347" stroke="#0B0B0B" stroke-width="4"/>
<path d="M1080.55 237.315L1057.58 350.216" stroke="#0B0B0B" stroke-width="4"/>
<path d="M1089.82 239.185L1066.85 352.086" stroke="#0B0B0B" stroke-width="4"/>
<path d="M1099.07 241.055L1076.11 353.956" stroke="#0B0B0B" stroke-width="4"/>
<path d="M1108.33 242.924L1085.38 355.825" stroke="#0B0B0B" stroke-width="4"/>
<path d="M1117.61 244.794L1094.64 357.696" stroke="#0B0B0B" stroke-width="4"/>
<path d="M1126.87 246.664L1103.9 359.565" stroke="#0B0B0B" stroke-width="4"/>
<path d="M1136.13 248.534L1113.16 361.435" stroke="#0B0B0B" stroke-width="4"/>
<path d="M1145.39 250.404L1122.42 363.305" stroke="#0B0B0B" stroke-width="4"/>
<path d="M1154.65 252.273L1131.69 365.175" stroke="#0B0B0B" stroke-width="4"/>
<path d="M1163.92 254.144L1140.95 367.045" stroke="#0B0B0B" stroke-width="4"/>
<path d="M1173.18 256.014L1150.21 368.915" stroke="#0B0B0B" stroke-width="4"/>
<path d="M219.137 230.879L99.4746 256.808L123.848 368.438L243.511 342.509L219.137 230.879Z" fill="#FAFAFA" stroke="#0B0B0B" stroke-width="4"/>
<path d="M114.329 252.816L138.906 365.381" stroke="#0B0B0B" stroke-width="4"/>
<path d="M123.563 250.816L148.141 363.38" stroke="#0B0B0B" stroke-width="4"/>
<path d="M132.799 248.814L157.376 361.378" stroke="#0B0B0B" stroke-width="4"/>
<path d="M142.034 246.814L166.611 359.378" stroke="#0B0B0B" stroke-width="4"/>
<path d="M151.268 244.812L175.846 357.376" stroke="#0B0B0B" stroke-width="4"/>
<path d="M160.503 242.81L185.081 355.374" stroke="#0B0B0B" stroke-width="4"/>
<path d="M169.742 240.809L194.32 353.373" stroke="#0B0B0B" stroke-width="4"/>
<path d="M178.973 238.809L203.551 351.373" stroke="#0B0B0B" stroke-width="4"/>
<path d="M188.208 236.809L212.786 349.373" stroke="#0B0B0B" stroke-width="4"/>
<path d="M197.443 234.807L222.02 347.371" stroke="#0B0B0B" stroke-width="4"/>
<path d="M206.678 232.806L231.255 345.37" stroke="#0B0B0B" stroke-width="4"/>
<path d="M215.917 230.804L240.494 343.368" stroke="#0B0B0B" stroke-width="4"/>
<path d="M143.417 372.429L23.7544 398.358L48.1282 509.988L167.791 484.059L143.417 372.429Z" fill="#FAFAFA" stroke="#0B0B0B" stroke-width="4"/>
<path d="M38.6084 394.366L63.1861 506.931" stroke="#0B0B0B" stroke-width="4"/>
<path d="M47.8433 392.366L72.4209 504.93" stroke="#0B0B0B" stroke-width="4"/>
<path d="M57.0786 390.364L81.6563 502.928" stroke="#0B0B0B" stroke-width="4"/>
<path d="M66.3135 388.364L90.8911 500.928" stroke="#0B0B0B" stroke-width="4"/>
<path d="M75.5483 386.362L100.126 498.925" stroke="#0B0B0B" stroke-width="4"/>
<path d="M84.7832 384.36L109.361 496.924" stroke="#0B0B0B" stroke-width="4"/>
<path d="M94.0215 382.359L118.6 494.923" stroke="#0B0B0B" stroke-width="4"/>
<path d="M103.253 380.359L127.831 492.923" stroke="#0B0B0B" stroke-width="4"/>
<path d="M112.488 378.358L137.066 490.922" stroke="#0B0B0B" stroke-width="4"/>
<path d="M121.723 376.357L146.3 488.921" stroke="#0B0B0B" stroke-width="4"/>
<path d="M130.958 374.356L155.535 486.92" stroke="#0B0B0B" stroke-width="4"/>
<path d="M140.197 372.354L164.774 484.918" stroke="#0B0B0B" stroke-width="4"/>
<path d="M517.087 99.073L546.318 117.926L575.244 137.24L573.47 171.886L571.143 206.498L540.138 222.289L508.885 237.589L479.653 218.736L450.726 199.422L452.5 164.776L454.828 130.164L485.833 114.372L517.087 99.073Z" fill="#0B0B0B"/>
<path d="M510.568 219.347C538.537 220.99 562.547 199.736 564.197 171.875C565.847 144.013 544.511 120.095 516.543 118.451C488.575 116.807 464.565 138.061 462.915 165.923C461.265 193.784 482.6 217.703 510.568 219.347Z" fill="#FAFAFA"/>
<path d="M1235.02 451.085L1264.25 469.939L1293.18 489.253L1291.41 523.898L1289.08 558.511L1258.07 574.302L1226.82 589.601L1197.59 570.748L1168.67 551.434L1170.43 516.789L1172.76 482.176L1203.77 466.384L1235.02 451.085Z" fill="#0B0B0B"/>
<path d="M1228.37 568.125C1254.72 569.673 1277.33 549.653 1278.89 523.408C1280.44 497.164 1260.35 474.633 1234 473.085C1207.66 471.537 1185.04 491.557 1183.48 517.802C1181.93 544.046 1202.03 566.577 1228.37 568.125Z" fill="#FAFAFA"/>
<path d="M444.971 106.163H58.8931V226.294H444.971V106.163Z" fill="#FAFAFA" stroke="#0B0B0B" stroke-width="4"/>
<path d="M103.39 183.456H101.745V149.293H113.622C116.707 149.293 119.14 150.232 120.923 152.11C122.739 153.954 123.648 156.242 123.648 158.974C123.648 161.672 122.739 163.959 120.923 165.837C119.106 167.715 116.672 168.654 113.622 168.654H103.39V183.456ZM113.571 167.118C116.073 167.118 118.078 166.366 119.586 164.864C121.094 163.327 121.848 161.364 121.848 158.974C121.848 156.583 121.094 154.637 119.586 153.135C118.078 151.598 116.073 150.83 113.571 150.83H103.39V167.118H113.571ZM131.704 183.456H130.162V158.718H131.704V163.225C134.206 159.912 137.051 158.257 140.239 158.257V160.101C139.93 160.066 139.519 160.049 139.005 160.049C137.736 160.049 136.348 160.562 134.84 161.586C133.332 162.61 132.286 163.72 131.704 164.915V183.456ZM156.008 184.071C152.58 184.071 149.787 182.842 147.628 180.383C145.503 177.89 144.44 174.784 144.44 171.061C144.44 167.374 145.503 164.301 147.628 161.842C149.787 159.349 152.58 158.103 156.008 158.103C159.47 158.103 162.264 159.332 164.389 161.791C166.514 164.249 167.577 167.339 167.577 171.061C167.577 174.784 166.514 177.89 164.389 180.383C162.264 182.842 159.47 184.071 156.008 184.071ZM156.008 182.688C159.059 182.688 161.458 181.561 163.206 179.308C164.989 177.02 165.88 174.271 165.88 171.061C165.88 167.886 164.989 165.171 163.206 162.918C161.458 160.63 159.059 159.486 156.008 159.486C152.992 159.486 150.593 160.63 148.81 162.918C147.027 165.171 146.137 167.886 146.137 171.061C146.137 174.271 147.027 177.02 148.81 179.308C150.593 181.561 152.992 182.688 156.008 182.688ZM191.756 183.456H189.75L180.753 171.778L171.755 183.456H169.75L179.879 170.754L170.316 158.718H172.321L180.753 169.679L189.185 158.718H191.19L181.627 170.754L191.756 183.456ZM198.063 154.467C197.686 154.467 197.343 154.33 197.034 154.057C196.726 153.749 196.572 153.391 196.572 152.981C196.572 152.571 196.726 152.23 197.034 151.957C197.343 151.65 197.686 151.496 198.063 151.496C198.474 151.496 198.817 151.65 199.091 151.957C199.399 152.23 199.554 152.571 199.554 152.981C199.554 153.391 199.399 153.749 199.091 154.057C198.817 154.33 198.474 154.467 198.063 154.467ZM198.834 183.456H197.291V158.718H198.834V183.456ZM238.432 183.456H236.889V165.632C236.889 161.535 235.107 159.486 231.542 159.486C230.171 159.486 228.731 159.947 227.223 160.869C225.749 161.756 224.618 162.832 223.83 164.096V183.456H222.287V165.632C222.287 161.535 220.505 159.486 216.94 159.486C215.569 159.486 214.146 159.947 212.673 160.869C211.233 161.756 210.084 162.85 209.228 164.147V183.456H207.686V158.718H209.228V162.61C209.845 161.62 210.925 160.63 212.467 159.64C214.01 158.615 215.586 158.103 217.197 158.103C219.014 158.103 220.47 158.564 221.568 159.486C222.664 160.408 223.349 161.518 223.624 162.815C224.378 161.586 225.509 160.494 227.018 159.537C228.56 158.581 230.154 158.103 231.799 158.103C236.221 158.103 238.432 160.613 238.432 165.632V183.456ZM264.835 183.456H263.292V180.434C261.064 182.859 258.202 184.071 254.706 184.071C252.374 184.071 250.336 183.337 248.588 181.869C246.873 180.366 246.017 178.351 246.017 175.825C246.017 173.298 246.873 171.301 248.588 169.832C250.301 168.33 252.341 167.579 254.706 167.579C258.202 167.579 261.064 168.791 263.292 171.215V165.632C263.292 163.72 262.624 162.217 261.287 161.125C259.95 160.033 258.287 159.486 256.3 159.486C253.146 159.486 250.49 160.783 248.33 163.379L247.148 162.354C248.416 160.886 249.752 159.81 251.158 159.127C252.563 158.445 254.277 158.103 256.3 158.103C258.836 158.103 260.892 158.752 262.47 160.049C264.046 161.313 264.835 163.157 264.835 165.581V183.456ZM255.117 182.688C258.647 182.688 261.372 181.424 263.292 178.898V172.752C261.372 170.225 258.647 168.961 255.117 168.961C252.889 168.961 251.089 169.627 249.719 170.959C248.382 172.256 247.713 173.878 247.713 175.825C247.713 177.771 248.382 179.41 249.719 180.742C251.089 182.039 252.889 182.688 255.117 182.688ZM313.547 183.456H311.902L288.765 151.957V183.456H287.12V149.293H288.765L311.902 180.486V149.293H313.547V183.456ZM332.746 184.071C329.319 184.071 326.525 182.842 324.365 180.383C322.241 177.89 321.178 174.784 321.178 171.061C321.178 167.374 322.241 164.301 324.365 161.842C326.525 159.349 329.319 158.103 332.746 158.103C336.209 158.103 339.002 159.332 341.127 161.791C343.252 164.249 344.314 167.339 344.314 171.061C344.314 174.784 343.252 177.89 341.127 180.383C339.002 182.842 336.209 184.071 332.746 184.071ZM332.746 182.688C335.797 182.688 338.196 181.561 339.944 179.308C341.727 177.02 342.618 174.271 342.618 171.061C342.618 167.886 341.727 165.171 339.944 162.918C338.196 160.63 335.797 159.486 332.746 159.486C329.73 159.486 327.331 160.63 325.548 162.918C323.766 165.171 322.874 167.886 322.874 171.061C322.874 174.271 323.766 177.02 325.548 179.308C327.331 181.561 329.73 182.688 332.746 182.688ZM360.424 183.456H358.624L347.982 158.718H349.781L359.55 181.664L369.267 158.718H371.067L360.424 183.456ZM393.622 183.456H392.08V180.434C389.852 182.859 386.989 184.071 383.493 184.071C381.163 184.071 379.123 183.337 377.375 181.869C375.661 180.366 374.804 178.351 374.804 175.825C374.804 173.298 375.661 171.301 377.375 169.832C379.089 168.33 381.128 167.579 383.493 167.579C386.989 167.579 389.852 168.791 392.08 171.215V165.632C392.08 163.72 391.411 162.217 390.074 161.125C388.738 160.033 387.076 159.486 385.087 159.486C381.934 159.486 379.277 160.783 377.118 163.379L375.935 162.354C377.204 160.886 378.541 159.81 379.946 159.127C381.352 158.445 383.065 158.103 385.087 158.103C387.624 158.103 389.681 158.752 391.257 160.049C392.834 161.313 393.622 163.157 393.622 165.581V183.456ZM383.905 182.688C387.435 182.688 390.16 181.424 392.08 178.898V172.752C390.16 170.225 387.435 168.961 383.905 168.961C381.677 168.961 379.877 169.627 378.506 170.959C377.169 172.256 376.501 173.878 376.501 175.825C376.501 177.771 377.169 179.41 378.506 180.742C379.877 182.039 381.677 182.688 383.905 182.688Z" fill="#0B0B0B"/>
<path d="M539.97 151.654L177.474 284.011L218.973 396.804L581.47 264.447L539.97 151.654Z" fill="#FAFAFA" stroke="#0B0B0B" stroke-width="4"/>
<path d="M245.986 341.907L243.234 342.912L231.433 310.835L243.501 306.429C246.494 305.336 249.196 305.387 251.606 306.58C254.005 307.74 255.687 309.635 256.655 312.264C257.621 314.893 257.556 317.444 256.459 319.918C255.382 322.348 253.362 324.103 250.402 325.184L241.085 328.586L245.986 341.907ZM249.192 322.79C251.316 322.014 252.786 320.749 253.601 318.998C254.449 317.233 254.501 315.341 253.758 313.322C253.015 311.302 251.748 309.891 249.956 309.091C248.197 308.278 246.255 308.26 244.131 309.035L235.104 312.332L240.165 326.086L249.192 322.79ZM273.226 331.961L270.716 332.877L262.17 309.65L264.68 308.734L266.149 312.725C267.337 308.909 269.411 306.46 272.372 305.379L273.381 308.121C273.067 308.162 272.637 308.283 272.09 308.482C270.931 308.906 269.836 309.797 268.803 311.156C267.769 312.515 267.168 313.807 266.999 315.033L273.226 331.961ZM296.097 324.265C292.751 325.487 289.617 325.303 286.696 323.716C283.776 322.127 281.678 319.601 280.404 316.139C279.13 312.676 279.098 309.415 280.308 306.354C281.507 303.262 283.78 301.105 287.127 299.883C290.506 298.649 293.657 298.826 296.577 300.415C299.486 301.971 301.577 304.481 302.851 307.943C304.126 311.405 304.163 314.682 302.965 317.775C301.766 320.868 299.477 323.031 296.097 324.265ZM295.266 322.004C297.905 321.041 299.627 319.321 300.432 316.845C301.258 314.326 301.162 311.687 300.148 308.93C299.146 306.204 297.518 304.162 295.265 302.802C293.033 301.399 290.598 301.179 287.959 302.143C285.352 303.095 283.636 304.831 282.811 307.351C282.006 309.826 282.105 312.427 283.107 315.152C284.11 317.877 285.728 319.941 287.96 321.345C290.224 322.736 292.659 322.957 295.266 322.004ZM330.123 311.186L327.13 312.279L315.637 304.856L311.634 317.937L308.641 319.03L313.473 303.737L300.626 295.609L303.619 294.516L314.381 301.442L318.052 289.245L321.046 288.153L316.515 302.626L330.123 311.186ZM326.195 282.127C325.68 282.315 325.159 282.287 324.631 282.043C324.103 281.8 323.745 281.421 323.556 280.908C323.367 280.396 323.401 279.892 323.658 279.398C323.903 278.872 324.282 278.515 324.797 278.327C325.344 278.128 325.866 278.156 326.361 278.411C326.877 278.623 327.23 278.985 327.418 279.498C327.618 280.044 327.597 280.578 327.352 281.104C327.128 281.586 326.742 281.927 326.195 282.127ZM337.34 308.551L334.83 309.467L326.284 286.24L328.794 285.324L337.34 308.551ZM375.423 294.647L372.912 295.563L366.932 279.308C365.634 275.781 363.425 274.588 360.303 275.728C359.081 276.174 357.966 277.018 356.962 278.257C355.99 279.485 355.366 280.767 355.092 282.104L361.568 299.705L359.009 300.639L353.029 284.384C351.731 280.858 349.522 279.665 346.4 280.804C345.21 281.239 344.134 282.087 343.174 283.347C342.202 284.574 341.546 285.868 341.207 287.228L347.665 304.781L345.155 305.698L336.609 282.47L339.118 281.554L340.41 285.064C340.648 283.923 341.326 282.639 342.444 281.212C343.593 279.774 344.925 278.779 346.437 278.227C348.143 277.604 349.664 277.522 351.001 277.979C352.338 278.436 353.397 279.232 354.178 280.365C354.462 278.952 355.168 277.549 356.299 276.154C357.416 274.727 358.748 273.733 360.292 273.168C364.54 271.617 367.531 273.198 369.265 277.911L375.423 294.647ZM400.577 285.462L398.066 286.378L397.058 283.637C395.844 286.589 393.613 288.66 390.362 289.846C388.206 290.634 386.053 290.638 383.904 289.858C381.744 289.047 380.228 287.454 379.355 285.083C378.47 282.678 378.584 280.508 379.698 278.575C380.833 276.597 382.494 275.209 384.682 274.41C387.964 273.211 391.011 273.354 393.82 274.837L392.086 270.124C391.473 268.457 390.4 267.376 388.866 266.88C387.322 266.353 385.649 266.419 383.847 267.077C380.982 268.123 378.971 270.148 377.813 273.153L375.776 271.933C377.235 268.455 379.749 266.064 383.322 264.759C385.832 263.843 388.106 263.722 390.142 264.397C392.179 265.071 393.653 266.643 394.56 269.111L400.577 285.462ZM390.505 287.557C393.563 286.441 395.522 284.525 396.385 281.81L394.51 276.713C392.046 275.175 389.301 274.959 386.276 276.063C384.378 276.757 383.033 277.866 382.243 279.391C381.486 280.904 381.414 282.494 382.027 284.161C382.641 285.829 383.728 286.995 385.287 287.662C386.867 288.285 388.607 288.251 390.505 287.557ZM446.74 268.606L444.036 269.593L413.623 249.441L423.761 276.997L421.01 278.001L409.208 245.924L412.008 244.903L442.184 264.706L432.187 237.535L434.939 236.53L446.74 268.606ZM464.728 262.693C461.381 263.915 458.247 263.732 455.326 262.144C452.406 260.555 450.308 258.03 449.034 254.567C447.76 251.105 447.728 247.844 448.939 244.783C450.137 241.691 452.41 239.533 455.757 238.312C459.136 237.078 462.287 237.255 465.207 238.843C468.116 240.399 470.207 242.909 471.482 246.371C472.756 249.834 472.793 253.111 471.595 256.204C470.396 259.296 468.107 261.46 464.728 262.693ZM463.896 260.432C466.535 259.47 468.257 257.749 469.062 255.273C469.888 252.754 469.792 250.115 468.778 247.359C467.776 244.633 466.148 242.591 463.896 241.231C461.663 239.828 459.228 239.608 456.589 240.572C453.982 241.523 452.266 243.259 451.441 245.779C450.636 248.254 450.735 250.855 451.737 253.58C452.74 256.305 454.358 258.37 456.59 259.773C458.854 261.164 461.289 261.384 463.896 260.432ZM491.37 252.311L488.522 253.35L470.128 233.719L472.928 232.696L488.891 249.888L489.824 226.527L492.672 225.487L491.37 252.311ZM522.818 240.828L520.308 241.745L519.299 239.003C518.086 241.956 515.853 244.026 512.603 245.212C510.447 246 508.295 246.004 506.146 245.224C503.986 244.413 502.469 242.822 501.597 240.449C500.711 238.044 500.826 235.875 501.94 233.941C503.074 231.963 504.735 230.575 506.923 229.776C510.206 228.577 513.252 228.72 516.061 230.203L514.328 225.49C513.714 223.823 512.641 222.742 511.108 222.247C509.563 221.72 507.89 221.786 506.087 222.444C503.223 223.49 501.212 225.514 500.054 228.519L498.017 227.299C499.476 223.821 501.991 221.43 505.564 220.126C508.074 219.209 510.347 219.088 512.384 219.763C514.421 220.437 515.894 222.009 516.802 224.478L522.818 240.828ZM512.747 242.923C515.804 241.807 517.764 239.891 518.627 237.176L516.752 232.079C514.288 230.541 511.543 230.325 508.518 231.43C506.619 232.123 505.275 233.232 504.485 234.757C503.728 236.27 503.656 237.86 504.269 239.528C504.882 241.195 505.969 242.362 507.529 243.028C509.109 243.652 510.848 243.617 512.747 242.923Z" fill="#0B0B0B"/>
<path d="M943.49 154.523L572.47 48.1575L539.119 163.603L910.14 269.969L943.49 154.523Z" fill="#FAFAFA" stroke="#0B0B0B" stroke-width="4"/>
<path d="M595.829 135.861L590.048 134.204L599.532 101.374L614.009 105.524C617.336 106.477 619.67 108.213 621.012 110.729C622.387 113.256 622.652 115.979 621.808 118.899C620.974 121.787 619.296 123.953 616.774 125.397C614.295 126.819 611.392 127.052 608.065 126.099L599.369 123.606L595.829 135.861ZM608.739 120.802C610.387 121.274 611.874 121.185 613.203 120.536C614.533 119.886 615.424 118.774 615.879 117.2C616.334 115.624 616.172 114.209 615.393 112.956C614.614 111.703 613.4 110.839 611.753 110.367L603.849 108.1L600.834 118.536L608.739 120.802ZM625.148 144.266L619.96 142.779L626.828 119.005L632.016 120.493L631.007 123.988C632.27 123.071 633.703 122.433 635.304 122.075C636.905 121.717 638.447 121.751 639.93 122.175L638.451 127.294C638.018 127.063 637.489 126.859 636.863 126.68C635.776 126.368 634.511 126.36 633.071 126.658C631.671 126.932 630.59 127.403 629.826 128.073L625.148 144.266ZM647.69 151.369C644.001 150.311 641.382 148.263 639.834 145.226C638.295 142.155 638.034 138.865 639.048 135.353C640.062 131.843 642.036 129.21 644.967 127.457C647.899 125.704 651.21 125.356 654.899 126.413C658.621 127.481 661.256 129.533 662.804 132.571C664.352 135.609 664.619 138.883 663.605 142.394C662.581 145.937 660.603 148.587 657.671 150.339C654.739 152.093 651.412 152.435 647.69 151.369ZM649.012 146.791C651.154 147.405 653.051 147.132 654.706 145.972C656.404 144.788 657.574 143.081 658.219 140.85C658.854 138.651 658.764 136.618 657.948 134.749C657.175 132.858 655.718 131.605 653.577 130.992C651.469 130.387 649.566 130.677 647.869 131.859C646.213 133.02 645.069 134.699 644.433 136.897C643.789 139.129 643.854 141.191 644.627 143.082C645.442 144.951 646.904 146.187 649.012 146.791ZM684.576 161.304L678.746 159.632L675.101 149.101L666.344 156.077L660.563 154.42L672.835 144.72L667.925 130.788L673.755 132.459L677.105 142.16L685.07 135.703L690.9 137.374L679.308 146.576L684.576 161.304ZM698.464 136.398C697.608 136.152 696.94 135.624 696.461 134.811C696.016 134.008 695.92 133.164 696.176 132.278C696.432 131.392 696.963 130.727 697.769 130.283C698.608 129.848 699.456 129.754 700.312 129.999C701.202 130.254 701.869 130.783 702.314 131.586C702.76 132.389 702.856 133.233 702.599 134.12C702.343 135.005 701.812 135.67 701.006 136.114C700.201 136.559 699.353 136.653 698.464 136.398ZM693.376 163.826L688.187 162.339L695.055 138.565L700.244 140.053L693.376 163.826ZM734.544 175.629L729.356 174.142L733.835 158.637C734.66 155.782 733.771 153.981 731.169 153.235C730.082 152.924 728.938 152.934 727.737 153.264C726.535 153.595 725.531 154.107 724.725 154.799L719.919 171.436L714.731 169.948L719.21 154.444C720.035 151.589 719.13 149.784 716.494 149.029C715.44 148.726 714.313 148.741 713.111 149.072C711.943 149.412 710.934 149.94 710.085 150.656L705.294 167.243L700.105 165.756L706.973 141.982L712.162 143.469L711.223 146.718C712.072 146.002 713.339 145.442 715.026 145.037C716.754 144.608 718.443 144.631 720.09 145.103C723.548 146.095 725.3 148.178 725.346 151.353C726.445 150.389 727.859 149.693 729.588 149.264C731.325 148.804 733.035 148.814 734.715 149.295C739.294 150.608 740.89 153.66 739.507 158.45L734.544 175.629ZM761.028 183.222L755.84 181.734L756.579 179.174C754.128 180.745 751.256 181.059 747.961 180.115C745.788 179.492 744.059 178.251 742.778 176.39C741.505 174.498 741.225 172.321 741.935 169.86C742.666 167.334 744.043 165.65 746.07 164.809C748.129 163.978 750.262 163.88 752.469 164.512C755.861 165.484 758.137 167.239 759.295 169.773L760.319 166.229C760.717 164.851 760.52 163.622 759.726 162.541C758.932 161.461 757.695 160.681 756.016 160.199C753.348 159.434 750.703 159.76 748.083 161.176L746.996 156.973C750.437 155.188 754.15 154.867 758.135 156.01C761.066 156.85 763.256 158.224 764.702 160.131C766.149 162.038 766.441 164.485 765.578 167.47L761.028 183.222ZM751.011 177.152C753.613 177.898 755.745 177.62 757.404 176.32L758.442 172.726C757.73 170.746 756.074 169.382 753.471 168.636C751.988 168.212 750.656 168.255 749.474 168.77C748.29 169.284 747.514 170.18 747.144 171.46C746.775 172.739 746.954 173.91 747.682 174.972C748.419 176 749.529 176.727 751.011 177.152ZM809.151 197.017L803.568 195.417L793.142 167.058L786.374 190.487L780.593 188.831L790.076 155.999L796.006 157.7L806.271 185.319L812.854 162.529L818.635 164.187L809.151 197.017ZM826.606 202.661C822.917 201.604 820.298 199.556 818.751 196.518C817.212 193.448 816.951 190.158 817.965 186.646C818.979 183.135 820.952 180.502 823.884 178.75C826.816 176.996 830.126 176.648 833.815 177.706C837.538 178.773 840.172 180.825 841.72 183.863C843.268 186.901 843.535 190.175 842.52 193.686C841.497 197.229 839.519 199.879 836.587 201.631C833.656 203.385 830.329 203.728 826.606 202.661ZM827.929 198.083C830.07 198.697 831.967 198.424 833.623 197.264C835.32 196.08 836.491 194.373 837.135 192.142C837.771 189.943 837.68 187.91 836.865 186.041C836.091 184.15 834.634 182.898 832.493 182.284C830.385 181.679 828.482 181.969 826.785 183.152C825.13 184.312 823.985 185.991 823.35 188.19C822.705 190.421 822.77 192.483 823.543 194.374C824.359 196.243 825.82 197.479 827.929 198.083ZM856.187 210.502L850.604 208.902L847.739 182.337L853.272 183.924L855.092 203.739L867.206 187.918L872.789 189.519L856.187 210.502ZM888.942 219.892L883.754 218.405L884.494 215.845C882.043 217.417 879.17 217.73 875.876 216.786C873.702 216.163 871.974 214.921 870.692 213.062C869.42 211.168 869.139 208.992 869.851 206.531C870.58 204.004 871.958 202.321 873.984 201.481C876.044 200.649 878.176 200.55 880.383 201.183C883.777 202.156 886.052 203.909 887.21 206.444L888.234 202.9C888.632 201.523 888.434 200.293 887.64 199.213C886.847 198.133 885.61 197.351 883.93 196.87C881.262 196.105 878.617 196.43 875.997 197.847L874.911 193.644C878.351 191.859 882.064 191.538 886.05 192.68C888.982 193.521 891.17 194.895 892.617 196.802C894.063 198.709 894.355 201.156 893.492 204.141L888.942 219.892ZM878.926 213.822C881.527 214.568 883.659 214.292 885.318 212.991L886.357 209.397C885.644 207.416 883.988 206.053 881.385 205.307C879.903 204.882 878.571 204.927 877.388 205.44C876.206 205.954 875.429 206.851 875.059 208.131C874.689 209.41 874.869 210.581 875.596 211.642C876.334 212.671 877.443 213.398 878.926 213.822Z" fill="#0B0B0B"/>
<path d="M779.446 164.413L401.55 243.177L426.246 360.762L804.142 281.998L779.446 164.413Z" fill="#FAFAFA" stroke="#0B0B0B" stroke-width="4"/>
<path d="M462.714 309.836L455.567 311.325L448.544 277.887L464.246 274.613C467.768 273.88 470.737 274.342 473.152 276.002C475.593 277.621 477.136 279.968 477.782 283.043C478.422 286.085 477.951 288.851 476.373 291.342C474.796 293.834 472.263 295.444 468.773 296.171L460.218 297.954L462.714 309.836ZM466.501 290.104C467.943 289.803 469.033 289.158 469.771 288.166C470.535 287.135 470.773 285.934 470.485 284.564C470.197 283.194 469.5 282.205 468.392 281.599C467.31 280.952 466.048 280.779 464.606 281.08L457.007 282.664L458.902 291.688L466.501 290.104ZM493.211 303.479L486.821 304.811L481.735 280.597L488.126 279.265L488.821 282.574C489.488 281.249 490.449 280.071 491.703 279.042C492.959 278.013 494.307 277.348 495.75 277.048L497.055 283.265C496.598 283.255 496.001 283.327 495.262 283.481C494.189 283.705 493.105 284.21 492.009 284.997C490.913 285.783 490.195 286.613 489.852 287.487L493.211 303.479ZM524.946 293.672C523.11 296.602 520.246 298.472 516.354 299.283C512.463 300.094 509.086 299.525 506.225 297.574C503.39 295.584 501.598 292.801 500.847 289.225C500.096 285.648 500.621 282.399 502.424 279.476C504.26 276.548 507.124 274.677 511.016 273.866C514.907 273.055 518.284 273.624 521.145 275.574C524.006 277.525 525.812 280.288 526.563 283.864C527.314 287.44 526.775 290.71 524.946 293.672ZM510.214 292.557C511.602 293.663 513.252 294.017 515.164 293.618C517.077 293.22 518.446 292.236 519.273 290.669C520.125 289.061 520.341 287.254 519.92 285.249C519.506 283.277 518.589 281.741 517.167 280.642C515.772 279.502 514.118 279.133 512.206 279.531C510.293 279.93 508.927 280.929 508.108 282.531C507.282 284.098 507.075 285.868 507.49 287.84C507.911 289.845 508.819 291.418 510.214 292.557ZM554.326 290.741L547.18 292.231L539.928 285.213L536.057 294.549L528.962 296.027L534.956 281.801L524.38 271.709L531.526 270.219L538.127 276.64L541.54 268.132L548.687 266.642L543.009 280.123L554.326 290.741ZM555.029 262.599C553.989 262.816 553.006 262.638 552.08 262.063C551.18 261.448 550.622 260.622 550.404 259.587C550.186 258.55 550.369 257.587 550.953 256.698C551.571 255.802 552.399 255.246 553.439 255.029C554.513 254.806 555.496 254.985 556.388 255.566C557.281 256.147 557.836 256.956 558.054 257.992C558.271 259.028 558.092 260.008 557.515 260.93C556.931 261.819 556.103 262.376 555.029 262.599ZM563.883 288.749L557.492 290.081L552.406 265.867L558.798 264.534L563.883 288.749ZM606.807 279.802L600.365 281.145L597.154 265.855C596.613 263.281 595.135 262.246 592.719 262.749C591.68 262.966 590.767 263.453 589.979 264.21C589.227 264.96 588.659 265.759 588.276 266.606L591.709 282.949L585.268 284.292L582.056 269.002C581.516 266.428 580.038 265.393 577.622 265.896C576.615 266.106 575.719 266.59 574.933 267.347C574.146 268.103 573.565 268.923 573.189 269.803L576.612 286.096L570.22 287.428L565.135 263.214L571.526 261.882L572.189 265.04C572.611 264.046 573.492 262.99 574.834 261.873C576.168 260.723 577.674 259.972 579.351 259.623C582.874 258.888 585.431 259.89 587.021 262.629C587.54 261.265 588.463 259.991 589.791 258.807C591.152 257.617 592.704 256.84 594.449 256.476C596.73 256.001 598.621 256.252 600.122 257.23C601.616 258.174 602.62 259.866 603.132 262.306L606.807 279.802ZM634.061 274.122L627.669 275.454L627.143 272.947C625.834 275.384 623.485 276.955 620.096 277.66C617.915 278.115 615.806 277.822 613.766 276.782C611.753 275.702 610.484 273.908 609.957 271.402C609.41 268.795 609.838 266.664 611.241 265.011C612.679 263.352 614.521 262.287 616.769 261.819C620.224 261.098 622.998 261.549 625.09 263.172L624.406 259.913C624.146 258.676 623.452 257.792 622.325 257.26C621.198 256.727 619.829 256.628 618.218 256.964C615.568 257.517 613.402 258.962 611.722 261.3L608.412 257.543C610.764 254.402 614.037 252.394 618.23 251.519C621.351 250.869 624.051 251.057 626.332 252.081C628.613 253.105 630.095 255.239 630.776 258.48L634.061 274.122ZM621.757 272.814C624.139 272.318 625.703 271.259 626.448 269.639L625.816 266.631C624.482 265.444 622.623 265.099 620.241 265.595C618.932 265.868 617.913 266.43 617.181 267.28C616.441 268.097 616.192 269.073 616.43 270.21C616.662 271.312 617.281 272.091 618.286 272.543C619.291 272.997 620.449 273.087 621.757 272.814ZM683.471 263.824L676.577 265.261L655.993 246.789L660.574 268.596L653.427 270.086L646.405 236.646L653.751 235.115L673.714 252.88L669.302 231.875L676.449 230.385L683.471 263.824ZM709.93 255.117C708.094 258.046 705.23 259.916 701.338 260.728C697.447 261.539 694.07 260.969 691.209 259.019C688.375 257.028 686.582 254.244 685.831 250.668C685.08 247.092 685.605 243.843 687.408 240.921C689.244 237.991 692.108 236.121 695.999 235.31C699.892 234.499 703.268 235.069 706.129 237.019C708.99 238.969 710.796 241.732 711.547 245.309C712.298 248.885 711.759 252.154 709.93 255.117ZM695.198 254.001C696.586 255.107 698.236 255.461 700.148 255.063C702.061 254.664 703.43 253.681 704.257 252.113C705.109 250.505 705.325 248.699 704.904 246.693C704.489 244.721 703.572 243.186 702.15 242.087C700.756 240.947 699.102 240.576 697.189 240.975C695.277 241.373 693.911 242.374 693.092 243.974C692.266 245.543 692.059 247.312 692.473 249.284C692.895 251.289 693.803 252.861 695.198 254.001ZM732.022 253.704L725.127 255.141L710.279 232.962L717.122 231.536L727.002 247.059L729.804 228.892L736.699 227.455L732.022 253.704ZM765.623 246.701L759.232 248.033L758.706 245.526C757.396 247.962 755.048 249.533 751.659 250.239C749.478 250.694 747.368 250.401 745.329 249.361C743.316 248.28 742.046 246.487 741.519 243.98C740.972 241.373 741.401 239.244 742.804 237.59C744.241 235.93 746.084 234.866 748.331 234.397C751.787 233.677 754.561 234.128 756.653 235.75L755.968 232.491C755.709 231.255 755.015 230.371 753.888 229.838C752.76 229.305 751.391 229.207 749.781 229.543C747.13 230.095 744.965 231.54 743.285 233.88L739.975 230.121C742.326 226.98 745.599 224.972 749.793 224.098C752.913 223.448 755.613 223.635 757.895 224.659C760.176 225.684 761.658 227.817 762.338 231.059L765.623 246.701ZM753.32 245.393C755.702 244.896 757.265 243.837 758.011 242.217L757.379 239.209C756.044 238.023 754.186 237.677 751.804 238.174C750.495 238.446 749.475 239.008 748.743 239.858C748.004 240.675 747.754 241.652 747.993 242.788C748.225 243.891 748.844 244.669 749.848 245.123C750.854 245.575 752.012 245.666 753.32 245.393Z" fill="#0B0B0B"/>
<path d="M441.56 365.576L75.9731 241.943L37.2089 355.699L402.796 479.331L441.56 365.576Z" fill="#FAFAFA" stroke="#0B0B0B" stroke-width="4"/>
<path d="M86.4561 328.317L76.6216 324.99L94.8023 295.061L111.939 300.856C114.633 301.768 116.569 303.468 117.748 305.959C118.97 308.427 119.13 310.987 118.226 313.639C117.774 314.964 117.073 316.224 116.124 317.417C115.218 318.589 114.03 319.683 112.562 320.701C111.104 321.686 109.236 322.281 106.959 322.484C104.692 322.656 102.228 322.292 99.5671 321.391L92.1664 318.889L86.4561 328.317ZM96.9739 310.995L102.962 313.02C103.936 313.349 104.884 313.382 105.807 313.116C106.741 312.819 107.362 312.218 107.671 311.312C108.155 309.89 107.505 308.877 105.72 308.273L99.8288 306.281L96.9739 310.995ZM117.426 338.79L108.662 335.826L121.854 314.162L130.618 317.126L129.158 319.499C132.006 318.045 135.02 317.857 138.201 318.933L133.393 326.827C132.702 326.304 131.87 325.879 130.896 325.549C128.916 324.88 127.074 324.924 125.368 325.681L117.426 338.79ZM140.872 347.367C136.879 346.017 134.127 343.951 132.614 341.167C131.144 338.362 130.95 335.376 132.029 332.207C133.286 328.521 135.707 325.77 139.294 323.954C142.881 322.138 146.703 321.916 150.76 323.288C154.753 324.638 157.483 326.716 158.953 329.52C160.465 332.304 160.682 335.28 159.603 338.449C158.346 342.135 155.925 344.886 152.338 346.702C148.751 348.518 144.929 348.739 140.872 347.367ZM143.841 339.771C145.268 340.255 146.602 340.11 147.843 339.34C149.093 338.536 149.978 337.375 150.496 335.855C150.892 334.691 150.838 333.682 150.334 332.826C149.872 331.949 149.025 331.302 147.791 330.884C146.364 330.402 145.024 330.561 143.773 331.365C142.533 332.135 141.654 333.28 141.136 334.8C140.74 335.964 140.772 336.985 141.234 337.862C141.737 338.718 142.607 339.354 143.841 339.771ZM177.774 359.197L168.425 356.037L168.252 349.055L161.025 353.534L151.239 350.225L165.659 341.687L164.918 328.725L174.266 331.886L174.346 338.025L180.595 334.026L190.43 337.353L176.76 345.441L177.774 359.197ZM198.675 338.248C197.409 337.819 196.492 337.059 195.924 335.965C195.356 334.871 195.27 333.742 195.667 332.578C196.25 330.865 197.297 329.704 198.808 329.097C200.329 328.458 201.77 328.368 203.134 328.829C204.4 329.257 205.317 330.018 205.885 331.113C206.454 332.206 206.54 333.334 206.142 334.499C205.559 336.212 204.506 337.389 202.985 338.029C201.475 338.636 200.039 338.709 198.675 338.248ZM188.41 362.795L179.647 359.831L192.839 338.168L201.602 341.131L188.41 362.795ZM232.095 377.568L223.332 374.605L230.256 363.207C230.748 362.4 231.05 361.834 231.16 361.511C231.402 360.8 231.324 360.179 230.926 359.648C230.539 359.084 229.956 358.67 229.177 358.407C228.009 358.012 226.685 358.231 225.206 359.066L217.051 372.481L208.288 369.516L215.212 358.12C215.791 357.161 216.109 356.602 216.164 356.441C216.395 355.762 216.334 355.145 215.979 354.593C215.624 354.04 215.009 353.616 214.133 353.319C212.965 352.924 211.657 353.15 210.211 353.994L202.055 367.409L193.292 364.446L206.484 342.782L215.247 345.745L213.706 348.199C216.619 346.768 219.292 346.464 221.727 347.287C222.895 347.682 223.9 348.238 224.741 348.956C225.615 349.684 226.218 350.411 226.55 351.136C226.893 351.829 227.118 352.446 227.223 352.987C227.361 353.538 227.392 353.927 227.314 354.154L227.298 354.202C228.353 353.549 229.282 353.052 230.086 352.711C230.901 352.338 231.927 352.089 233.163 351.966C234.4 351.843 235.602 351.98 236.771 352.375C238.783 353.056 240.315 354.187 241.369 355.769C242.422 357.351 242.624 359.097 241.975 361.004C241.765 361.618 241.469 362.221 241.087 362.813L232.095 377.568ZM258.41 359.693C261.493 360.736 263.417 362.522 264.184 365.053L265.563 362.761L274.326 365.724L261.134 387.388L252.371 384.425L253.798 382.149C251.221 383.549 248.748 383.848 246.379 383.047C243.684 382.137 241.829 380.571 240.812 378.352C239.838 376.111 239.88 373.44 240.937 370.335C241.51 368.654 242.343 367.061 243.435 365.555C244.538 364.016 245.83 362.669 247.311 361.51C248.824 360.363 250.546 359.612 252.477 359.255C254.42 358.867 256.397 359.012 258.41 359.693ZM257.339 367.931C255.944 367.459 254.599 367.581 253.306 368.297C252.022 368.982 251.127 370.068 250.621 371.555C250.236 372.686 250.289 373.75 250.782 374.746C251.318 375.721 252.122 376.39 253.193 376.752C254.492 377.191 255.859 377.058 257.293 376.354L260.689 370.849C260.079 369.452 258.962 368.48 257.339 367.931ZM309.849 403.863L300.403 400.669L297.846 381.088L288.427 396.618L278.592 393.292L296.773 363.363L306.899 366.787L309.335 385.135L318.195 370.607L328.029 373.933L309.849 403.863ZM328.15 410.701C324.159 409.351 321.406 407.284 319.893 404.501C318.424 401.696 318.228 398.709 319.309 395.54C320.564 391.854 322.987 389.103 326.573 387.287C330.16 385.471 333.983 385.25 338.04 386.622C342.032 387.972 344.763 390.049 346.233 392.853C347.745 395.637 347.962 398.613 346.882 401.782C345.626 405.468 343.204 408.219 339.617 410.035C336.03 411.851 332.209 412.073 328.15 410.701ZM331.119 403.105C332.548 403.587 333.882 403.444 335.121 402.673C336.373 401.87 337.257 400.709 337.775 399.189C338.172 398.025 338.117 397.015 337.613 396.159C337.152 395.282 336.304 394.635 335.071 394.218C333.643 393.734 332.303 393.895 331.052 394.698C329.813 395.468 328.934 396.614 328.416 398.134C328.019 399.298 328.051 400.318 328.512 401.195C329.017 402.05 329.886 402.687 331.119 403.105ZM358.25 420.23L348.951 417.086L353.038 392.343L362.045 395.388L358.944 409.269L371.052 398.434L380.546 401.645L358.25 420.23ZM390.489 404.359C393.572 405.401 395.497 407.188 396.264 409.719L397.643 407.427L406.406 410.391L393.214 432.054L384.451 429.091L385.877 426.815C383.301 428.215 380.828 428.515 378.458 427.714C375.764 426.802 373.909 425.238 372.892 423.019C371.918 420.778 371.959 418.105 373.017 415.001C373.59 413.32 374.423 411.726 375.515 410.22C376.618 408.683 377.91 407.334 379.39 406.177C380.904 405.03 382.626 404.278 384.557 403.921C386.5 403.532 388.477 403.678 390.489 404.359ZM389.419 412.597C388.023 412.125 386.679 412.248 385.385 412.964C384.102 413.647 383.207 414.733 382.701 416.22C382.315 417.353 382.369 418.416 382.861 419.413C383.398 420.387 384.202 421.055 385.273 421.418C386.572 421.857 387.938 421.724 389.372 421.019L392.769 415.515C392.159 414.119 391.042 413.146 389.419 412.597Z" fill="#0B0B0B"/>
<path d="M814.927 368.423L428.857 365.969L428.087 486.098L814.158 488.552L814.927 368.423Z" fill="#FAFAFA" stroke="#0B0B0B" stroke-width="4"/>
<path d="M464.917 444.632L456.074 444.576L463.851 410.461L480.457 410.568C483.404 410.586 485.815 411.557 487.688 413.481C489.561 415.371 490.489 417.682 490.472 420.414C490.463 421.78 490.197 423.161 489.673 424.558C489.185 425.955 488.405 427.332 487.333 428.692C486.297 430.05 484.765 431.151 482.736 431.992C480.743 432.833 478.41 433.244 475.736 433.228L467.51 433.175L464.917 444.632ZM469.256 425.503L476.247 425.548C477.687 425.557 478.889 425.171 479.854 424.393C480.82 423.579 481.306 422.558 481.313 421.329C481.32 420.373 480.999 419.619 480.351 419.069C479.703 418.519 478.848 418.24 477.786 418.233L470.948 418.19L469.256 425.503ZM496.823 444.835L488.906 444.784L494.565 420.081L502.483 420.131L501.796 423.098C504.073 420.688 506.943 419.494 510.405 419.516L508.607 427.239C507.649 426.994 506.793 426.869 506.039 426.864C503.845 426.85 501.955 427.658 500.368 429.287L496.823 444.835ZM521.909 445.609C517.864 445.583 514.718 444.504 512.47 442.373C510.255 440.208 509.159 437.469 509.18 434.157C509.205 430.231 510.615 426.824 513.41 423.94C516.205 421.055 519.693 419.627 523.875 419.653C527.919 419.679 531.049 420.774 533.263 422.939C535.512 425.071 536.625 427.81 536.604 431.156C536.578 435.083 535.169 438.488 532.374 441.373C529.579 444.224 526.091 445.636 521.909 445.609ZM522.262 438.645C524.045 438.657 525.523 437.949 526.698 436.522C527.906 435.096 528.517 433.409 528.53 431.463C528.539 429.961 528.102 428.78 527.215 427.92C526.33 427.061 525.116 426.627 523.573 426.617C521.757 426.606 520.261 427.313 519.086 428.74C517.912 430.167 517.319 431.853 517.306 433.799C517.296 435.302 517.735 436.482 518.62 437.342C519.506 438.201 520.719 438.635 522.262 438.645ZM559.905 445.236L551.473 445.182L548.385 437.685L541.859 445.121L532.965 445.065L544.305 432.434L539.138 420.364L547.621 420.418L550.303 427.146L556.053 420.472L565 420.529L554.279 432.498L559.905 445.236ZM573.071 418.378C571.871 418.37 570.88 417.989 570.096 417.232C569.347 416.442 568.975 415.518 568.983 414.459C568.992 412.888 569.532 411.646 570.6 410.731C571.703 409.782 572.889 409.31 574.157 409.319C575.323 409.326 576.28 409.708 577.029 410.464C577.812 411.22 578.201 412.127 578.195 413.186C578.184 414.756 577.645 416.016 576.576 416.966C575.508 417.915 574.339 418.386 573.071 418.378ZM570.379 445.302L562.462 445.252L568.121 420.549L576.039 420.599L570.379 445.302ZM615.295 445.588L607.429 445.538L610.604 431.575C610.604 431.541 610.639 431.302 610.711 430.859C610.817 430.415 610.87 430.074 610.872 429.835C610.878 428.981 610.573 428.331 609.959 427.883C609.344 427.401 608.575 427.157 607.65 427.151C606.107 427.142 604.663 427.934 603.316 429.532L599.665 445.488L591.747 445.438L594.922 431.475C595.134 430.453 595.241 429.838 595.243 429.633C595.247 428.848 594.96 428.231 594.38 427.784C593.835 427.302 593.048 427.058 592.02 427.052C590.546 427.042 589.101 427.836 587.686 429.432L584.035 445.389L576.118 445.339L581.778 420.635L589.696 420.686L588.956 423.703C591.303 421.294 593.796 420.097 596.435 420.114C597.634 420.122 598.713 420.334 599.67 420.749C600.661 421.132 601.413 421.597 601.923 422.147C602.468 422.696 602.876 423.211 603.148 423.691C603.453 424.137 603.605 424.496 603.603 424.769V424.82C606.193 421.73 609.031 420.194 612.116 420.213C614.173 420.226 615.917 420.819 617.349 421.988C618.781 423.125 619.491 424.682 619.479 426.663C619.477 426.834 619.387 427.516 619.209 428.71L615.295 445.588ZM635.252 420.361C638.645 420.383 641.157 421.577 642.787 423.943L643.474 421.027L651.341 421.078L645.681 445.781L637.814 445.731L638.45 442.867C636.413 445.176 634.04 446.322 631.332 446.304C628.488 446.287 626.231 445.384 624.563 443.598C622.895 441.777 622.071 439.245 622.092 436.002C622.108 433.509 622.586 431.104 623.526 428.788C624.501 426.439 626.006 424.451 628.038 422.825C630.105 421.165 632.51 420.344 635.252 420.361ZM636.595 427.336C634.779 427.324 633.266 428.014 632.058 429.407C630.883 430.764 630.29 432.434 630.278 434.415C630.268 435.883 630.723 437.081 631.643 438.009C632.562 438.903 633.708 439.353 635.079 439.363C636.895 439.374 638.46 438.616 639.773 437.088L641.517 429.62C640.361 428.11 638.721 427.349 636.595 427.336ZM696.718 446.105L688.184 446.051L678.34 425.603L673.685 445.959L664.842 445.903L672.618 411.788L681.719 411.846L691.157 431.319L695.601 411.935L704.494 411.991L696.718 446.105ZM716.418 446.845C712.373 446.819 709.226 445.741 706.978 443.609C704.764 441.444 703.667 438.705 703.689 435.394C703.714 431.467 705.124 428.061 707.919 425.176C710.714 422.292 714.202 420.863 718.384 420.89C722.428 420.915 725.558 422.011 727.771 424.176C730.02 426.308 731.134 429.046 731.112 432.392C731.087 436.319 729.677 439.725 726.882 442.609C724.087 445.46 720.599 446.871 716.418 446.845ZM716.77 439.881C718.553 439.893 720.032 439.185 721.206 437.758C722.415 436.332 723.025 434.646 723.038 432.7C723.048 431.198 722.609 430.017 721.724 429.157C720.839 428.298 719.624 427.863 718.082 427.853C716.266 427.841 714.77 428.549 713.595 429.976C712.421 431.402 711.827 433.089 711.815 435.035C711.805 436.538 712.243 437.719 713.128 438.578C714.015 439.437 715.228 439.872 716.77 439.881ZM747.125 446.426L738.693 446.372L734.583 421.607L742.707 421.659L744.663 437.345L753.967 421.73L762.553 421.784L747.125 446.426ZM773.427 421.24C776.82 421.261 779.331 422.455 780.961 424.821L781.648 421.906L789.515 421.956L783.855 446.659L775.989 446.61L776.624 443.745C774.587 446.054 772.214 447.2 769.507 447.182C766.661 447.165 764.406 446.262 762.737 444.476C761.069 442.656 760.246 440.124 760.266 436.88C760.282 434.387 760.761 431.983 761.701 429.667C762.675 427.317 764.18 425.329 766.213 423.703C768.28 422.043 770.684 421.222 773.427 421.24ZM774.77 428.214C772.954 428.202 771.44 428.893 770.232 430.285C769.058 431.644 768.465 433.312 768.452 435.293C768.442 436.761 768.897 437.959 769.817 438.887C770.736 439.781 771.882 440.232 773.253 440.241C775.07 440.252 776.634 439.494 777.946 437.966L779.691 430.498C778.535 428.989 776.895 428.227 774.77 428.214Z" fill="#0B0B0B"/>
<path d="M1196.41 402.909L810.338 400.455L809.568 520.584L1195.64 523.038L1196.41 402.909Z" fill="#FAFAFA" stroke="#0B0B0B" stroke-width="4"/>
<path d="M845.163 479.11L837.863 479.064L845.64 444.949L860.704 445.045C863.788 445.065 866.251 446.003 868.09 447.858C869.929 449.679 870.84 451.922 870.823 454.585C870.815 455.951 870.548 457.332 870.026 458.729C869.537 460.091 868.774 461.418 867.737 462.709C866.7 464.001 865.203 465.049 863.244 465.857C861.32 466.664 859.089 467.059 856.552 467.043L847.967 466.988L845.163 479.11ZM849.395 460.595L857.056 460.644C858.839 460.655 860.299 460.152 861.436 459.135C862.574 458.118 863.147 456.841 863.157 455.305C863.165 454.178 862.776 453.253 861.993 452.532C861.209 451.809 860.183 451.444 858.914 451.436L851.512 451.389L849.395 460.595ZM876.322 479.308L869.792 479.267L875.452 454.564L881.981 454.604L881.189 457.827C883.606 455.281 886.561 454.02 890.057 454.041L888.576 460.485C887.755 460.276 886.967 460.168 886.213 460.163C883.849 460.148 881.786 461.125 880.024 463.095L876.322 479.308ZM901.529 480.083C897.655 480.058 894.646 478.998 892.499 476.901C890.354 474.804 889.291 472.1 889.313 468.788C889.338 464.827 890.731 461.387 893.492 458.468C896.253 455.549 899.672 454.103 903.752 454.129C907.625 454.153 910.634 455.231 912.78 457.362C914.96 459.458 916.04 462.163 916.018 465.475C915.993 469.436 914.6 472.876 911.839 475.795C909.078 478.679 905.642 480.109 901.529 480.083ZM901.822 474.297C903.948 474.311 905.701 473.468 907.083 471.769C908.5 470.071 909.215 468.061 909.23 465.739C909.241 463.929 908.736 462.509 907.714 461.478C906.693 460.447 905.29 459.927 903.509 459.915C901.384 459.901 899.612 460.761 898.196 462.493C896.78 464.192 896.065 466.185 896.05 468.473C896.039 470.282 896.543 471.702 897.565 472.733C898.587 473.764 900.006 474.286 901.822 474.297ZM938.759 479.705L931.663 479.66L927.912 471.287L920.301 479.587L912.846 479.541L924.495 466.912L919.019 454.84L926.063 454.885L929.459 462.539L936.347 454.95L943.853 454.998L932.721 466.964L938.759 479.705ZM951.883 452.385C950.893 452.38 950.051 452.05 949.369 451.396C948.724 450.744 948.406 449.957 948.406 449.035C948.415 447.703 948.873 446.647 949.771 445.868C950.696 445.054 951.715 444.65 952.809 444.658C953.837 444.664 954.679 444.994 955.324 445.647C956.006 446.3 956.343 447.087 956.333 448.009C956.324 449.341 955.856 450.413 954.922 451.227C953.996 452.006 952.977 452.393 951.883 452.385ZM948.518 479.767L941.993 479.725L947.649 455.023L954.183 455.064L948.518 479.767ZM992.37 480.045L985.789 480.003L989.229 465.07C989.369 464.251 989.444 463.705 989.444 463.432C989.454 462.51 989.117 461.791 988.435 461.274C987.752 460.724 986.911 460.445 985.92 460.439C984.172 460.428 982.433 461.373 980.704 463.274L976.946 479.948L970.365 479.906L973.805 464.971C973.982 464.119 974.076 463.522 974.076 463.18C974.048 462.361 973.711 461.693 973.057 461.176C972.449 460.626 971.571 460.348 970.439 460.34C968.766 460.33 967.065 461.275 965.335 463.176L961.521 479.85L954.996 479.808L960.652 455.105L967.186 455.146L966.448 458.369C968.86 455.823 971.384 454.559 974.029 454.576C975.16 454.582 976.189 454.777 977.105 455.159C978.068 455.539 978.787 455.988 979.264 456.503C979.769 457.019 980.162 457.517 980.433 457.996C980.704 458.442 980.835 458.802 980.835 459.075V459.177C983.321 456.154 986.191 454.653 989.454 454.673C991.435 454.686 993.118 455.26 994.483 456.395C995.848 457.531 996.521 459.072 996.502 461.018C996.502 461.701 996.409 462.383 996.24 463.065L992.37 480.045ZM1012.93 454.822C1014.57 454.833 1016.1 455.184 1017.5 455.876C1018.89 456.568 1020 457.531 1020.82 458.765L1021.51 455.492L1028.09 455.534L1022.42 480.237L1015.84 480.195L1016.59 477.127C1014.48 479.571 1011.99 480.785 1009.11 480.767C1006.23 480.748 1003.94 479.829 1002.23 478.009C1000.53 476.188 999.69 473.673 999.718 470.463C999.727 467.868 1000.22 465.413 1001.2 463.097C1002.21 460.747 1003.73 458.777 1005.77 457.184C1007.83 455.593 1010.22 454.806 1012.93 454.822ZM1013.92 460.617C1011.82 460.604 1010.08 461.445 1008.65 463.144C1007.27 464.843 1006.58 466.853 1006.56 469.175C1006.55 470.916 1007.06 472.32 1008.08 473.384C1009.09 474.449 1010.41 474.987 1012.02 474.997C1014.28 475.012 1016.2 474.051 1017.75 472.114L1019.7 463.522C1018.45 461.602 1016.53 460.633 1013.92 460.617ZM1072.9 480.557L1065.87 480.513L1054.81 457.394L1049.52 480.409L1042.21 480.363L1049.99 446.248L1057.5 446.296L1068.25 468.594L1073.38 446.397L1080.68 446.443L1072.9 480.557ZM1092.72 481.298C1088.85 481.274 1085.84 480.213 1083.69 478.117C1081.55 476.02 1080.49 473.315 1080.5 470.004C1080.53 466.042 1081.93 462.603 1084.68 459.684C1087.45 456.764 1090.87 455.318 1094.95 455.344C1098.82 455.368 1101.83 456.447 1103.98 458.577C1106.16 460.673 1107.23 463.378 1107.21 466.69C1107.18 470.651 1105.79 474.091 1103.03 477.01C1100.28 479.895 1096.84 481.324 1092.72 481.298ZM1093.02 475.512C1095.14 475.526 1096.89 474.683 1098.28 472.985C1099.7 471.286 1100.41 469.276 1100.43 466.955C1100.43 465.144 1099.93 463.724 1098.91 462.693C1097.89 461.662 1096.49 461.142 1094.7 461.13C1092.58 461.117 1090.81 461.976 1089.39 463.708C1087.97 465.407 1087.26 467.4 1087.24 469.688C1087.24 471.497 1087.74 472.918 1088.76 473.948C1089.78 474.979 1091.2 475.501 1093.02 475.512ZM1122.51 480.873L1115.47 480.829L1111.15 456.062L1117.93 456.105L1120.45 473.33L1130.95 456.188L1138.15 456.233L1122.51 480.873ZM1149.54 455.691C1151.19 455.702 1152.71 456.053 1154.11 456.745C1155.51 457.436 1156.62 458.399 1157.44 459.634L1158.12 456.36L1164.7 456.402L1159.05 481.105L1152.47 481.063L1153.2 477.995C1151.1 480.44 1148.61 481.654 1145.73 481.635C1142.85 481.616 1140.56 480.697 1138.86 478.877C1137.15 477.056 1136.31 474.541 1136.33 471.332C1136.35 468.736 1136.85 466.281 1137.82 463.965C1138.83 461.616 1140.35 459.644 1142.38 458.053C1144.45 456.461 1146.84 455.674 1149.54 455.691ZM1150.53 461.486C1148.45 461.472 1146.69 462.314 1145.28 464.013C1143.89 465.712 1143.19 467.721 1143.17 470.044C1143.17 471.784 1143.67 473.188 1144.7 474.253C1145.72 475.318 1147.04 475.856 1148.64 475.866C1150.91 475.88 1152.81 474.919 1154.36 472.983L1156.33 464.39C1155.07 462.47 1153.14 461.501 1150.53 461.486Z" fill="#0B0B0B"/>
<path d="M432.665 525.834L46.5947 523.38L45.8253 643.509L431.895 645.963L432.665 525.834Z" fill="#FAFAFA" stroke="#0B0B0B" stroke-width="4"/>
<path d="M80.3924 602.029L74.377 601.99L82.1536 567.876L95.9323 567.964C99.12 567.984 101.599 568.888 103.371 570.675C105.176 572.427 106.07 574.618 106.053 577.247C106.046 578.34 105.885 579.432 105.569 580.523C105.289 581.58 104.802 582.651 104.109 583.74C103.416 584.829 102.554 585.779 101.521 586.592C100.521 587.405 99.2144 588.08 97.6 588.616C96.0201 589.118 94.2356 589.363 92.2478 589.35L83.3018 589.293L80.3924 602.029ZM84.4667 584.025L92.6929 584.077C94.8526 584.091 96.5698 583.504 97.8458 582.317C99.1218 581.096 99.7659 579.581 99.7772 577.771C99.7856 576.508 99.3294 575.446 98.4095 574.587C97.4897 573.693 96.3268 573.242 94.9217 573.233L86.9527 573.182L84.4667 584.025ZM110.901 602.223L105.503 602.188L111.162 577.485L116.561 577.519L115.716 580.997C118.167 578.315 121.175 576.985 124.739 577.008L123.522 582.378C122.941 582.204 122.204 582.113 121.313 582.108C120.079 582.1 118.86 582.417 117.656 583.057C116.487 583.699 115.505 584.512 114.71 585.497L110.901 602.223ZM136.176 602.997C132.474 602.974 129.568 601.931 127.456 599.869C125.343 597.807 124.298 595.12 124.32 591.807C124.345 587.847 125.721 584.39 128.448 581.436C131.175 578.483 134.543 577.019 138.553 577.044C142.255 577.068 145.162 578.127 147.274 580.225C149.386 582.286 150.431 584.974 150.409 588.286C150.384 592.246 149.008 595.704 146.281 598.657C143.555 601.576 140.186 603.023 136.176 602.997ZM136.361 598.235C138.761 598.251 140.755 597.29 142.344 595.354C143.968 593.384 144.787 591.084 144.804 588.455C144.817 586.406 144.245 584.798 143.087 583.629C141.963 582.427 140.391 581.82 138.369 581.807C135.969 581.791 133.958 582.769 132.334 584.739C130.745 586.71 129.942 588.992 129.925 591.587C129.912 593.636 130.467 595.261 131.591 596.464C132.749 597.632 134.339 598.223 136.361 598.235ZM172.739 602.616L166.879 602.578L162.515 593.433L153.974 602.496L147.753 602.456L159.711 589.83L153.926 577.757L159.788 577.794L163.745 586.219L171.562 577.869L177.834 577.909L166.446 589.873L172.739 602.616ZM185.879 574.938C185.022 574.932 184.304 574.655 183.724 574.104C183.146 573.521 182.859 572.836 182.863 572.05C182.871 570.923 183.271 570.021 184.064 569.343C184.856 568.631 185.716 568.279 186.641 568.284C187.498 568.29 188.216 568.584 188.795 569.169C189.374 569.718 189.661 570.386 189.656 571.172C189.649 572.299 189.249 573.218 188.456 573.93C187.664 574.607 186.805 574.943 185.879 574.938ZM181.896 602.673L176.498 602.64L182.158 577.937L187.556 577.97L181.896 602.673ZM224.735 602.946L219.336 602.912L222.933 587.159C223.075 586.477 223.146 585.965 223.149 585.624C223.156 584.633 222.784 583.845 222.033 583.26C221.283 582.641 220.377 582.328 219.314 582.321C217.36 582.309 215.4 583.406 213.432 585.613L209.516 602.849L204.118 602.815L207.715 587.062C207.857 586.312 207.93 585.714 207.932 585.271C207.903 584.417 207.548 583.697 206.867 583.112C206.184 582.528 205.244 582.231 204.044 582.224C202.193 582.212 200.249 583.31 198.213 585.516L194.298 602.752L188.9 602.718L194.559 578.015L199.957 578.049L199.165 581.425C201.581 578.777 204.144 577.462 206.851 577.478C208.907 577.491 210.515 578.031 211.673 579.097C212.833 580.163 213.409 581.089 213.404 581.874V581.976C215.822 579.02 218.728 577.554 222.121 577.575C224.006 577.587 225.613 578.161 226.943 579.296C228.273 580.398 228.931 581.921 228.919 583.868C228.915 584.38 228.825 585.062 228.649 585.915L224.735 602.946ZM245.875 577.727C247.623 577.737 249.214 578.124 250.649 578.884C252.118 579.61 253.26 580.625 254.074 581.928L254.867 578.398L260.266 578.433L254.607 603.136L249.208 603.102L249.948 599.828C247.807 602.41 245.211 603.691 242.161 603.672C239.281 603.653 236.973 602.751 235.236 600.964C233.534 599.143 232.694 596.629 232.714 593.419C232.731 590.79 233.244 588.3 234.253 585.95C235.263 583.567 236.783 581.595 238.816 580.037C240.883 578.48 243.236 577.709 245.875 577.727ZM246.666 582.495C244.301 582.48 242.324 583.458 240.735 585.428C239.179 587.399 238.393 589.716 238.376 592.379C238.364 594.359 238.92 595.951 240.043 597.153C241.167 598.321 242.636 598.911 244.454 598.922C245.721 598.931 246.923 598.614 248.058 597.972C249.228 597.331 250.193 596.5 250.953 595.481L253.175 585.917C252.598 584.923 251.729 584.115 250.567 583.493C249.441 582.837 248.141 582.504 246.666 582.495ZM304.678 603.454L298.868 603.417L286.743 578.037L280.976 603.304L274.96 603.266L282.737 569.151L288.907 569.19L300.78 593.903L306.439 569.302L312.455 569.34L304.678 603.454ZM324.66 604.196C320.958 604.173 318.052 603.13 315.939 601.067C313.827 599.005 312.782 596.318 312.803 593.006C312.829 589.044 314.205 585.588 316.932 582.635C319.658 579.681 323.027 578.217 327.037 578.243C330.739 578.266 333.645 579.326 335.757 581.422C337.87 583.485 338.915 586.172 338.893 589.484C338.868 593.445 337.492 596.901 334.765 599.855C332.038 602.775 328.67 604.221 324.66 604.196ZM324.845 599.434C327.244 599.448 329.238 598.488 330.828 596.552C332.45 594.582 333.271 592.282 333.288 589.653C333.301 587.604 332.729 585.996 331.571 584.828C330.447 583.626 328.875 583.017 326.852 583.004C324.453 582.989 322.441 583.967 320.818 585.937C319.228 587.907 318.425 590.19 318.409 592.785C318.396 594.834 318.951 596.459 320.074 597.661C321.232 598.83 322.822 599.42 324.845 599.434ZM353.622 603.766L347.812 603.728L343.344 578.961L348.948 578.996L351.914 597.557L363.446 579.089L369.41 579.127L353.622 603.766ZM381.287 578.587C383.035 578.599 384.627 578.984 386.061 579.744C387.531 580.47 388.673 581.486 389.487 582.788L390.281 579.259L395.679 579.293L390.019 603.997L384.621 603.962L385.362 600.689C383.22 603.27 380.624 604.552 377.573 604.532C374.694 604.513 372.387 603.611 370.65 601.825C368.947 600.004 368.106 597.489 368.127 594.279C368.144 591.65 368.657 589.161 369.666 586.811C370.675 584.427 372.196 582.457 374.228 580.899C376.295 579.341 378.648 578.571 381.287 578.587ZM382.08 583.355C379.715 583.341 377.738 584.318 376.147 586.289C374.593 588.259 373.807 590.576 373.79 593.24C373.777 595.221 374.332 596.811 375.456 598.013C376.579 599.182 378.05 599.772 379.866 599.784C381.135 599.791 382.336 599.474 383.472 598.833C384.641 598.191 385.606 597.361 386.367 596.342L388.587 586.778C388.011 585.784 387.142 584.976 385.981 584.354C384.853 583.698 383.553 583.365 382.08 583.355Z" fill="#0B0B0B"/>
<path d="M482.862 443.633L99.4062 398.881L85.3745 518.197L468.83 562.949L482.862 443.633Z" fill="#FAFAFA" stroke="#0B0B0B" stroke-width="4"/>
<path d="M122.933 480.596L118.694 480.1L130.192 447.046L142.856 448.524C145.716 448.858 147.895 449.988 149.394 451.917C150.93 453.815 151.555 455.986 151.268 458.427C151.109 459.783 150.713 461.095 150.081 462.363C149.453 463.596 148.575 464.748 147.448 465.82C146.355 466.895 144.882 467.686 143.028 468.192C141.207 468.701 139.157 468.823 136.876 468.557L127.481 467.461L122.933 480.596ZM128.74 463.791L137.677 464.834C140.264 465.136 142.358 464.642 143.96 463.35C145.595 462.062 146.539 460.35 146.789 458.214C146.965 456.721 146.568 455.404 145.598 454.259C144.666 453.084 143.384 452.401 141.75 452.211L133.171 451.209L128.74 463.791ZM152.343 484.027L148.513 483.58L156.867 459.647L160.696 460.094L159.385 463.758C160.851 462.45 162.321 461.54 163.796 461.024C165.276 460.474 167.037 460.319 169.08 460.557L167.751 464.373C167.358 464.19 166.719 464.047 165.834 463.943C164.472 463.784 163.099 464.02 161.714 464.648C160.362 465.281 159.195 466.107 158.213 467.128L152.343 484.027ZM177.552 487.589C174.08 487.183 171.437 485.878 169.627 483.673C167.853 481.438 167.16 478.675 167.547 475.385C168.013 471.417 169.733 468.094 172.705 465.415C175.711 462.741 179.155 461.63 183.037 462.083C186.509 462.489 189.132 463.809 190.905 466.044C192.712 468.284 193.422 471.048 193.035 474.338C192.569 478.306 190.833 481.627 187.827 484.301C184.858 486.946 181.433 488.041 177.552 487.589ZM178.055 484.192C180.779 484.51 183.193 483.64 185.299 481.583C187.409 479.491 188.639 476.953 188.99 473.968C189.264 471.629 188.835 469.705 187.701 468.197C186.571 466.656 184.848 465.75 182.534 465.48C179.81 465.162 177.393 466.049 175.284 468.14C173.178 470.198 171.95 472.719 171.599 475.703C171.324 478.043 171.752 479.984 172.882 481.526C174.016 483.033 175.74 483.922 178.055 484.192ZM213.123 491.121L208.884 490.626L204.86 479.946L194.024 488.892L189.479 488.361L203.168 477.171L198.343 464.489L202.582 464.983L206.23 474.897L216.319 466.586L220.914 467.122L207.865 477.718L213.123 491.121ZM229.259 464.538C228.578 464.459 228.04 464.19 227.646 463.731C227.255 463.238 227.097 462.67 227.173 462.026C227.273 461.178 227.661 460.518 228.338 460.048C229.015 459.577 229.71 459.383 230.425 459.466C231.072 459.541 231.591 459.825 231.982 460.318C232.406 460.814 232.583 461.368 232.511 461.978C232.411 462.827 232.023 463.486 231.346 463.957C230.67 464.427 229.974 464.622 229.259 464.538ZM221.361 492.083L217.531 491.636L225.885 467.703L229.715 468.15L221.361 492.083ZM262.601 496.895L258.771 496.448L264.336 480.39C264.551 479.727 264.678 479.244 264.713 478.938C264.853 477.752 264.554 476.771 263.817 475.997C263.114 475.228 262.167 474.774 260.975 474.634C258.694 474.369 256.295 475.395 253.78 477.714L247.69 495.156L243.86 494.709L249.476 478.655C249.716 477.79 249.853 477.204 249.89 476.899C249.975 475.877 249.681 475.001 249.008 474.269C248.373 473.507 247.374 473.047 246.013 472.888C243.834 472.634 241.47 473.664 238.92 475.98L232.83 493.421L229 492.974L237.354 469.041L241.184 469.488L239.948 472.954C242.693 470.455 245.443 469.367 248.201 469.688C250.175 469.919 251.662 470.625 252.662 471.808C253.662 472.99 254.106 474.057 253.995 475.005L253.982 475.108C256.903 472.285 259.946 471.059 263.112 471.429C264.916 471.639 266.385 472.361 267.517 473.593C268.649 474.825 269.103 476.391 268.88 478.29C268.839 478.629 268.675 479.298 268.385 480.295L262.601 496.895ZM287.094 474.227C288.966 474.446 290.603 475.049 292.005 476.038C293.446 476.997 294.493 478.219 295.146 479.706L296.469 475.94L300.299 476.387L291.945 500.321L288.115 499.874L289.294 496.452C286.758 498.941 283.89 499.999 280.69 499.626C277.796 499.288 275.587 498.119 274.062 496.119C272.537 494.118 271.96 491.542 272.331 488.388C272.826 484.182 274.447 480.659 277.198 477.817C279.981 474.978 283.28 473.783 287.094 474.227ZM287.203 477.695C284.48 477.377 282.097 478.269 280.055 480.368C278.014 482.468 276.812 485.06 276.449 488.146C276.181 490.419 276.598 492.306 277.699 493.81C278.803 495.28 280.393 496.136 282.469 496.378C283.933 496.549 285.392 496.324 286.846 495.703C288.303 495.048 289.51 494.174 290.466 493.083L294.192 482.534C293.681 481.304 292.805 480.24 291.565 479.339C290.359 478.442 288.905 477.894 287.203 477.695ZM341.121 506.06L337.036 505.583L326.554 476.306L317.171 503.264L312.934 502.77L324.43 469.715L328.77 470.222L339.16 498.972L348.38 472.51L352.618 473.005L341.121 506.06ZM361.119 509.012C357.646 508.607 355.004 507.301 353.193 505.096C351.42 502.861 350.726 500.098 351.113 496.809C351.58 492.841 353.3 489.517 356.272 486.839C359.278 484.164 362.722 483.053 366.603 483.507C370.075 483.912 372.698 485.232 374.472 487.467C376.279 489.707 376.989 492.471 376.602 495.761C376.135 499.729 374.4 503.05 371.393 505.725C368.424 508.369 365 509.465 361.119 509.012ZM361.622 505.616C364.346 505.933 366.759 505.063 368.865 503.006C370.975 500.915 372.206 498.376 372.556 495.392C372.831 493.052 372.402 491.128 371.268 489.621C370.138 488.079 368.415 487.173 366.1 486.903C363.376 486.586 360.96 487.472 358.851 489.564C356.745 491.622 355.516 494.143 355.166 497.127C354.89 499.467 355.318 501.407 356.448 502.95C357.582 504.456 359.307 505.346 361.622 505.616ZM388.933 511.639L384.745 511.151L382.834 486.02L386.869 486.491L388.177 507.065L403.261 488.403L407.551 488.904L388.933 511.639ZM420.043 489.743C421.915 489.962 423.553 490.566 424.955 491.555C426.395 492.513 427.442 493.736 428.095 495.221L429.418 491.457L433.248 491.904L424.894 515.836L421.065 515.389L422.243 511.969C419.708 514.458 416.84 515.515 413.639 515.141C410.746 514.804 408.537 513.636 407.011 511.635C405.487 509.635 404.91 507.058 405.281 503.904C405.776 499.699 407.398 496.175 410.148 493.333C412.932 490.495 416.231 489.298 420.043 489.743ZM420.153 493.211C417.429 492.894 415.047 493.784 413.005 495.884C410.964 497.983 409.762 500.577 409.399 503.663C409.132 505.935 409.548 507.823 410.648 509.327C411.752 510.796 413.343 511.652 415.419 511.894C416.883 512.066 418.341 511.84 419.795 511.219C421.252 510.564 422.46 509.691 423.416 508.599L427.142 498.049C426.63 496.821 425.755 495.757 424.515 494.855C423.309 493.958 421.855 493.41 420.153 493.211Z" fill="#0B0B0B"/>
<path d="M835.081 432.83L468.14 552.415L505.635 666.592L872.576 547.006L835.081 432.83Z" fill="#FAFAFA" stroke="#0B0B0B" stroke-width="4"/>
<path d="M522.877 617.099L520.092 618.006L516.612 583.196L528.046 579.469C530.555 578.652 532.869 578.778 534.987 579.848C537.106 580.918 538.533 582.573 539.268 584.812C539.694 586.11 539.888 587.466 539.847 588.881C539.796 590.263 539.474 591.643 538.881 593.022C538.32 594.39 537.332 595.664 535.917 596.844C534.533 598.013 532.816 598.933 530.763 599.601L521.478 602.627L522.877 617.099ZM521.185 599.921L530.274 596.958C533.043 596.056 534.937 594.576 535.957 592.52C536.966 590.43 537.097 588.25 536.351 585.978C535.84 584.421 534.811 583.265 533.266 582.511C531.742 581.715 530.132 581.592 528.438 582.144L519.691 584.995L521.185 599.921ZM550.452 608.113L547.91 608.941L545.418 583.724L547.959 582.896L548.326 586.98C549.14 585.063 550.086 583.55 551.164 582.444C552.277 581.327 553.843 580.44 555.862 579.781L556.171 582.699C555.552 582.792 554.966 582.93 554.413 583.11C553.044 583.556 551.848 584.413 550.821 585.682C549.828 586.939 549.099 588.29 548.637 589.735L550.452 608.113ZM574.9 600.791C571.74 601.821 568.906 601.703 566.398 600.437C563.891 599.17 562.125 596.979 561.102 593.864C559.845 590.034 560.001 586.282 561.572 582.609C563.132 578.903 565.736 576.456 569.385 575.267C572.545 574.237 575.379 574.355 577.886 575.622C580.394 576.888 582.159 579.079 583.183 582.195C584.44 586.025 584.289 589.792 582.729 593.498C581.159 597.172 578.549 599.602 574.9 600.791ZM574.197 598.487C577.064 597.553 579.081 595.567 580.246 592.528C581.402 589.457 581.463 586.348 580.429 583.2C579.609 580.701 578.274 578.944 576.427 577.93C574.611 576.905 572.498 576.785 570.088 577.571C567.221 578.505 565.209 580.508 564.055 583.578C562.888 586.617 562.822 589.71 563.855 592.858C564.676 595.357 565.994 597.119 567.81 598.145C569.658 599.159 571.786 599.273 574.197 598.487ZM608.046 589.343L605.163 590.282L596.236 581.713L589.525 595.378L586.3 596.429L594.308 580.455L584.346 571.038L587.229 570.098L595.541 578.114L601.791 565.353L605.016 564.301L597.387 579.452L608.046 589.343ZM611.351 558.141C610.863 558.3 610.386 558.276 609.921 558.068C609.478 557.818 609.182 557.465 609.033 557.01C608.83 556.394 608.893 555.817 609.221 555.278C609.539 554.707 609.974 554.332 610.529 554.152C611.017 553.992 611.478 554.022 611.91 554.241C612.375 554.449 612.687 554.796 612.847 555.282C613.05 555.899 612.992 556.493 612.674 557.064C612.346 557.601 611.906 557.96 611.351 558.141ZM615.352 586.961L612.812 587.789L610.319 562.573L612.859 561.745L615.352 586.961ZM653.901 574.399L651.361 575.227L649.605 557.692C649.565 557.13 649.475 556.638 649.337 556.216C648.932 554.983 648.189 554.148 647.107 553.709C646.048 553.229 644.915 553.185 643.71 553.577C642.537 553.96 641.427 554.752 640.379 555.956C639.365 557.149 638.561 558.488 637.967 559.976L639.876 578.969L637.287 579.813L635.581 562.263C635.391 561.246 635.27 560.657 635.216 560.495C634.822 559.402 634.121 558.642 633.116 558.216C632.131 557.746 630.955 557.734 629.588 558.18C627.307 558.923 625.409 561.05 623.894 564.562L625.804 583.556L623.262 584.384L620.77 559.167L623.311 558.339L623.696 562.147C625.201 558.604 627.256 556.407 629.863 555.558C631.654 554.974 633.252 555.009 634.658 555.665C636.063 556.32 636.932 557.151 637.262 558.158L637.293 558.255C638.725 554.376 640.938 551.947 643.936 550.97C645.597 550.429 647.169 550.492 648.65 551.159C650.153 551.782 651.198 552.987 651.784 554.772C651.922 555.194 652.043 555.891 652.146 556.863L653.901 574.399ZM667.199 543.389C669.057 542.784 670.856 542.665 672.6 543.031C674.364 543.354 675.899 544.074 677.204 545.194L676.725 540.932L679.314 540.088L681.807 565.304L679.217 566.148L678.881 562.324C677.604 565.794 675.354 568.054 672.128 569.106C669.359 570.008 666.845 569.875 664.586 568.707C662.327 567.539 660.708 565.463 659.727 562.477C658.384 558.388 658.384 554.49 659.727 550.782C661.06 547.042 663.551 544.578 667.199 543.389ZM668.146 545.614C665.279 546.548 663.328 548.567 662.291 551.672C661.277 554.732 661.302 557.885 662.368 561.13C663.157 563.532 664.432 565.218 666.193 566.189C667.954 567.16 669.911 567.295 672.061 566.594C673.657 566.074 675.034 565.159 676.189 563.848C677.368 562.494 678.167 561.03 678.588 559.455L677.372 547.35C676.347 546.318 675.002 545.625 673.334 545.27C671.7 544.904 669.971 545.019 668.146 545.614ZM728.528 550.078L725.79 550.97L702.267 527.273L705.267 557.659L702.482 558.567L699.001 523.756L701.836 522.833L725.168 546.107L722.262 516.175L725.047 515.268L728.528 550.078ZM748.032 544.369C744.872 545.399 742.038 545.279 739.53 544.013C737.023 542.746 735.257 540.556 734.235 537.44C732.976 533.611 733.133 529.86 734.704 526.186C736.264 522.481 738.868 520.032 742.517 518.843C745.677 517.814 748.51 517.932 751.018 519.199C753.525 520.465 755.291 522.657 756.314 525.772C757.572 529.601 757.421 533.369 755.861 537.074C754.29 540.748 751.68 543.18 748.032 544.369ZM747.329 542.065C750.197 541.13 752.213 539.143 753.379 536.105C754.534 533.034 754.595 529.925 753.561 526.777C752.74 524.278 751.406 522.522 749.558 521.507C747.743 520.481 745.63 520.362 743.219 521.147C740.352 522.082 738.341 524.084 737.186 527.156C736.02 530.194 735.954 533.287 736.988 536.435C737.808 538.934 739.126 540.696 740.942 541.721C742.789 542.736 744.919 542.85 747.329 542.065ZM773.704 535.355L770.821 536.295L758.36 514.328L761.096 513.435L771.801 532.688L778.2 507.861L781.18 506.89L773.704 535.355ZM793.374 502.27C795.23 501.664 797.031 501.545 798.773 501.911C800.538 502.233 802.074 502.955 803.379 504.075L802.899 499.812L805.489 498.968L807.981 524.185L805.392 525.029L805.055 521.204C803.778 524.674 801.527 526.935 798.302 527.985C795.533 528.888 793.019 528.755 790.76 527.588C788.501 526.419 786.881 524.342 785.901 521.357C784.558 517.268 784.558 513.369 785.902 509.663C787.234 505.923 789.725 503.459 793.374 502.27ZM794.321 504.494C791.454 505.429 789.502 507.447 788.466 510.551C787.452 513.612 787.477 516.766 788.543 520.011C789.332 522.413 790.607 524.098 792.368 525.07C794.129 526.04 796.085 526.175 798.235 525.475C799.831 524.954 801.207 524.039 802.364 522.727C803.543 521.373 804.342 519.909 804.763 518.336L803.545 506.229C802.522 505.198 801.177 504.505 799.509 504.15C797.874 503.785 796.145 503.899 794.321 504.494Z" fill="#0B0B0B"/>
<path d="M1007.05 108.202L694.746 334.327L765.646 431.502L1077.95 205.377L1007.05 108.202Z" fill="#FAFAFA" stroke="#0B0B0B" stroke-width="4"/>
<path d="M771.841 373.225L764.687 378.405L744.525 350.77L758.416 340.713C761.41 338.544 764.412 337.722 767.421 338.245C770.409 338.74 772.861 340.3 774.775 342.923C776.67 345.52 777.403 348.325 776.973 351.336C776.524 354.322 774.802 356.898 771.807 359.067L765.07 363.945L771.841 373.225ZM766.316 353.544C767.287 352.841 767.885 352.007 768.113 351.04C768.368 350.054 768.162 349.105 767.498 348.193C766.812 347.255 765.959 346.754 764.939 346.69C763.946 346.608 762.964 346.917 761.993 347.62L756.212 351.806L760.535 357.73L766.316 353.544ZM797.651 354.537L791.246 359.175L776.646 339.164L783.05 334.526L784.834 336.971C784.922 335.64 785.337 334.263 786.079 332.84C786.82 331.417 787.773 330.284 788.937 329.441L793.411 335.572C792.831 335.824 792.264 336.15 791.71 336.551C790.822 337.194 790.039 338.035 789.358 339.077C788.685 340.071 788.346 340.971 788.34 341.777L797.651 354.537ZM816.812 341.423C813.513 343.812 810.118 344.708 806.632 344.109C803.144 343.51 800.332 341.747 798.196 338.819C796.06 335.892 795.254 332.697 795.779 329.235C796.284 325.746 798.187 322.807 801.485 320.418C804.813 318.009 808.221 317.104 811.708 317.702C815.176 318.272 817.977 320.022 820.114 322.95C822.25 325.878 823.066 329.086 822.56 332.575C822.055 336.065 820.139 339.014 816.812 341.423ZM808.501 336.74C809.942 337.089 811.342 336.773 812.7 335.788C814.06 334.805 814.794 333.577 814.906 332.102C815.024 330.582 814.57 329.117 813.543 327.708C812.535 326.327 811.296 325.472 809.827 325.142C808.366 324.765 806.956 325.069 805.597 326.052C804.239 327.036 803.513 328.279 803.422 329.78C803.339 331.234 803.801 332.651 804.809 334.032C805.836 335.44 807.067 336.343 808.501 336.74ZM848.679 317.59L841.65 322.679L833.369 319.431L833.873 328.31L826.886 333.37L826.251 318.125L812.701 313.057L819.73 307.968L827.141 310.896L826.593 302.999L833.621 297.91L834.32 312.284L848.679 317.59ZM839.842 289.037C839.673 290.257 839.074 291.238 838.049 291.981C837.022 292.724 835.888 292.997 834.642 292.801C833.425 292.585 832.444 291.966 831.699 290.944C830.953 289.921 830.675 288.815 830.864 287.622C831.061 286.382 831.672 285.391 832.698 284.648C833.724 283.905 834.845 283.642 836.062 283.858C837.288 284.027 838.272 284.622 839.018 285.644C839.764 286.666 840.038 287.797 839.842 289.037ZM857.152 311.456L850.746 316.092L836.146 296.082L842.551 291.444L857.152 311.456ZM893.485 285.147L887.122 289.755L878.235 277.574C876.925 275.779 875.382 275.523 873.608 276.808C872.167 277.852 871.434 279.374 871.41 281.375L880.842 294.302L874.437 298.94L865.55 286.759C864.24 284.963 862.698 284.708 860.924 285.992C859.593 286.956 858.874 288.469 858.767 290.53L868.198 303.456L861.794 308.094L847.193 288.082L853.599 283.446L855.382 285.889C855.405 284.817 855.794 283.522 856.551 282.004C857.307 280.485 858.406 279.204 859.849 278.16C862.815 276.011 865.581 275.824 868.146 277.597C868.078 276.169 868.416 274.657 869.16 273.064C869.912 271.422 871.022 270.069 872.491 269.006C874.405 267.62 876.261 267.057 878.06 267.316C879.839 267.547 881.454 268.658 882.905 270.646L893.485 285.147ZM916.442 268.525L910.038 273.162L908.587 271.173C908.494 272.381 908.05 273.631 907.255 274.924C906.469 276.169 905.438 277.253 904.163 278.176C902.415 279.441 900.408 280.03 898.14 279.94C895.879 279.804 893.983 278.687 892.452 276.588C890.84 274.378 890.354 272.26 890.995 270.235C891.616 268.181 892.84 266.492 894.671 265.167C897.582 263.059 900.225 262.327 902.601 262.97L900.849 260.567C900.204 259.683 899.33 259.24 898.226 259.237C897.122 259.234 895.932 259.695 894.657 260.618C892.521 262.164 891.136 264.243 890.5 266.856L885.281 264.494C886.209 260.656 888.49 257.422 892.122 254.792C893.397 253.868 894.662 253.163 895.918 252.677C897.181 252.142 898.467 251.844 899.777 251.781C901.115 251.699 902.428 252.016 903.712 252.732C905.024 253.428 906.226 254.521 907.314 256.013L916.442 268.525ZM903.771 272.065C905.49 270.82 906.33 269.473 906.289 268.025L904.99 266.243C903.611 265.806 902.076 266.2 900.385 267.424C899.47 268.086 898.858 268.846 898.551 269.702C898.224 270.53 898.331 271.318 898.875 272.063C899.419 272.809 900.148 273.168 901.06 273.14C901.953 273.085 902.856 272.727 903.771 272.065ZM957.688 238.663L950.78 243.662L927.384 236.161L939.048 252.154L931.899 257.333L911.736 229.698L919.098 224.369L941.422 231.444L930.327 216.238L937.524 211.029L957.688 238.663ZM972.486 228.704C969.186 231.092 965.793 231.988 962.306 231.39C958.819 230.791 956.006 229.028 953.874 226.1C951.733 223.172 950.929 219.977 951.453 216.516C951.958 213.026 953.865 210.087 957.165 207.698C960.493 205.289 963.895 204.383 967.382 204.982C970.85 205.553 973.655 207.303 975.786 210.231C977.927 213.158 978.74 216.367 978.235 219.856C977.731 223.345 975.814 226.295 972.486 228.704ZM964.176 224.021C965.615 224.37 967.018 224.053 968.373 223.069C969.738 222.085 970.467 220.857 970.579 219.383C970.701 217.862 970.243 216.396 969.224 214.988C968.214 213.607 966.971 212.752 965.503 212.423C964.045 212.046 962.633 212.349 961.278 213.333C959.913 214.316 959.193 215.559 959.1 217.06C959.016 218.514 959.474 219.931 960.483 221.312C961.512 222.721 962.746 223.624 964.176 224.021ZM998.455 209.139L991.641 214.079L969.14 199.789L975.87 194.91L989.659 204.306L984.985 188.316L991.762 183.407L998.455 209.139ZM1026.55 188.801L1020.14 193.438L1018.69 191.449C1018.6 192.657 1018.15 193.907 1017.37 195.199C1016.57 196.444 1015.54 197.528 1014.27 198.452C1012.52 199.717 1010.51 200.305 1008.24 200.217C1005.99 200.08 1004.09 198.962 1002.56 196.863C1000.95 194.654 1000.47 192.536 1001.1 190.51C1001.72 188.457 1002.95 186.768 1004.77 185.443C1007.69 183.335 1010.34 182.602 1012.71 183.246L1010.95 180.843C1010.31 179.959 1009.44 179.515 1008.34 179.512C1007.23 179.51 1006.04 179.971 1004.77 180.893C1002.62 182.439 1001.24 184.519 1000.61 187.132L995.389 184.769C996.315 180.932 998.596 177.697 1002.23 175.068C1003.5 174.144 1004.77 173.439 1006.03 172.953C1007.29 172.418 1008.57 172.119 1009.89 172.057C1011.23 171.975 1012.53 172.291 1013.82 173.008C1015.13 173.703 1016.33 174.797 1017.42 176.288L1026.55 188.801ZM1013.88 192.34C1015.6 191.095 1016.43 189.749 1016.39 188.301L1015.1 186.519C1013.72 186.081 1012.19 186.475 1010.5 187.7C1009.58 188.362 1008.96 189.122 1008.65 189.978C1008.33 190.806 1008.44 191.594 1008.98 192.339C1009.52 193.084 1010.25 193.444 1011.17 193.417C1012.06 193.362 1012.96 193.002 1013.88 192.34Z" fill="#0B0B0B"/>
<path d="M1256.65 109.823L885.632 3.45752L852.282 118.903L1223.3 225.269L1256.65 109.823Z" fill="#FAFAFA" stroke="#0B0B0B" stroke-width="4"/>
<path d="M907.658 90.7788L903.557 89.6032L913.04 56.7727L926.282 60.5688C929.477 61.4848 931.723 63.1588 933.017 65.5909C934.312 68.0229 934.557 70.6335 933.751 73.4227C932.945 76.2119 931.328 78.2891 928.901 79.654C926.506 81.0283 923.728 81.2623 920.566 80.3558L911.426 77.7352L907.658 90.7788ZM921.125 76.5717C923.068 77.1289 924.814 77.0079 926.365 76.2088C927.925 75.3769 928.971 74.0422 929.501 72.2045C930.032 70.367 929.855 68.6992 928.968 67.2013C928.09 65.6706 926.679 64.6267 924.736 64.0695L916.09 61.5907L912.478 74.0928L921.125 76.5717ZM936.113 98.9368L932.407 97.8743L939.273 74.1004L942.984 75.1628L941.872 79.002C944.91 76.7471 947.986 76.0635 951.08 76.9511L949.986 80.7411C949.547 80.5105 949.07 80.3196 948.546 80.1685C947.425 79.8475 946.088 79.8918 944.545 80.3017C943.003 80.7114 941.806 81.3119 940.974 82.103L936.113 98.9368ZM968.561 104.986C965.728 106.768 962.531 107.149 958.97 106.129C955.417 105.109 952.893 103.09 951.416 100.071C949.967 97.0622 949.752 93.7851 950.771 90.2416C951.8 86.6977 953.725 84.0513 956.548 82.3026C959.409 80.5303 962.625 80.1542 966.177 81.1741C969.739 82.194 972.244 84.2084 973.693 87.2177C975.179 90.2036 975.413 93.4685 974.394 97.0129C973.366 100.556 971.421 103.214 968.561 104.986ZM954.866 98.5019C955.801 100.689 957.483 102.133 959.923 102.831C962.363 103.53 964.541 103.196 966.476 101.831C968.411 100.432 969.748 98.4526 970.487 95.8935C971.225 93.3335 971.141 90.9651 970.243 88.7871C969.337 86.6091 967.663 85.1707 965.224 84.4719C962.793 83.7731 960.587 84.1183 958.614 85.5075C956.689 86.8735 955.361 88.8198 954.632 91.3465C953.884 93.9062 953.968 96.2911 954.866 98.5019ZM994.923 115.796L990.622 114.564L986.276 102.764L976.292 110.456L972.048 109.237L984.714 99.6511L979.405 85.6056L983.705 86.8379L987.706 97.7923L996.951 90.6342L1001.24 91.8665L989.258 100.955L994.923 115.796ZM1008.86 90.373C1008.21 90.1841 1007.69 89.7892 1007.34 89.1881C1006.98 88.5542 1006.91 87.8928 1007.1 87.2036C1007.3 86.5146 1007.72 85.9948 1008.36 85.6442C1008.99 85.2936 1009.65 85.2128 1010.3 85.4017C1010.99 85.5999 1011.52 86.016 1011.86 86.6499C1012.22 87.2837 1012.29 87.9452 1012.1 88.6343C1011.9 89.3234 1011.48 89.8433 1010.84 90.1938C1010.22 90.5115 1009.55 90.5713 1008.86 90.373ZM1002.9 118.081L999.185 117.019L1006.06 93.245L1009.76 94.3076L1002.9 118.081ZM1042.79 129.521L1039.09 128.458L1043.76 112.314C1044.7 109.033 1043.71 106.972 1040.78 106.132C1039.6 105.792 1038.31 105.812 1036.9 106.194C1035.51 106.576 1034.34 107.165 1033.4 107.961L1028.37 125.385L1024.66 124.323L1029.32 108.178C1030.28 104.897 1029.29 102.836 1026.35 101.995C1025.2 101.664 1023.92 101.691 1022.53 102.072C1021.17 102.463 1019.99 103.069 1019.01 103.887L1013.99 121.263L1010.28 120.2L1017.15 96.4271L1020.85 97.4887L1019.86 100.934C1020.72 100.186 1022.02 99.5803 1023.76 99.1193C1025.5 98.6584 1027.15 98.6547 1028.73 99.1082C1030.48 99.6083 1031.78 100.425 1032.63 101.556C1033.48 102.689 1033.89 103.963 1033.88 105.379C1034.94 104.406 1036.34 103.689 1038.08 103.227C1039.82 102.766 1041.51 102.772 1043.17 103.244C1047.61 104.519 1049.14 107.552 1047.76 112.343L1042.79 129.521ZM1068.82 136.98L1065.11 135.918L1065.89 133.211C1063.25 134.834 1060.29 135.177 1057.03 134.242C1054.83 133.61 1053.09 132.347 1051.82 130.454C1050.54 128.562 1050.25 126.401 1050.96 123.973C1051.68 121.48 1053.06 119.796 1055.1 118.922C1057.17 118.026 1059.33 117.899 1061.57 118.541C1064.96 119.514 1067.29 121.352 1068.54 124.055L1069.77 119.774C1070.23 118.199 1070.03 116.808 1069.17 115.601C1068.3 114.394 1066.98 113.535 1065.19 113.025C1062.4 112.222 1059.64 112.622 1056.93 114.226L1055.94 111.171C1059.24 109.273 1062.79 108.871 1066.61 109.967C1069.35 110.751 1071.38 112.044 1072.72 113.848C1074.05 115.652 1074.33 117.916 1073.54 120.639L1068.82 136.98ZM1059.13 131.966C1062.1 132.817 1064.58 132.46 1066.56 130.897L1067.86 126.418C1067.01 124.043 1065.1 122.431 1062.14 121.581C1060.42 121.09 1058.86 121.176 1057.46 121.84C1056.1 122.48 1055.2 123.571 1054.75 125.113C1054.31 126.623 1054.5 128.025 1055.3 129.322C1056.14 130.594 1057.42 131.476 1059.13 131.966ZM1116.4 150.623L1112.46 149.491L1100.8 117.795L1093.24 143.98L1089.13 142.804L1098.61 109.974L1102.82 111.178L1114.38 142.261L1121.79 116.618L1125.89 117.793L1116.4 150.623ZM1143.81 155.227C1140.97 157.01 1137.78 157.39 1134.22 156.37C1130.67 155.35 1128.14 153.331 1126.66 150.312C1125.21 147.303 1125 144.026 1126.02 140.483C1127.05 136.938 1128.97 134.293 1131.8 132.544C1134.66 130.772 1137.87 130.395 1141.43 131.415C1144.99 132.435 1147.49 134.449 1148.94 137.459C1150.43 140.444 1150.66 143.709 1149.64 147.254C1148.62 150.797 1146.67 153.455 1143.81 155.227ZM1130.11 148.743C1131.05 150.93 1132.73 152.374 1135.17 153.072C1137.61 153.772 1139.79 153.437 1141.73 152.072C1143.66 150.673 1145 148.694 1145.74 146.134C1146.47 143.574 1146.39 141.206 1145.49 139.028C1144.59 136.85 1142.91 135.412 1140.47 134.713C1138.04 134.014 1135.84 134.36 1133.86 135.748C1131.94 137.114 1130.61 139.061 1129.88 141.587C1129.13 144.147 1129.22 146.532 1130.11 148.743ZM1162.67 163.886L1158.62 162.724L1155.55 136.103L1159.55 137.25L1161.88 159.023L1175.42 141.798L1179.46 142.959L1162.67 163.886ZM1195.09 173.181L1191.38 172.119L1192.17 169.412C1189.52 171.034 1186.57 171.378 1183.31 170.443C1181.1 169.811 1179.36 168.548 1178.09 166.655C1176.82 164.762 1176.53 162.602 1177.23 160.174C1177.95 157.68 1179.33 155.996 1181.37 155.123C1183.45 154.226 1185.61 154.099 1187.84 154.741C1191.23 155.714 1193.56 157.552 1194.81 160.257L1196.05 155.974C1196.51 154.399 1196.3 153.008 1195.43 151.801C1194.57 150.594 1193.25 149.736 1191.47 149.225C1188.67 148.423 1185.91 148.823 1183.2 150.427L1182.21 147.372C1185.51 145.473 1189.06 145.073 1192.89 146.168C1195.63 146.951 1197.66 148.246 1198.99 150.048C1200.32 151.852 1200.6 154.116 1199.82 156.84L1195.09 173.181ZM1185.41 168.168C1188.37 169.017 1190.85 168.661 1192.83 167.098L1194.13 162.619C1193.28 160.244 1191.37 158.632 1188.41 157.782C1186.7 157.291 1185.14 157.376 1183.74 158.04C1182.37 158.68 1181.46 159.772 1181.03 161.314C1180.59 162.823 1180.77 164.226 1181.58 165.522C1182.42 166.794 1183.7 167.676 1185.41 168.168Z" fill="#0B0B0B"/>
<path d="M484.957 590.211L502.358 620.26L519.278 650.58L501.856 680.616L483.957 710.373L449.134 710.361L414.316 709.798L396.914 679.749L379.995 649.43L397.417 619.393L415.316 589.636L450.139 589.648L484.957 590.211Z" fill="#0B0B0B"/>
<path d="M424.374 693.759C448.104 707.67 478.662 699.783 492.626 676.143C506.591 652.503 498.674 622.062 474.943 608.151C451.213 594.24 420.655 602.127 406.691 625.767C392.726 649.407 400.643 679.848 424.374 693.759Z" fill="#FAFAFA"/>
<path d="M1257.2 551.998L872.244 522.636L863.038 642.417L1247.99 671.779L1257.2 551.998Z" fill="#FAFAFA" stroke="#0B0B0B" stroke-width="4"/>
<path d="M903.822 602.673L902.182 602.548L912.336 569.06L923.563 569.917C925.989 570.101 927.943 571.072 929.424 572.829C930.938 574.589 931.61 576.592 931.437 578.839C931.21 581.8 929.968 584.309 927.713 586.362C925.461 588.382 922.335 589.24 918.337 588.936L908.237 588.164L903.822 602.673ZM908.663 586.656L918.814 587.431C922.06 587.678 924.626 586.949 926.51 585.243C928.395 583.538 929.439 581.357 929.643 578.702C929.781 576.897 929.235 575.281 928.005 573.851C926.777 572.387 925.188 571.582 923.24 571.433L913.551 570.694L908.663 586.656ZM932.054 604.827L930.515 604.71L937.899 580.461L939.432 580.578L938.142 584.692C939.666 583.165 941.162 582.097 942.611 581.489C944.069 580.847 945.892 580.609 948.079 580.776L947.537 582.532C947.2 582.438 946.668 582.364 945.957 582.309C944.452 582.194 942.928 582.574 941.377 583.45C939.834 584.29 938.572 585.359 937.572 586.653L932.054 604.827ZM957.521 607.385C954.342 607.143 951.874 605.979 950.108 603.892C948.341 601.805 947.584 599.128 947.836 595.859C948.145 591.842 949.715 588.418 952.548 585.586C955.38 582.719 958.661 581.429 962.382 581.713C965.56 581.955 968.028 583.12 969.795 585.206C971.562 587.293 972.319 589.97 972.066 593.239C971.758 597.256 970.188 600.698 967.355 603.564C964.523 606.396 961.251 607.67 957.521 607.385ZM957.624 606.007C960.905 606.257 963.765 605.071 966.205 602.449C968.673 599.829 970.047 596.715 970.328 593.106C970.543 590.246 969.935 587.922 968.486 586.133C967.084 584.315 965.009 583.3 962.279 583.092C958.998 582.841 956.119 584.026 953.651 586.646C951.211 589.268 949.855 592.384 949.575 595.993C949.36 598.852 949.949 601.193 951.36 603.012C952.8 604.8 954.894 605.799 957.624 606.007ZM991.931 609.394L990.08 609.254L984.574 597.12L972.141 607.885L969.991 607.721L983.826 596.036L977.937 583.516L979.779 583.656L984.883 595.039L996.596 584.939L998.746 585.102L985.575 596.169L991.931 609.394ZM1007 581.469C1006.63 581.44 1006.31 581.296 1006.06 581.038C1005.8 580.744 1005.69 580.41 1005.72 580.036C1005.76 579.559 1005.95 579.181 1006.33 578.9C1006.72 578.622 1007.13 578.499 1007.53 578.531C1007.92 578.56 1008.23 578.72 1008.48 579.013C1008.74 579.273 1008.85 579.59 1008.82 579.964C1008.79 580.441 1008.56 580.818 1008.17 581.095C1007.8 581.376 1007.41 581.5 1007 581.469ZM998.989 609.932L997.447 609.815L1004.83 585.567L1006.36 585.684L998.989 609.932ZM1038.47 612.944L1036.93 612.827L1042.24 595.356C1042.42 594.821 1042.53 594.35 1042.56 593.941C1042.67 592.477 1042.28 591.3 1041.38 590.41C1040.53 589.489 1039.44 588.976 1038.1 588.875C1036.76 588.773 1035.33 589.126 1033.79 589.934C1032.25 590.74 1030.87 591.765 1029.64 593.007L1023.91 611.833L1022.37 611.716L1027.69 594.245C1027.87 593.541 1027.99 592.95 1028.02 592.473C1028.13 591.213 1027.78 590.142 1026.99 589.261C1026.19 588.378 1025.03 587.879 1023.49 587.761C1020.93 587.566 1018.12 588.944 1015.08 591.896L1009.35 610.723L1007.81 610.606L1015.2 586.358L1016.73 586.474L1015.56 590.29C1016.6 589.239 1017.86 588.308 1019.33 587.495C1020.81 586.648 1022.33 586.285 1023.9 586.405C1025.75 586.546 1027.18 587.186 1028.19 588.325C1029.2 589.464 1029.67 590.629 1029.58 591.821L1029.57 591.923C1032.52 588.758 1035.51 587.29 1038.51 587.52C1040.19 587.648 1041.57 588.284 1042.64 589.427C1043.73 590.537 1044.21 592.029 1044.06 593.901C1044.03 594.242 1043.88 594.949 1043.59 596.022L1038.47 612.944ZM1063.15 589.398C1065.23 589.558 1067.02 590.157 1068.53 591.196C1070.06 592.238 1071.22 593.558 1071.99 595.158L1073.31 590.79L1074.84 590.907L1067.46 615.155L1065.92 615.037L1067.1 611.172C1064.58 614.027 1061.52 615.318 1057.93 615.045C1055.02 614.823 1052.73 613.741 1051.07 611.799C1049.42 609.858 1048.73 607.322 1048.96 604.19C1049.3 599.832 1050.8 596.213 1053.46 593.335C1056.16 590.424 1059.39 589.112 1063.15 589.398ZM1063.04 590.778C1059.76 590.527 1056.96 591.752 1054.61 594.449C1052.31 597.15 1051.01 600.373 1050.72 604.119C1050.52 606.876 1051.08 609.111 1052.42 610.824C1053.78 612.536 1055.68 613.486 1058.13 613.673C1059.99 613.814 1061.76 613.437 1063.48 612.54C1065.24 611.647 1066.67 610.488 1067.77 609.066L1071.58 596.463C1071.01 594.981 1069.97 593.703 1068.47 592.63C1066.97 591.557 1065.16 590.94 1063.04 590.778ZM1116.07 618.863L1114.43 618.737L1100.81 585.901L1091.36 616.978L1089.72 616.853L1099.87 583.365L1101.51 583.49L1115.21 616.023L1124.58 585.25L1126.23 585.374L1116.07 618.863ZM1136.44 621.034C1133.27 620.791 1130.8 619.627 1129.03 617.54C1127.26 615.453 1126.51 612.776 1126.76 609.508C1127.07 605.49 1128.64 602.065 1131.47 599.233C1134.3 596.367 1137.58 595.076 1141.31 595.36C1144.48 595.602 1146.96 596.767 1148.72 598.854C1150.48 600.94 1151.24 603.618 1150.99 606.886C1150.68 610.904 1149.11 614.346 1146.28 617.212C1143.45 620.044 1140.17 621.318 1136.44 621.034ZM1136.56 619.655C1139.84 619.905 1142.69 618.719 1145.13 616.096C1147.6 613.477 1148.97 610.363 1149.25 606.753C1149.47 603.893 1148.86 601.57 1147.41 599.782C1146.01 597.962 1143.93 596.948 1141.2 596.739C1137.92 596.489 1135.04 597.673 1132.57 600.293C1130.14 602.915 1128.78 606.031 1128.51 609.64C1128.28 612.5 1128.88 614.84 1130.28 616.66C1131.73 618.448 1133.82 619.446 1136.56 619.655ZM1162.81 622.428L1161.01 622.291L1157.79 597.234L1159.48 597.362L1162.33 620.593L1178.9 598.845L1180.8 598.989L1162.81 622.428ZM1194.26 599.4C1196.35 599.558 1198.14 600.158 1199.65 601.197C1201.18 602.238 1202.33 603.56 1203.11 605.16L1204.42 600.79L1205.96 600.908L1198.58 625.156L1197.04 625.039L1198.22 621.173C1195.69 624.029 1192.64 625.319 1189.05 625.046C1186.14 624.824 1183.85 623.742 1182.18 621.799C1180.54 619.86 1179.84 617.323 1180.08 614.191C1180.42 609.833 1181.91 606.214 1184.58 603.335C1187.28 600.424 1190.5 599.113 1194.26 599.4ZM1194.16 600.778C1190.88 600.529 1188.06 601.752 1185.73 604.45C1183.43 607.152 1182.13 610.375 1181.84 614.119C1181.63 616.877 1182.19 619.112 1183.54 620.824C1184.89 622.537 1186.79 623.487 1189.25 623.674C1191.1 623.815 1192.88 623.437 1194.6 622.541C1196.36 621.647 1197.79 620.489 1198.89 619.067L1202.69 606.464C1202.12 604.982 1201.09 603.704 1199.58 602.63C1198.09 601.558 1196.28 600.94 1194.16 600.778Z" fill="#0B0B0B"/>
<path d="M1234.93 312.853L851.759 265.728L836.983 384.954L1220.15 432.079L1234.93 312.853Z" fill="#FAFAFA" stroke="#0B0B0B" stroke-width="4"/>
<path d="M879.978 347.765L869.671 346.498L873.873 312.592L892.038 314.826C895.883 315.299 898.738 316.785 900.604 319.286C902.508 321.756 903.254 324.651 902.843 327.973C902.435 331.26 901.004 333.889 898.55 335.857C896.134 337.796 893.004 338.529 889.16 338.057L881.301 337.09L879.978 347.765ZM888.941 328.946C889.86 329.06 890.636 328.931 891.269 328.562C891.905 328.159 892.277 327.534 892.382 326.686C892.491 325.805 892.284 325.109 891.761 324.597C891.241 324.052 890.522 323.722 889.603 323.609L883.071 322.806L882.411 328.144L888.941 328.946ZM912.438 351.757L903.252 350.628L906.295 326.075L915.48 327.205L915.146 329.899C916.042 329.08 917.246 328.419 918.759 327.917C920.306 327.42 921.76 327.254 923.121 327.422L922.037 336.165C921.547 335.933 920.86 335.762 919.976 335.654C917.288 335.324 915.397 335.676 914.302 336.71L912.438 351.757ZM945.769 352.657C942.946 354.856 939.422 355.696 935.206 355.176C930.986 354.657 927.773 352.989 925.567 350.172C923.395 347.359 922.531 344.157 922.976 340.564C923.421 336.972 925.039 334.092 927.828 331.924C930.656 329.725 934.18 328.885 938.394 329.405C942.619 329.923 945.826 331.591 948.032 334.408C950.247 337.192 951.126 340.379 950.687 343.972C950.238 347.564 948.602 350.459 945.769 352.657ZM936.206 347.094C937.599 347.266 938.74 346.959 939.637 346.174C940.534 345.355 941.067 344.234 941.245 342.811C941.413 341.421 941.161 340.238 940.488 339.261C939.824 338.25 938.796 337.658 937.393 337.487C936.038 337.319 934.907 337.645 934.011 338.464C933.12 339.249 932.588 340.336 932.416 341.725C932.24 343.149 932.486 344.366 933.155 345.377C933.828 346.354 934.841 346.927 936.206 347.094ZM975.683 359.536L965.634 358.299L962.615 351.322L957.875 357.346L947.873 356.116L957.501 344.501L951.434 331.627L961.484 332.862L964.092 339.014L968.111 333.678L978.17 334.915L969.14 345.931L975.683 359.536ZM989.313 332.982C988.201 333.844 986.939 334.187 985.508 334.011C984.078 333.835 982.91 333.193 982.012 332.085C981.152 330.947 980.816 329.666 980.993 328.243C981.161 326.819 981.806 325.678 982.919 324.816C984.059 323.925 985.349 323.567 986.78 323.743C988.21 323.919 989.35 324.575 990.21 325.713C991.108 326.821 991.472 328.088 991.295 329.511C991.117 330.934 990.463 332.091 989.313 332.982ZM986.836 360.907L977.647 359.777L980.694 335.225L989.874 336.354L986.836 360.907ZM1032.62 366.538L1023.43 365.409L1025.21 351.074C1025.31 350.261 1025.15 349.57 1024.74 349.004C1024.37 348.44 1023.7 348.1 1022.74 347.984C1021.35 347.812 1020.01 348.301 1018.73 349.451L1016.85 364.599L1007.67 363.47L1009.45 349.135C1009.67 347.304 1008.85 346.274 1006.98 346.044C1005.62 345.877 1004.3 346.368 1003.02 347.518L1001.14 362.666L991.949 361.536L994.997 336.984L1004.18 338.114L1003.83 340.909C1004.58 340.175 1005.75 339.545 1007.34 339.018C1008.93 338.456 1010.62 338.286 1012.42 338.508C1016.1 338.96 1018.28 340.691 1018.97 343.701C1019.91 342.612 1021.19 341.737 1022.83 341.078C1024.5 340.423 1026.27 340.211 1028.14 340.441C1030.48 340.73 1032.26 341.568 1033.47 342.955C1034.68 344.343 1035.13 346.273 1034.83 348.747L1032.62 366.538ZM1061.17 370.049L1051.98 368.919L1052.27 366.581C1051.49 367.379 1050.36 367.963 1048.9 368.334C1047.47 368.708 1045.99 368.802 1044.46 368.613C1042.35 368.354 1040.49 367.421 1038.9 365.814C1037.31 364.173 1036.67 362.064 1036.99 359.49C1037.22 357.592 1037.88 356.089 1038.94 354.982C1040.05 353.845 1041.23 353.147 1042.47 352.887C1043.72 352.593 1045.04 352.531 1046.43 352.703C1049.96 353.137 1052.34 354.342 1053.54 356.313L1053.86 353.772C1053.97 352.891 1053.66 352.111 1052.91 351.435C1052.2 350.763 1051.11 350.336 1049.65 350.157C1047.2 349.856 1044.82 350.372 1042.51 351.705L1040.1 345.68C1043.5 343.587 1047.53 342.827 1052.2 343.399C1053.82 343.601 1055.3 343.954 1056.62 344.46C1057.95 344.932 1059.15 345.615 1060.26 346.507C1061.36 347.365 1062.14 348.545 1062.61 350.049C1063.12 351.521 1063.25 353.241 1063 355.206L1061.17 370.049ZM1049.02 363.136C1050.82 363.358 1052.09 363.066 1052.81 362.261L1052.98 360.888C1052.48 359.932 1051.32 359.342 1049.52 359.121C1047.37 358.857 1046.22 359.403 1046.06 360.759C1045.89 362.08 1046.88 362.873 1049.02 363.136ZM1112.22 376.328L1102.32 375.11L1091.9 356.386L1089.77 373.566L1079.46 372.299L1083.66 338.394L1094.27 339.699L1104.13 357.218L1106.12 341.155L1116.42 342.423L1112.22 376.328ZM1140.16 376.565C1137.34 378.764 1133.82 379.604 1129.6 379.084C1125.38 378.565 1122.17 376.897 1119.96 374.08C1117.78 371.267 1116.92 368.064 1117.36 364.472C1117.81 360.88 1119.43 358 1122.22 355.832C1125.05 353.633 1128.57 352.793 1132.79 353.313C1137 353.831 1140.22 355.499 1142.43 358.316C1144.64 361.1 1145.52 364.287 1145.07 367.88C1144.63 371.472 1143 374.367 1140.16 376.565ZM1130.6 371.002C1131.99 371.174 1133.13 370.867 1134.03 370.082C1134.92 369.263 1135.46 368.142 1135.64 366.719C1135.81 365.329 1135.56 364.146 1134.88 363.169C1134.22 362.158 1133.18 361.566 1131.79 361.395C1130.43 361.227 1129.3 361.553 1128.4 362.372C1127.52 363.157 1126.98 364.244 1126.81 365.633C1126.63 367.057 1126.88 368.274 1127.54 369.285C1128.22 370.262 1129.24 370.835 1130.6 371.002ZM1162.95 382.567L1153.2 381.368L1146.71 355.643L1156.4 356.835L1159.36 371.442L1165.84 357.996L1175.54 359.189L1162.95 382.567ZM1197.71 386.842L1188.52 385.713L1188.81 383.374C1188.03 384.171 1186.9 384.755 1185.44 385.126C1184.01 385.501 1182.53 385.594 1181 385.406C1178.88 385.146 1177.03 384.213 1175.43 382.606C1173.85 380.965 1173.21 378.858 1173.53 376.282C1173.76 374.384 1174.42 372.882 1175.48 371.775C1176.59 370.638 1177.77 369.939 1179.01 369.679C1180.26 369.385 1181.58 369.324 1182.97 369.495C1186.5 369.931 1188.88 371.134 1190.08 373.105L1190.4 370.564C1190.51 369.683 1190.2 368.904 1189.45 368.227C1188.74 367.555 1187.64 367.13 1186.18 366.949C1183.74 366.648 1181.36 367.164 1179.05 368.498L1176.64 362.472C1180.04 360.379 1184.07 359.619 1188.73 360.193C1190.36 360.393 1191.84 360.747 1193.16 361.253C1194.49 361.725 1195.69 362.407 1196.79 363.299C1197.9 364.158 1198.68 365.338 1199.15 366.841C1199.66 368.314 1199.79 370.033 1199.54 371.999L1197.71 386.842ZM1185.56 379.93C1187.36 380.151 1188.62 379.859 1189.34 379.053L1189.51 377.681C1189.02 376.724 1187.86 376.136 1186.05 375.913C1183.91 375.65 1182.76 376.196 1182.6 377.551C1182.43 378.873 1183.42 379.666 1185.56 379.93Z" fill="#0B0B0B"/>
</svg>
