<svg width="506" height="641" viewBox="0 0 506 641" fill="none" xmlns="http://www.w3.org/2000/svg">
<circle cx="252.572" cy="252.969" r="217.5" transform="rotate(-10.1977 252.572 252.969)" fill="#0B0B0B"/>
<path d="M155.058 290.781L201.989 282.338" stroke="#525252" stroke-width="2" stroke-linecap="round" stroke-dasharray="4 4"/>
<path d="M155.918 295.569L202.85 287.127" stroke="#525252" stroke-width="2" stroke-linecap="round" stroke-dasharray="4 4"/>
<path d="M156.78 300.358L203.712 291.916" stroke="#525252" stroke-width="2" stroke-linecap="round" stroke-dasharray="4 4"/>
<path d="M157.469 304.189L204.401 295.747" stroke="#525252" stroke-width="2" stroke-linecap="round" stroke-dasharray="4 4"/>
<path d="M223.535 127.28L229.503 146.533L226.591 126.367L232.622 145.972L230.057 125.744L236.089 145.348L233.87 125.058L239.901 144.662L237.683 124.372L243.367 144.039L241.495 123.686L246.897 143.767L244.961 123.063L250.993 142.667L248.774 122.377L253.32 135.715L268.224 133.034L270.122 143.582L273.934 142.896L274.44 145.708L278.6 144.96L275.374 127.029L276.73 128.6L277.482 120.843L280.196 127.977L281.266 125.969L284.927 134.385L284.353 123.236L286.245 125.8L286.306 122.159L287.191 127.081L287.437 116.511L291.444 124.864L291.538 123.396L295.452 133.218L295.73 124.819L296.487 125.046L296.011 120.413L297.397 120.164L296.889 113.359L299.29 122.727L300.676 122.478L301.245 125.642L306.227 129.464L307.555 136.848L312.408 135.975L314.3 138.538L311.768 120.482L313.754 121.577L313.845 116.116L315.074 116.984L315.418 112.929L317.154 116.61L318.067 115.72L324.377 126.925L324.936 114.121L326.672 117.801L326.763 112.34L328.878 118.13L329.123 107.56L331.871 116.866L332.751 113.804L335.279 123.875L333.913 106.336L342.084 121.925L344.012 130.653L349.211 129.717L349.654 132.179L353.12 131.555L350.587 113.499L352.417 115.711L355.088 104.704L357.077 109.791L358.147 107.784L363.197 119.942L362.967 104.739L365.395 108.295L367.66 100.991L373.878 117.658L373.899 99.8687L377.942 114.386L379.201 113.433L381.289 125.036L389.954 123.477L387.234 108.359" stroke="#525252" stroke-width="2"/>
<circle cx="133.136" cy="190.903" r="1.94631" transform="rotate(-10.1977 133.136 190.903)" fill="#525252"/>
<circle cx="133.136" cy="190.903" r="9.7047" transform="rotate(-10.1977 133.136 190.903)" stroke="#525252" stroke-width="2"/>
<circle cx="132.571" cy="190.51" r="51.0638" transform="rotate(-10.1977 132.571 190.51)" stroke="#525252" stroke-width="2"/>
<circle cx="132.571" cy="190.51" r="55.9564" transform="rotate(-10.1977 132.571 190.51)" stroke="#525252" stroke-width="2" stroke-linecap="round" stroke-dasharray="8 8"/>
<rect x="174.047" y="159.84" width="8.7047" height="30.1141" transform="rotate(-10.1977 174.047 159.84)" stroke="#525252" stroke-width="2"/>
<path d="M117.425 400.383L377.941 353.519" stroke="#525252" stroke-width="2"/>
<path d="M151.419 420.553L243.621 356.777" stroke="#525252" stroke-width="2"/>
<path d="M125.789 325.779L252.629 424.012" stroke="#525252" stroke-width="2"/>
<path d="M214.062 343.505L196.505 408.867" stroke="#525252" stroke-width="2"/>
<circle cx="225.502" cy="369.076" r="1.94631" transform="rotate(-10.1977 225.502 369.076)" fill="#525252"/>
<ellipse cx="242.628" cy="357.096" rx="1.45973" ry="1.94631" transform="rotate(-10.1977 242.628 357.096)" fill="#525252"/>
<circle cx="246.725" cy="377.123" r="1.94631" transform="rotate(-10.1977 246.725 377.123)" fill="#525252"/>
<circle cx="254.388" cy="375.745" r="1.94631" transform="rotate(-10.1977 254.388 375.745)" fill="#525252"/>
<circle cx="262.05" cy="374.366" r="1.94631" transform="rotate(-10.1977 262.05 374.366)" fill="#525252"/>
<circle cx="295.572" cy="368.336" r="1.94631" transform="rotate(-10.1977 295.572 368.336)" fill="#525252"/>
<ellipse cx="328.616" cy="362.392" rx="1.45973" ry="1.94631" transform="rotate(-10.1977 328.616 362.392)" fill="#525252"/>
<circle cx="212.445" cy="392.683" r="1.45973" transform="rotate(-10.1977 212.445 392.683)" fill="#525252"/>
<circle cx="216.573" cy="396.39" r="1.94631" transform="rotate(-10.1977 216.573 396.39)" fill="#525252"/>
<circle cx="232.566" cy="408.345" r="1.94631" transform="rotate(-10.1977 232.566 408.345)" fill="#525252"/>
<ellipse cx="251.471" cy="422.742" rx="1.45973" ry="1.94631" transform="rotate(-10.1977 251.471 422.742)" fill="#525252"/>
<circle cx="190.292" cy="393.207" r="1.94631" transform="rotate(-10.1977 190.292 393.207)" fill="#525252"/>
<circle cx="182.927" cy="398.982" r="1.45973" transform="rotate(-10.1977 182.927 398.982)" fill="#525252"/>
<ellipse cx="172.773" cy="405.752" rx="1.94631" ry="1.45973" transform="rotate(-10.1977 172.773 405.752)" fill="#525252"/>
<circle cx="155.736" cy="393.491" r="1.94631" transform="rotate(-10.1977 155.736 393.491)" fill="#525252"/>
<ellipse cx="181.117" cy="388.925" rx="1.45973" ry="1.94631" transform="rotate(-10.1977 181.117 388.925)" fill="#525252"/>
<rect x="302.739" y="276.107" width="59.3087" height="43.7383" transform="rotate(-10.1977 302.739 276.107)" stroke="#525252" stroke-width="2"/>
<rect x="293.263" y="223.429" width="59.3087" height="43.7383" transform="rotate(-10.1977 293.263 223.429)" stroke="#525252" stroke-width="2"/>
<path d="M293.232 223.408L301.842 267.342L296.311 222.854L304.92 266.789L299.731 222.238L308.341 266.173L303.152 221.623L311.761 265.558L305.546 221.192L315.524 264.881" stroke="#525252" stroke-width="2"/>
<path d="M349.4 288.45C350.724 295.811 345.632 302.944 337.946 304.326C330.26 305.709 323.001 300.798 321.677 293.437C320.353 286.077 325.445 278.944 333.131 277.561C340.817 276.179 348.076 281.09 349.4 288.45Z" stroke="#525252" stroke-width="2"/>
<path d="M283.143 172.817L315.911 197.434L320.009 168.365L353.725 194.264L358.138 162.959L391.159 188.982L395.572 157.678L398.511 160.055" stroke="#525252" stroke-width="2"/>
<path d="M98.9136 291.981L200.438 273.718" stroke="#525252" stroke-width="2"/>
<rect x="192.655" y="263.28" width="4.81208" height="11.6242" transform="rotate(-10.1977 192.655 263.28)" stroke="#525252" stroke-width="2"/>
<rect x="32" y="202.413" width="441" height="436" fill="#FAFAFA" stroke="#0B0B0B" stroke-width="4"/>
<path d="M93.3 303.413H86.15V289.413H70.4V303.413H63.3V270.063H70.4V283.163H86.15V270.063H93.3V303.413ZM123.472 303.413H99.8723V270.063H123.472V276.313H106.972V283.363H123.122V289.613H106.972V297.163H123.472V303.413ZM150.223 303.413H129.023V270.063H136.123V297.163H150.223V303.413ZM176.395 303.413H155.195V270.063H162.295V297.163H176.395V303.413ZM195.799 304.013C190.766 304.013 186.599 302.396 183.299 299.163C180.033 295.896 178.399 291.763 178.399 286.763C178.399 281.763 180.033 277.646 183.299 274.413C186.599 271.146 190.766 269.513 195.799 269.513C200.866 269.513 205.033 271.129 208.299 274.363C211.599 277.596 213.249 281.729 213.249 286.763C213.249 291.796 211.599 295.929 208.299 299.163C205.033 302.396 200.866 304.013 195.799 304.013ZM188.449 294.613C190.316 296.679 192.766 297.713 195.799 297.713C198.833 297.713 201.283 296.679 203.149 294.613C205.016 292.546 205.949 289.929 205.949 286.763C205.949 283.596 205.016 280.979 203.149 278.913C201.283 276.846 198.833 275.813 195.799 275.813C192.766 275.813 190.316 276.846 188.449 278.913C186.616 280.979 185.699 283.596 185.699 286.763C185.699 289.929 186.616 292.546 188.449 294.613Z" fill="#0B0B0B"/>
<path d="M273.662 302.413H266.512V288.413H250.762V302.413H243.662V269.063H250.762V282.163H266.512V269.063H273.662V302.413ZM311.335 302.413H303.235L301.185 296.763H286.885L284.785 302.413H276.685L289.585 269.063H298.485L311.335 302.413ZM299.235 290.513L294.035 276.163L288.835 290.513H299.235ZM335.614 302.413H314.414V269.063H321.514V296.163H335.614V302.413ZM361.786 302.413H340.586V269.063H347.686V296.163H361.786V302.413ZM397.858 302.413H389.758L387.708 296.763H373.408L371.308 302.413H363.208L376.108 269.063H385.008L397.858 302.413ZM385.758 290.513L380.558 276.163L375.358 290.513H385.758ZM384.258 266.513C383.258 267.513 382.041 268.013 380.608 268.013C379.175 268.013 377.941 267.496 376.908 266.463C375.875 265.429 375.358 264.196 375.358 262.763C375.358 261.329 375.875 260.096 376.908 259.063C377.941 257.996 379.175 257.463 380.608 257.463C382.041 257.463 383.258 257.996 384.258 259.063C385.291 260.096 385.808 261.329 385.808 262.763C385.808 264.229 385.291 265.479 384.258 266.513ZM378.958 264.413C379.425 264.879 379.975 265.113 380.608 265.113C381.241 265.113 381.775 264.879 382.208 264.413C382.675 263.946 382.908 263.396 382.908 262.763C382.908 262.096 382.675 261.546 382.208 261.113C381.775 260.646 381.241 260.413 380.608 260.413C379.975 260.413 379.425 260.646 378.958 261.113C378.491 261.579 378.258 262.129 378.258 262.763C378.258 263.396 378.491 263.946 378.958 264.413Z" fill="#0B0B0B"/>
<path d="M79.308 375.013C74.2747 375.013 70.108 373.396 66.808 370.163C63.5413 366.896 61.908 362.763 61.908 357.763C61.908 352.763 63.5413 348.646 66.808 345.413C70.108 342.146 74.2747 340.513 79.308 340.513C84.3747 340.513 88.5413 342.129 91.808 345.363C95.108 348.596 96.758 352.729 96.758 357.763C96.758 362.796 95.108 366.929 91.808 370.163C88.5413 373.396 84.3747 375.013 79.308 375.013ZM71.958 365.613C73.8247 367.679 76.2747 368.713 79.308 368.713C82.3413 368.713 84.7913 367.679 86.658 365.613C88.5247 363.546 89.458 360.929 89.458 357.763C89.458 354.596 88.5247 351.979 86.658 349.913C84.7913 347.846 82.3413 346.813 79.308 346.813C76.2747 346.813 73.8247 347.846 71.958 349.913C70.1247 351.979 69.208 354.596 69.208 357.763C69.208 360.929 70.1247 363.546 71.958 365.613ZM122.94 374.413H101.74V341.063H108.84V368.163H122.94V374.413ZM159.012 374.413H150.912L148.862 368.763H134.562L132.462 374.413H124.362L137.262 341.063H146.162L159.012 374.413ZM146.912 362.513L141.712 348.163L136.512 362.513H146.912ZM151.112 331.063L143.012 338.263H138.562L145.262 331.063H151.112Z" fill="#0B0B0B"/>
<path d="M194.738 374.413H187.638V341.063H203.238C206.738 341.063 209.472 342.096 211.438 344.163C213.438 346.196 214.438 348.746 214.438 351.813C214.438 354.846 213.438 357.396 211.438 359.463C209.438 361.529 206.705 362.563 203.238 362.563H194.738V374.413ZM202.288 356.313C203.722 356.313 204.888 355.913 205.788 355.113C206.722 354.279 207.188 353.179 207.188 351.813C207.188 350.446 206.722 349.363 205.788 348.563C204.888 347.729 203.722 347.313 202.288 347.313H194.738V356.313H202.288ZM242.44 374.413H218.84V341.063H242.44V347.313H225.94V354.363H242.09V360.613H225.94V368.163H242.44V374.413ZM230.69 384.213C229.723 384.213 228.906 383.879 228.24 383.213C227.606 382.546 227.29 381.746 227.29 380.813C227.29 379.879 227.623 379.079 228.29 378.413C228.956 377.746 229.756 377.413 230.69 377.413C231.59 377.413 232.373 377.746 233.04 378.413C233.706 379.079 234.04 379.879 234.04 380.813C234.04 381.746 233.706 382.546 233.04 383.213C232.373 383.879 231.59 384.213 230.69 384.213ZM269.19 374.413H247.99V341.063H255.09V368.163H269.19V374.413ZM297.762 374.413H274.162V341.063H297.762V347.313H281.262V354.363H297.412V360.613H281.262V368.163H297.762V374.413ZM286.012 384.213C285.045 384.213 284.229 383.879 283.562 383.213C282.929 382.546 282.612 381.746 282.612 380.813C282.612 379.879 282.945 379.079 283.612 378.413C284.279 377.746 285.079 377.413 286.012 377.413C286.912 377.413 287.695 377.746 288.362 378.413C289.029 379.079 289.362 379.879 289.362 380.813C289.362 381.746 289.029 382.546 288.362 383.213C287.695 383.879 286.912 384.213 286.012 384.213ZM331.905 375.013C326.872 375.013 322.705 373.396 319.405 370.163C316.139 366.896 314.505 362.763 314.505 357.763C314.505 352.763 316.139 348.646 319.405 345.413C322.705 342.146 326.872 340.513 331.905 340.513C336.972 340.513 341.139 342.129 344.405 345.363C347.705 348.596 349.355 352.729 349.355 357.763C349.355 362.796 347.705 366.929 344.405 370.163C341.139 373.396 336.972 375.013 331.905 375.013ZM324.555 365.613C326.422 367.679 328.872 368.713 331.905 368.713C334.939 368.713 337.389 367.679 339.255 365.613C341.122 363.546 342.055 360.929 342.055 357.763C342.055 354.596 341.122 351.979 339.255 349.913C337.389 347.846 334.939 346.813 331.905 346.813C328.872 346.813 326.422 347.846 324.555 349.913C322.722 351.979 321.805 354.596 321.805 357.763C321.805 360.929 322.722 363.546 324.555 365.613Z" fill="#0B0B0B"/>
<rect x="60" y="542.413" width="34.5175" height="79.9999" fill="#0B0B0B"/>
<rect x="94.5195" y="542.413" width="13.2759" height="11.1111" fill="#0B0B0B"/>
<rect x="107.792" y="553.524" width="13.2759" height="11.1111" fill="#0B0B0B"/>
<rect x="121.067" y="551.301" width="13.2759" height="11.1111" fill="#0B0B0B"/>
<rect x="94.5195" y="566.857" width="13.2759" height="11.1111" fill="#0B0B0B"/>
<rect x="107.792" y="571.301" width="13.2759" height="11.1111" fill="#0B0B0B"/>
<rect x="121.067" y="562.412" width="13.2759" height="11.1111" fill="#0B0B0B"/>
<rect x="134.348" y="555.747" width="13.2759" height="11.1111" fill="#0B0B0B"/>
<rect x="147.624" y="549.078" width="13.2759" height="11.1111" fill="#0B0B0B"/>
<rect x="160.896" y="542.413" width="13.2759" height="11.1111" fill="#0B0B0B"/>
<rect x="174.172" y="542.413" width="13.2759" height="11.1111" fill="#0B0B0B"/>
<rect x="187.452" y="542.413" width="13.2759" height="11.1111" fill="#0B0B0B"/>
<rect x="94.5195" y="582.414" width="13.2759" height="11.1111" fill="#0B0B0B"/>
<rect x="107.792" y="582.414" width="13.2759" height="11.1111" fill="#0B0B0B"/>
<rect x="94.5195" y="611.302" width="13.2759" height="11.1111" fill="#0B0B0B"/>
<rect x="107.792" y="611.302" width="13.2759" height="11.1111" fill="#0B0B0B"/>
<rect x="121.067" y="611.302" width="13.2759" height="11.1111" fill="#0B0B0B"/>
<rect x="134.348" y="611.302" width="13.2759" height="11.1111" fill="#0B0B0B"/>
<rect x="147.624" y="611.302" width="13.2759" height="11.1111" fill="#0B0B0B"/>
<rect x="160.896" y="611.302" width="13.2759" height="11.1111" fill="#0B0B0B"/>
<rect x="174.172" y="611.302" width="13.2759" height="11.1111" fill="#0B0B0B"/>
<rect x="187.452" y="611.302" width="13.2759" height="11.1111" fill="#0B0B0B"/>
<rect x="200.728" y="611.302" width="13.2759" height="11.1111" fill="#0B0B0B"/>
<rect x="214" y="611.302" width="13.2759" height="11.1111" fill="#0B0B0B"/>
<rect x="227.276" y="611.302" width="13.2759" height="11.1111" fill="#0B0B0B"/>
<rect x="240.552" y="611.302" width="13.2759" height="11.1111" fill="#0B0B0B"/>
<rect x="121.067" y="582.414" width="13.2759" height="11.1111" fill="#0B0B0B"/>
<rect x="134.348" y="571.301" width="13.2759" height="11.1111" fill="#0B0B0B"/>
<rect x="115.759" y="593.523" width="13.2759" height="11.1111" fill="#0B0B0B"/>
<rect x="115.759" y="604.635" width="13.2759" height="11.1111" fill="#0B0B0B"/>
<rect x="129.035" y="597.968" width="13.2759" height="11.1111" fill="#0B0B0B"/>
<rect x="142.311" y="597.968" width="13.2759" height="11.1111" fill="#0B0B0B"/>
<rect x="155.591" y="597.968" width="13.2759" height="11.1111" fill="#0B0B0B"/>
<rect x="134.348" y="586.857" width="13.2759" height="11.1111" fill="#0B0B0B"/>
<rect x="147.624" y="586.857" width="13.2759" height="11.1111" fill="#0B0B0B"/>
<rect x="160.896" y="577.968" width="13.2759" height="11.1111" fill="#0B0B0B"/>
<rect x="174.172" y="569.079" width="13.2759" height="11.1111" fill="#0B0B0B"/>
<rect x="187.452" y="553.524" width="13.2759" height="11.1111" fill="#0B0B0B"/>
<rect x="200.728" y="553.524" width="13.2759" height="11.1111" fill="#0B0B0B"/>
<rect x="187.452" y="569.079" width="13.2759" height="11.1111" fill="#0B0B0B"/>
<rect x="200.728" y="569.079" width="13.2759" height="11.1111" fill="#0B0B0B"/>
<rect x="214" y="569.079" width="13.2759" height="11.1111" fill="#0B0B0B"/>
<rect x="227.276" y="569.079" width="13.2759" height="11.1111" fill="#0B0B0B"/>
<rect x="240.552" y="569.079" width="13.2759" height="11.1111" fill="#0B0B0B"/>
<rect x="190.102" y="580.19" width="13.2759" height="11.1111" fill="#0B0B0B"/>
<rect x="190.102" y="591.302" width="13.2759" height="11.1111" fill="#0B0B0B"/>
<rect x="203.378" y="584.634" width="13.2759" height="11.1111" fill="#0B0B0B"/>
<rect x="203.378" y="595.746" width="13.2759" height="11.1111" fill="#0B0B0B"/>
<rect x="203.378" y="606.857" width="13.2759" height="11.1111" fill="#0B0B0B"/>
<rect x="216.658" y="593.523" width="13.2759" height="11.1111" fill="#0B0B0B"/>
<rect x="229.935" y="582.414" width="13.2759" height="11.1111" fill="#0B0B0B"/>
<rect x="229.935" y="573.524" width="13.2759" height="11.1111" fill="#0B0B0B"/>
<rect x="229.935" y="604.635" width="13.2759" height="11.1111" fill="#0B0B0B"/>
<rect x="243.207" y="593.523" width="13.2759" height="11.1111" fill="#0B0B0B"/>
<rect x="256.483" y="582.414" width="13.2759" height="11.1111" fill="#0B0B0B"/>
<rect x="256.483" y="593.523" width="13.2759" height="11.1111" fill="#0B0B0B"/>
<rect x="256.483" y="604.635" width="13.2759" height="11.1111" fill="#0B0B0B"/>
<rect x="256.483" y="611.302" width="13.2759" height="11.1111" fill="#0B0B0B"/>
<rect x="269.763" y="611.302" width="13.2759" height="11.1111" fill="#0B0B0B"/>
<rect x="269.763" y="602.413" width="13.2759" height="11.1111" fill="#0B0B0B"/>
<rect x="283.039" y="611.302" width="13.2759" height="11.1111" fill="#0B0B0B"/>
<rect x="296.311" y="611.302" width="13.2759" height="11.1111" fill="#0B0B0B"/>
<rect x="214" y="553.524" width="13.2759" height="11.1111" fill="#0B0B0B"/>
<rect x="227.276" y="553.524" width="13.2759" height="11.1111" fill="#0B0B0B"/>
<rect x="240.552" y="553.524" width="13.2759" height="11.1111" fill="#0B0B0B"/>
<rect x="253.829" y="553.524" width="13.2759" height="11.1111" fill="#0B0B0B"/>
<rect x="267.1" y="553.524" width="13.2759" height="11.1111" fill="#0B0B0B"/>
<rect x="280.38" y="553.524" width="13.2759" height="11.1111" fill="#0B0B0B"/>
<rect x="293.656" y="553.524" width="13.2759" height="11.1111" fill="#0B0B0B"/>
<rect x="227.276" y="542.413" width="13.2759" height="11.1111" fill="#0B0B0B"/>
<rect x="251.174" y="542.413" width="13.2759" height="11.1111" fill="#0B0B0B"/>
<rect x="272.413" y="542.413" width="13.2759" height="11.1111" fill="#0B0B0B"/>
<rect x="272.413" y="564.635" width="13.2759" height="11.1111" fill="#0B0B0B"/>
<rect x="272.413" y="575.745" width="13.2759" height="11.1111" fill="#0B0B0B"/>
<rect x="272.413" y="586.857" width="13.2759" height="11.1111" fill="#0B0B0B"/>
<rect x="285.693" y="586.857" width="13.2759" height="11.1111" fill="#0B0B0B"/>
<rect x="298.969" y="575.745" width="13.2759" height="11.1111" fill="#0B0B0B"/>
<rect x="312.242" y="564.635" width="13.2759" height="11.1111" fill="#0B0B0B"/>
<rect x="325.518" y="553.524" width="13.2759" height="11.1111" fill="#0B0B0B"/>
<rect x="325.518" y="564.635" width="13.2759" height="11.1111" fill="#0B0B0B"/>
<rect x="325.518" y="575.745" width="13.2759" height="11.1111" fill="#0B0B0B"/>
<rect x="325.518" y="586.857" width="13.2759" height="11.1111" fill="#0B0B0B"/>
<rect x="312.242" y="586.857" width="13.2759" height="11.1111" fill="#0B0B0B"/>
<rect x="306.937" y="553.524" width="13.2759" height="11.1111" fill="#0B0B0B"/>
<rect x="306.937" y="542.413" width="13.2759" height="11.1111" fill="#0B0B0B"/>
<rect x="325.518" y="542.413" width="13.2759" height="11.1111" fill="#0B0B0B"/>
<rect x="338.793" y="542.413" width="13.2759" height="11.1111" fill="#0B0B0B"/>
<rect x="349.415" y="542.413" width="13.2759" height="11.1111" fill="#0B0B0B"/>
<rect x="362.691" y="542.413" width="13.2759" height="11.1111" fill="#0B0B0B"/>
<rect x="375.967" y="542.413" width="13.2759" height="11.1111" fill="#0B0B0B"/>
<rect x="389.247" y="542.413" width="13.2759" height="11.1111" fill="#0B0B0B"/>
<rect x="402.52" y="542.413" width="13.2759" height="11.1111" fill="#0B0B0B"/>
<rect x="402.52" y="553.524" width="13.2759" height="11.1111" fill="#0B0B0B"/>
<rect x="389.247" y="553.524" width="13.2759" height="11.1111" fill="#0B0B0B"/>
<rect x="375.967" y="553.524" width="13.2759" height="11.1111" fill="#0B0B0B"/>
<rect x="362.691" y="553.524" width="13.2759" height="11.1111" fill="#0B0B0B"/>
<rect x="362.691" y="564.635" width="13.2759" height="11.1111" fill="#0B0B0B"/>
<rect x="375.967" y="564.635" width="13.2759" height="11.1111" fill="#0B0B0B"/>
<rect x="370.655" y="575.745" width="13.2759" height="11.1111" fill="#0B0B0B"/>
<rect x="370.655" y="586.857" width="13.2759" height="11.1111" fill="#0B0B0B"/>
<rect x="370.655" y="597.968" width="13.2759" height="11.1111" fill="#0B0B0B"/>
<rect x="357.378" y="586.857" width="13.2759" height="11.1111" fill="#0B0B0B"/>
<rect x="322.863" y="597.968" width="13.2759" height="11.1111" fill="#0B0B0B"/>
<rect x="309.587" y="611.302" width="13.2759" height="11.1111" fill="#0B0B0B"/>
<rect x="330.83" y="611.302" width="13.2759" height="11.1111" fill="#0B0B0B"/>
<rect x="344.106" y="600.191" width="13.2759" height="11.1111" fill="#0B0B0B"/>
<rect x="357.378" y="611.302" width="13.2759" height="11.1111" fill="#0B0B0B"/>
<rect x="370.655" y="611.302" width="13.2759" height="11.1111" fill="#0B0B0B"/>
<rect x="383.931" y="611.302" width="13.2759" height="11.1111" fill="#0B0B0B"/>
<rect x="391.897" y="600.191" width="13.2759" height="11.1111" fill="#0B0B0B"/>
<rect x="391.897" y="589.079" width="13.2759" height="11.1111" fill="#0B0B0B"/>
<rect x="391.897" y="577.968" width="13.2759" height="11.1111" fill="#0B0B0B"/>
<rect x="394.552" y="566.857" width="13.2759" height="11.1111" fill="#0B0B0B"/>
<rect x="344.106" y="586.857" width="13.2759" height="11.1111" fill="#0B0B0B"/>
<rect x="344.106" y="577.968" width="13.2759" height="11.1111" fill="#0B0B0B"/>
<rect x="344.106" y="566.857" width="13.2759" height="11.1111" fill="#0B0B0B"/>
<rect x="344.106" y="557.968" width="13.2759" height="11.1111" fill="#0B0B0B"/>
<rect x="174.172" y="586.857" width="13.2759" height="11.1111" fill="#0B0B0B"/>
<rect x="174.172" y="597.968" width="13.2759" height="11.1111" fill="#0B0B0B"/>
<rect x="174.172" y="609.079" width="13.2759" height="11.1111" fill="#0B0B0B"/>
<rect x="91.8608" y="602.413" width="13.2759" height="11.1111" fill="#0B0B0B"/>
<rect x="147.624" y="566.857" width="13.2759" height="11.1111" fill="#0B0B0B"/>
<rect x="160.896" y="557.968" width="13.2759" height="11.1111" fill="#0B0B0B"/>
<rect x="410.482" y="542.413" width="34.5175" height="79.9999" fill="#0B0B0B"/>
<path d="M79.575 447.013C74.5083 447.013 70.275 445.413 66.875 442.213C63.5083 438.979 61.825 434.829 61.825 429.763C61.825 424.696 63.5083 420.563 66.875 417.363C70.275 414.129 74.5083 412.513 79.575 412.513C85.8083 412.513 90.4583 415.229 93.525 420.663L87.425 423.663C86.6917 422.263 85.6083 421.113 84.175 420.213C82.775 419.279 81.2417 418.813 79.575 418.813C76.5417 418.813 74.0417 419.846 72.075 421.913C70.1083 423.979 69.125 426.596 69.125 429.763C69.125 432.929 70.1083 435.546 72.075 437.613C74.0417 439.679 76.5417 440.713 79.575 440.713C81.2417 440.713 82.775 440.263 84.175 439.363C85.6083 438.463 86.6917 437.296 87.425 435.863L93.525 438.813C90.3583 444.279 85.7083 447.013 79.575 447.013ZM104.851 446.413H97.7512V413.063H104.851V446.413ZM142.572 446.413H134.472L132.422 440.763H118.122L116.022 446.413H107.922L120.822 413.063H129.722L142.572 446.413ZM130.472 434.513L125.272 420.163L120.072 434.513H130.472ZM159.743 447.013C154.709 447.013 150.543 445.396 147.243 442.163C143.976 438.896 142.343 434.763 142.343 429.763C142.343 424.763 143.976 420.646 147.243 417.413C150.543 414.146 154.709 412.513 159.743 412.513C164.809 412.513 168.976 414.129 172.243 417.363C175.543 420.596 177.193 424.729 177.193 429.763C177.193 434.796 175.543 438.929 172.243 442.163C168.976 445.396 164.809 447.013 159.743 447.013ZM152.393 437.613C154.259 439.679 156.709 440.713 159.743 440.713C162.776 440.713 165.226 439.679 167.093 437.613C168.959 435.546 169.893 432.929 169.893 429.763C169.893 426.596 168.959 423.979 167.093 421.913C165.226 419.846 162.776 418.813 159.743 418.813C156.709 418.813 154.259 419.846 152.393 421.913C150.559 423.979 149.643 426.596 149.643 429.763C149.643 432.929 150.559 435.546 152.393 437.613Z" fill="#0B0B0B"/>
<path d="M214.819 448.413H207.719V415.063H231.319V421.313H214.819V448.413ZM259.883 448.413H236.283V415.063H259.883V421.313H243.383V428.363H259.533V434.613H243.383V442.163H259.883V448.413ZM272.534 448.413H265.434V415.063H272.534V448.413ZM284.104 420.763H281.304L282.354 410.163H287.604L284.104 420.763ZM310.254 448.413H302.154L300.104 442.763H285.804L283.704 448.413H275.604L288.504 415.063H297.404L310.254 448.413ZM298.154 436.513L292.954 422.163L287.754 436.513H298.154ZM334.027 421.313L343.977 431.363L333.677 442.163H349.827V448.413H325.077V442.163L335.227 431.413L325.127 421.313V415.063H349.827V421.313H334.027ZM371.224 449.013C366.191 449.013 362.024 447.396 358.724 444.163C355.457 440.896 353.824 436.763 353.824 431.763C353.824 426.763 355.457 422.646 358.724 419.413C362.024 416.146 366.191 414.513 371.224 414.513C376.291 414.513 380.457 416.129 383.724 419.363C387.024 422.596 388.674 426.729 388.674 431.763C388.674 436.796 387.024 440.929 383.724 444.163C380.457 447.396 376.291 449.013 371.224 449.013ZM363.874 439.613C365.741 441.679 368.191 442.713 371.224 442.713C374.257 442.713 376.707 441.679 378.574 439.613C380.441 437.546 381.374 434.929 381.374 431.763C381.374 428.596 380.441 425.979 378.574 423.913C376.707 421.846 374.257 420.813 371.224 420.813C368.191 420.813 365.741 421.846 363.874 423.913C362.041 425.979 361.124 428.596 361.124 431.763C361.124 434.929 362.041 437.546 363.874 439.613ZM408.054 448.413H400.954V434.763L388.104 415.063H396.204L404.504 428.463L412.704 415.063H420.804L408.054 434.763V448.413Z" fill="#0B0B0B"/>
</svg>
