<svg width="566" height="558" viewBox="0 0 566 558" fill="none" xmlns="http://www.w3.org/2000/svg">
<rect x="0.663633" y="2.75479" width="128.934" height="121.821" transform="matrix(0.852089 0.523397 -0.520273 0.854 311.104 58.937)" fill="#FAFAFA" stroke="#0B0B0B" stroke-width="4"/>
<path d="M324.433 69.3939L260.509 174.323" stroke="#0B0B0B" stroke-width="4"/>
<path d="M332.912 74.6039L268.987 179.533" stroke="#0B0B0B" stroke-width="4"/>
<path d="M341.395 79.8147L277.47 184.743" stroke="#0B0B0B" stroke-width="4"/>
<path d="M349.878 85.0246L285.953 189.953" stroke="#0B0B0B" stroke-width="4"/>
<path d="M358.36 90.235L294.436 195.164" stroke="#0B0B0B" stroke-width="4"/>
<path d="M366.847 95.4468L302.922 200.376" stroke="#0B0B0B" stroke-width="4"/>
<path d="M375.33 100.658L311.406 205.586" stroke="#0B0B0B" stroke-width="4"/>
<path d="M383.809 105.868L319.884 210.796" stroke="#0B0B0B" stroke-width="4"/>
<path d="M392.291 111.077L328.367 216.006" stroke="#0B0B0B" stroke-width="4"/>
<path d="M400.774 116.288L336.85 221.217" stroke="#0B0B0B" stroke-width="4"/>
<path d="M409.257 121.5L345.332 226.429" stroke="#0B0B0B" stroke-width="4"/>
<path d="M417.743 126.711L353.819 231.639" stroke="#0B0B0B" stroke-width="4"/>
<path d="M447.996 128.983L472.167 157.328L495.884 186.053L483.422 221.158L470.404 256.06L433.771 262.82L397.035 268.997L372.865 240.652L349.148 211.927L361.61 176.822L374.628 141.92L411.261 135.16L447.996 128.983Z" fill="#0B0B0B"/>
<circle cx="422.725" cy="199.989" r="53.3318" transform="rotate(20 422.725 199.989)" fill="#FAFAFA"/>
<rect x="127.87" y="60.8737" width="440" height="366" transform="rotate(20 127.87 60.8737)" fill="#FAFAFA" stroke="#0B0B0B" stroke-width="4"/>
<path d="M161.826 104.018L166.908 107.304C162.233 114.01 156.212 120.172 150.761 123.455C150.133 122.11 148.545 119.456 147.584 118.149C152.625 115.408 157.851 109.967 161.826 104.018ZM152.9 124.447L157.94 127.559C154.453 133.047 149.821 138.172 145.804 141.02C145.049 139.734 143.183 137.405 142.124 136.221C145.952 133.89 149.922 129.269 152.9 124.447ZM159.85 112.663L179.114 119.675L177.215 124.89L155.837 117.109L159.85 112.663ZM164.415 116.932L170.006 118.967L160.139 146.077C159.147 148.802 158.113 150.182 156.08 150.506C154.11 150.8 151.722 150.197 148.715 149.103C149.032 147.356 149.093 144.558 148.858 142.716C150.797 143.529 152.788 144.2 153.446 144.439C154.056 144.662 154.343 144.606 154.565 143.995L164.415 116.932ZM167.444 131.124L173.134 131.279C173.816 137.008 173.562 143.992 172.663 148.507L166.576 148.42C167.598 144.003 167.985 136.801 167.444 131.124ZM177.61 119.128L178.362 119.401L179.306 119.585L182.996 121.726C181.03 125.374 178.594 129.436 176.957 132.032L172.425 129.425C173.772 127.042 175.81 123.048 177.336 119.879L177.61 119.128ZM151.754 100.405L156.465 103.982C150.487 110.905 142.522 117.584 135.451 121.076C135.43 119.525 135.055 115.877 134.565 114.155C140.396 111.436 146.912 106.252 151.754 100.405ZM142.477 111.714L149.783 108.307L149.812 108.372L136.628 144.597L131.224 142.63L142.477 111.714ZM208.054 123.344L227.13 130.287L225.231 135.503L206.156 128.56L208.054 123.344ZM200.505 139.113L226.441 148.553L224.508 153.862L198.573 144.423L200.505 139.113ZM212.42 137.225L218.105 139.294L209.127 163.961C208.101 166.78 206.99 168.078 204.832 168.304C202.645 168.466 199.993 167.713 196.533 166.4C196.815 164.747 196.765 161.962 196.56 160.185C198.922 161.151 201.349 162.087 202.164 162.331C202.933 162.558 203.237 162.455 203.476 161.798L212.42 137.225ZM225.109 129.552L226.472 130.048L227.749 130.193L230.405 134.299C226.145 137.378 220.339 140.905 215.545 142.672C215.152 141.412 214.166 139.297 213.547 138.22C217.294 136.551 222.229 133.08 224.665 130.773L225.109 129.552ZM186.007 123.248L201.183 128.772L199.285 133.987L184.109 128.463L186.007 123.248ZM195.706 116.19L200.81 118.686C195.382 128.044 188.074 139.644 182.788 147.297L179.072 143.178C183.795 136.49 190.847 125.009 195.706 116.19ZM181.806 143.269L186.344 140.451C190.119 145.283 194.662 152.098 196.104 156.614L191.063 159.94C189.731 155.411 185.56 148.306 181.806 143.269ZM199.257 128.07L200.15 128.395L201.188 128.614L204.318 130.392C196.568 148.322 188.231 157.047 176.825 159.44C176.569 157.804 175.801 155.236 175.067 153.745C184.576 152.471 192.537 143.609 198.881 129.104L199.257 128.07Z" fill="#0B0B0B"/>
<path d="M74.903 308.628C78.243 310.269 82.5442 312.048 87.5246 313.86C92.1291 315.536 97.6349 317.221 101.343 318.145L99.0681 324.394C95.6766 323.479 89.7949 321.657 85.2843 320.015C80.3979 318.237 76.3958 316.514 72.6456 314.83L74.903 308.628ZM71.616 329.939C70.5775 331.476 69.6543 332.843 69.0729 334.441C67.9956 337.401 70.1049 340.669 76.8706 343.132C83.1666 345.423 89.4371 346.907 94.0463 347.255L91.682 353.897C87.2054 353.332 81.3449 351.89 74.767 349.496C64.0545 345.597 59.904 340.043 62.2639 333.559C63.2387 330.881 64.6874 328.801 65.6662 327.135L71.616 329.939ZM139.076 331.134C138.337 331.556 137.576 332.184 136.768 332.795C133.205 335.275 127.727 340.092 123.903 343.436C126.018 343.035 128.004 343.279 129.789 343.929C133.313 345.212 134.624 348.19 133.375 352.205C132.717 354.306 131.255 358.031 130.771 360.09C130.292 361.99 131.287 363.204 132.838 363.768C136.925 365.256 141.395 360.87 144.831 355.523L148.448 361.522C143.016 368.697 136.744 372.48 129.508 369.846C124.293 367.948 123.043 363.928 124.039 360.459C124.821 357.871 126.207 354.065 126.767 352.087C127.224 350.392 126.691 349.08 124.999 348.464C121.804 347.301 117.929 349.616 114.9 352.823C112.639 355.086 109.126 359.767 107.515 362.001L101.711 357.334C108.561 349.186 125.17 333.522 129.349 329.935C130.358 328.918 131.815 327.693 133.379 326.027L139.076 331.134ZM179.217 348.032C184.705 350.934 194.188 354.119 199.437 355.338L197.231 361.399C191.294 359.877 182.743 356.764 177.075 354.063L179.217 348.032ZM175.674 369.462C174.716 370.923 174.118 371.982 173.673 373.204C172.904 375.318 174.274 377.254 179.067 378.998C183.249 380.52 186.862 381.41 191.275 382.005L189.107 388.399C185.831 387.898 181.905 386.842 176.596 384.909C168.515 381.968 165.675 377.636 167.42 372.843C168.104 370.964 169.052 369.234 170.488 367.043L175.674 369.462ZM173.127 342.25C172.439 343.117 170.956 345.291 170.46 346.068C168.674 348.93 163.609 357.728 161.899 362.427C161.557 363.367 161.177 364.558 160.976 365.549C162.262 364.208 163.595 362.884 164.881 361.543L166.956 364.906C164.157 368.357 160.76 372.867 159.384 375.186C158.986 375.839 158.469 376.822 158.298 377.292C158.157 377.826 157.866 378.624 157.674 379.299L152.151 377.661C152.374 374.124 153.568 368.067 155.893 361.678C158.476 354.583 162.758 347.202 164.609 343.726C165.258 342.526 166.143 340.826 166.737 339.339L173.127 342.25ZM228.112 360.614C227.027 362.134 226.164 363.629 225.24 364.996C223.121 368.481 219.197 374.875 216.197 378.731C220.756 378.049 224.728 378.537 228.957 380.076C236.521 382.83 240.142 388.67 237.936 394.731C234.105 405.256 222.507 405.398 207.883 398.212L208.445 391.553C218.183 396.96 229.011 399.517 231.542 392.564C232.551 389.791 230.98 386.506 226.375 384.83C220.972 382.863 215.461 383.092 211.39 385.654C210.633 386.124 210.052 386.551 209.339 387.196L204.496 383.252C210.469 377.657 217.256 367.198 219.628 362.581C220.581 360.693 221.073 359.488 221.543 357.904L228.112 360.614ZM209.714 360.143C212.58 361.771 216.202 363.515 219.115 364.575C225.129 366.764 234.312 369.309 242.617 370.469L240.705 376.158C234.379 374.973 224.008 372.475 217.195 369.996C213.624 368.696 210.31 367.277 207.64 365.986L209.714 360.143ZM269.055 385.253C271.677 386.526 274.304 387.642 277.17 388.685C282.902 390.772 288.946 392.439 294.209 393.184L292.088 399.01C286.881 397.967 280.824 396.188 275.169 394.183C272.397 393.174 269.753 392.105 267.049 390.908L269.055 385.253ZM289.829 383.875C289.363 384.716 288.858 385.81 288.452 386.779C287.794 388.295 286.52 391.503 285.289 394.886C282.142 403.531 280.671 409.913 279.046 414.376C277.251 419.31 273.508 421.991 266.742 419.529C260.211 417.152 257.145 413.003 258.941 408.07C260.685 403.277 265.923 401.459 272.36 403.802C281.193 407.017 285.27 413.503 287.704 418.219L282.713 421.99C279.14 414.996 275.54 410.121 270.231 408.188C267.553 407.214 265.327 407.627 264.677 409.413C263.976 411.339 265.548 412.869 268.085 413.792C270.951 414.835 272.485 413.691 273.494 410.919C274.674 407.677 276.936 399.561 279.399 392.795C280.698 389.225 281.797 386.06 282.263 384.633C282.537 383.881 282.926 382.373 283.11 381.429L289.829 383.875ZM266.729 375.999C266.011 376.802 264.558 379.04 264.062 379.818C262.212 382.709 256.899 392.481 255.189 397.18C254.864 398.072 254.466 399.311 254.265 400.302C255.522 398.897 256.902 397.59 258.141 396.232L260.216 399.595C257.481 403.016 254.204 407.197 252.746 409.593C252.366 410.199 251.849 411.182 251.725 411.669C251.537 412.185 251.246 412.984 251.053 413.659L245.607 412.103C245.848 408.519 246.875 402.773 249.183 396.43C251.765 389.336 256.407 380.969 258.288 377.556C258.954 376.309 259.809 374.545 260.386 373.105L266.729 375.999Z" fill="#0B0B0B"/>
<path d="M309.576 444.91L310.608 437.836C312.934 438.363 315.002 438.726 316.81 438.923C318.607 439.151 320.195 439.126 321.573 438.847C322.952 438.569 324.139 437.937 325.136 436.952C326.145 435.935 326.997 434.472 327.692 432.561C328.365 430.713 328.619 429.138 328.454 427.837C328.289 426.535 327.737 425.713 326.797 425.371C326.14 425.132 325.506 425.167 324.896 425.478C324.298 425.757 323.776 426.169 323.328 426.716C322.924 427.243 322.636 427.741 322.465 428.211C322.362 428.493 322.332 428.819 322.375 429.189C322.418 429.559 322.665 429.951 323.118 430.364C323.571 430.777 324.355 431.204 325.471 431.646C326.619 432.099 328.225 432.56 330.289 433.027L338.183 435.9C339.373 436.334 340.105 436.955 340.378 437.764C340.694 438.553 340.686 439.401 340.356 440.31C340.002 441.281 339.377 441.975 338.48 442.394C337.594 442.781 336.54 442.752 335.319 442.307L322.398 437.604C320.425 436.886 318.819 436.036 317.58 435.053C316.342 434.07 315.535 432.925 315.159 431.618C314.795 430.279 314.932 428.733 315.571 426.979C316.084 425.569 316.832 424.245 317.814 423.006C318.829 421.779 319.985 420.746 321.284 419.906C322.594 419.035 323.954 418.466 325.364 418.199C326.817 417.911 328.232 418.019 329.61 418.52C331.49 419.204 332.923 420.382 333.911 422.054C334.899 423.726 335.436 425.66 335.524 427.856C335.643 430.063 335.292 432.294 334.471 434.549C333.183 438.089 331.337 440.822 328.932 442.75C326.528 444.677 323.687 445.807 320.409 446.139C317.12 446.502 313.509 446.093 309.576 444.91ZM335.385 442.331L338.249 435.925C339.721 436.46 340.806 436.696 341.504 436.63C342.245 436.545 342.826 436.118 343.247 435.349C343.681 434.549 344.156 433.339 344.675 431.719L352.029 409.174L358.701 411.603L351.411 434.117C350.904 435.706 350.653 436.981 350.658 437.94C350.664 438.9 350.97 439.668 351.576 440.243C352.214 440.83 353.159 441.351 354.412 441.807C355.602 442.241 356.334 442.862 356.607 443.67C356.892 444.448 356.869 445.291 356.538 446.199C356.185 447.17 355.559 447.865 354.662 448.283C353.776 448.671 352.738 448.647 351.548 448.214C350.17 447.713 348.943 447.089 347.866 446.342C346.79 445.596 346.02 444.641 345.556 443.479C345.092 442.317 345.037 440.861 345.391 439.109L347.441 439.909C346.316 441.344 345.171 442.346 344.006 442.915C342.852 443.453 341.57 443.66 340.161 443.537C338.794 443.395 337.202 442.993 335.385 442.331ZM351.536 448.21L354.4 441.803C355.528 442.213 356.539 442.457 357.433 442.534C358.327 442.612 359.176 442.424 359.979 441.971C360.794 441.487 361.628 440.656 362.483 439.477C363.369 438.31 364.368 436.687 365.479 434.608L371.258 437.882C371.024 438.329 370.731 438.843 370.377 439.424C370.055 440.016 369.728 440.624 369.394 441.248C369.104 441.852 368.856 442.435 368.651 442.999C368.445 443.563 368.373 444.104 368.432 444.622C368.492 445.141 368.7 445.642 369.055 446.126C369.454 446.59 370.016 447.043 370.742 447.485C371.5 447.938 372.458 448.376 373.617 448.797C374.807 449.231 375.539 449.852 375.812 450.661C376.097 451.438 376.074 452.281 375.743 453.189C375.39 454.16 374.764 454.855 373.867 455.273C373.013 455.672 371.975 455.649 370.753 455.204C369.343 454.691 368.099 454.114 367.02 453.473C365.972 452.843 365.117 452.124 364.453 451.315C363.833 450.486 363.41 449.552 363.185 448.512C363.003 447.453 363.078 446.274 363.409 444.975L365.664 445.796C364.553 447.095 363.393 448.038 362.186 448.627C361.021 449.197 359.826 449.507 358.601 449.558C357.377 449.609 356.162 449.486 354.958 449.189C353.773 448.935 352.633 448.609 351.536 448.21ZM360.678 463.882C359.769 463.551 359.106 462.937 358.687 462.04C358.289 461.185 358.249 460.32 358.569 459.443C358.899 458.534 359.497 457.865 360.363 457.435C361.261 457.017 362.163 456.973 363.072 457.304C363.949 457.623 364.581 458.225 364.968 459.111C365.355 459.997 365.383 460.894 365.052 461.802C364.733 462.68 364.146 463.317 363.292 463.716C362.426 464.145 361.555 464.201 360.678 463.882ZM352.549 460.923C351.641 460.592 350.977 459.979 350.559 459.081C350.161 458.227 350.121 457.361 350.44 456.484C350.771 455.576 351.369 454.907 352.235 454.477C353.132 454.058 354.035 454.015 354.943 454.345C355.82 454.664 356.452 455.267 356.839 456.153C357.227 457.039 357.255 457.936 356.924 458.844C356.605 459.721 356.018 460.359 355.164 460.757C354.298 461.187 353.426 461.242 352.549 460.923ZM377.553 458.477L378.479 461.049C377.314 461.228 376.504 461.554 376.048 462.027C375.592 462.499 375.35 463.262 375.321 464.316L372.46 461.944C373.012 461.791 373.583 461.733 374.173 461.77C374.782 461.85 375.384 461.998 375.979 462.215C376.794 462.511 377.363 462.896 377.688 463.368C378.012 463.841 378.072 464.36 377.867 464.923C377.707 465.362 377.331 465.81 376.739 466.269C376.146 466.727 375.255 466.74 374.064 466.306C373.25 466.01 372.6 465.507 372.113 464.798C371.657 464.1 371.618 463.234 371.994 462.201C372.222 461.574 372.581 460.978 373.071 460.411C373.55 459.876 374.158 459.423 374.895 459.053C375.664 458.695 376.55 458.503 377.553 458.477ZM370.761 455.207L373.625 448.8C375.004 449.302 376.118 449.601 376.97 449.699C377.853 449.807 378.558 449.673 379.085 449.298C379.623 448.891 380.069 448.201 380.422 447.23C380.741 446.353 380.998 445.258 381.192 443.946C381.418 442.644 381.582 441.267 381.685 439.815C381.788 438.363 381.851 437.02 381.874 435.787L389.008 436.361C388.996 437.563 388.921 438.937 388.784 440.483C388.647 442.03 388.43 443.6 388.133 445.195C387.88 446.77 387.502 448.246 387 449.625C386.373 451.347 385.624 452.724 384.752 453.755C383.892 454.754 382.927 455.503 381.859 456.001C380.834 456.479 379.709 456.744 378.484 456.794C377.302 456.825 376.057 456.691 374.747 456.392C373.437 456.092 372.108 455.698 370.761 455.207Z" fill="#0B0B0B"/>
<path d="M362.228 375.853C360.725 375.306 359.473 374.602 358.474 373.742C357.475 372.881 356.568 371.718 355.754 370.251C354.982 368.764 354.113 366.816 353.145 364.406C352.633 363.085 352.195 362.145 351.831 361.587C351.478 360.997 350.972 360.582 350.314 360.343C349.813 360.161 349.238 360.182 348.589 360.407C347.982 360.611 347.53 361.121 347.234 361.935C346.881 362.906 346.886 363.671 347.25 364.229C347.646 364.799 348.189 365.209 348.878 365.46C349.629 365.734 350.495 365.694 351.475 365.341C352.455 364.988 353.363 364.149 354.201 362.822L356.596 368.376C355.65 369.025 354.696 369.6 353.733 370.101C352.813 370.582 351.772 370.859 350.61 370.933C349.46 370.975 348.039 370.689 346.347 370.073C344.499 369.4 343.106 368.503 342.166 367.381C341.269 366.238 340.744 365.001 340.591 363.668C340.469 362.346 340.636 361.059 341.092 359.806C341.65 358.271 342.49 357.087 343.609 356.253C344.74 355.388 346.046 354.87 347.527 354.699C349.008 354.529 350.531 354.729 352.097 355.299C353.413 355.777 354.509 356.371 355.386 357.081C356.263 357.79 357.029 358.707 357.683 359.833C358.369 360.969 359.058 362.39 359.75 364.096C360.353 365.558 360.865 366.684 361.287 367.476C361.739 368.279 362.198 368.872 362.662 369.253C363.157 369.646 363.765 369.974 364.485 370.236C365.362 370.556 366.197 370.505 366.989 370.083C367.812 369.673 368.451 368.842 368.907 367.589C369.443 366.117 369.588 364.697 369.34 363.33C369.093 361.963 368.596 360.647 367.85 359.383C367.147 358.098 366.338 356.863 365.421 355.678L370.984 351.797C371.331 352.207 371.673 352.633 372.009 353.075C372.356 353.485 372.676 353.921 372.97 354.382L373.213 355.907C374.186 357.326 374.959 358.76 375.531 360.209C376.103 361.659 376.416 363.139 376.469 364.648C376.523 366.158 376.242 367.758 375.626 369.449C374.897 371.454 373.882 373.071 372.583 374.301C371.296 375.5 369.762 376.254 367.982 376.564C366.245 376.854 364.327 376.617 362.228 375.853ZM385.314 373.827C383.873 373.302 382.762 372.65 381.982 371.869C381.202 371.089 380.665 370.272 380.372 369.421C380.091 368.538 379.977 367.681 380.031 366.849C380.086 366.018 380.227 365.289 380.455 364.662C380.9 363.441 381.479 362.481 382.194 361.783C382.941 361.097 383.659 360.49 384.348 359.96L389.238 362.166C388.31 362.573 387.528 363.015 386.893 363.494C386.258 363.972 385.763 364.696 385.41 365.667C385.125 366.451 385.126 367.178 385.414 367.85C385.732 368.534 386.283 369.018 387.066 369.303C387.975 369.634 388.728 369.66 389.326 369.381C389.936 369.071 390.366 368.571 390.617 367.882C390.959 366.942 390.822 366.147 390.207 365.498C389.604 364.817 388.66 364.243 387.376 363.776L369.051 357.106L370.984 351.797L385.267 356.996C387.178 357.691 388.737 358.33 389.944 358.911C391.163 359.461 392.16 360.036 392.934 360.638C393.74 361.25 394.41 361.991 394.945 362.859C395.512 363.74 395.865 364.719 396.004 365.799C396.143 366.878 395.962 368.107 395.46 369.485C394.719 371.521 393.446 372.973 391.64 373.841C389.834 374.709 387.725 374.704 385.314 373.827ZM354.828 351.45C353.356 350.915 352.142 350.207 351.185 349.326C350.24 348.415 349.575 347.268 349.191 345.887C348.818 344.474 348.76 342.733 349.017 340.662L356.006 341.344C355.769 343.067 355.729 344.347 355.885 345.184C356.053 345.99 356.497 346.524 357.217 346.786C357.687 346.957 358.22 346.956 358.815 346.783C359.41 346.609 360.276 346.179 361.413 345.493L364.292 343.721C365.89 342.742 367.317 342.038 368.573 341.608C369.841 341.147 371.107 340.934 372.371 340.968C373.667 341.014 375.119 341.312 376.728 341.862L375.12 347.45C374.032 347.125 373.04 346.976 372.143 347.004C371.289 347.013 370.451 347.169 369.631 347.474C368.811 347.778 367.896 348.243 366.888 348.87L364.636 350.232C363.768 350.767 362.806 351.215 361.753 351.576C360.71 351.906 359.598 352.087 358.416 352.118C357.277 352.129 356.081 351.906 354.828 351.45ZM408.221 392.593C404.681 391.305 401.885 389.631 399.832 387.571C397.822 385.492 396.54 383.216 395.985 380.744C395.474 378.252 395.679 375.737 396.603 373.2C397.401 371.007 398.513 369.266 399.941 367.976C401.399 366.698 403.065 365.921 404.939 365.646C406.825 365.339 408.785 365.556 410.821 366.297C412.231 366.81 413.347 367.446 414.17 368.207C415.035 368.948 415.662 369.761 416.049 370.647C416.467 371.544 416.669 372.451 416.655 373.368C416.671 374.297 416.526 375.184 416.218 376.029C415.42 378.222 414.115 379.663 412.304 380.351C410.492 381.04 408.287 380.911 405.687 379.965C404.434 379.509 403.385 378.932 402.539 378.234C401.694 377.536 401.002 376.805 400.464 376.042C399.957 375.29 399.543 374.625 399.221 374.046L401.909 370.023C402.114 370.63 402.382 371.259 402.712 371.912C403.073 372.575 403.526 373.183 404.07 373.736C404.625 374.257 405.278 374.655 406.03 374.928C407.001 375.282 407.847 375.395 408.567 375.267C409.299 375.107 409.819 374.605 410.127 373.759C410.321 373.227 410.31 372.673 410.093 372.097C409.889 371.491 409.426 371.056 408.706 370.794C407.609 370.395 406.53 370.534 405.467 371.212C404.416 371.858 403.657 372.823 403.19 374.107L402.523 375.94C402.249 376.692 402.115 377.547 402.12 378.507C402.169 379.447 402.447 380.435 402.957 381.472C403.509 382.489 404.389 383.483 405.596 384.454C406.846 385.406 408.52 386.264 410.619 387.028C413.751 388.168 416.351 388.529 418.419 388.111C420.518 387.704 421.983 386.357 422.816 384.071C423.443 382.348 423.494 380.646 422.971 378.966C422.49 377.266 421.561 375.58 420.183 373.907L425.95 371.803L427.219 372.265C428.07 373.532 428.776 374.907 429.337 376.388C429.897 377.869 430.213 379.438 430.284 381.096C430.354 382.753 430.053 384.506 429.381 386.354C428.491 388.797 427.115 390.726 425.252 392.141C423.421 393.567 421.08 394.347 418.229 394.48C415.409 394.624 412.073 393.995 408.221 392.593ZM444.444 383.855C443.003 383.331 441.892 382.678 441.112 381.898C440.332 381.117 439.78 380.295 439.456 379.432C439.174 378.549 439.06 377.692 439.115 376.861C439.169 376.029 439.304 375.316 439.521 374.721C439.988 373.436 440.574 372.461 441.278 371.795C442.024 371.109 442.736 370.517 443.414 370.018L448.322 372.177C447.393 372.584 446.611 373.027 445.976 373.505C445.341 373.983 444.847 374.708 444.493 375.679C444.208 376.462 444.209 377.19 444.497 377.862C444.816 378.545 445.366 379.03 446.149 379.315C447.089 379.657 447.848 379.667 448.426 379.345C449.036 379.035 449.46 378.551 449.7 377.893C450.03 376.985 449.894 376.19 449.29 375.509C448.687 374.829 447.743 374.254 446.459 373.787L440.68 371.684C439.615 371.296 438.672 371.254 437.852 371.559C437.063 371.875 436.379 372.584 435.801 373.686L430.068 371.599C430.225 370.486 430.115 369.523 429.736 368.711C429.389 367.911 428.605 367.289 427.383 366.844L427.101 366.741C426.349 366.468 425.643 366.459 424.982 366.715C424.353 366.983 423.89 367.524 423.593 368.338C423.411 368.839 423.382 369.308 423.508 369.743C423.633 370.179 423.865 370.565 424.204 370.901C424.585 371.218 425.058 371.478 425.622 371.683L426.749 372.094L425.731 377.523L424.133 376.942C422.317 376.28 420.849 375.391 419.73 374.275C418.622 373.127 417.904 371.836 417.574 370.404C417.255 368.94 417.392 367.394 417.985 365.765C418.487 364.387 419.266 363.269 420.323 362.412C421.391 361.524 422.634 360.983 424.053 360.79C425.514 360.577 427.09 360.778 428.781 361.394L429.157 361.53C430.442 361.998 431.511 362.618 432.365 363.39C433.219 364.162 433.84 364.991 434.227 365.876C434.625 366.731 434.781 367.568 434.696 368.388L434.273 368.234C434.934 367.588 435.676 367.06 436.499 366.65C437.334 366.209 438.336 365.989 439.507 365.989C440.72 365.969 442.156 366.262 443.816 366.866L445.696 367.55C447.732 368.291 449.425 369.049 450.774 369.824C452.124 370.599 453.209 371.615 454.029 372.871C454.595 373.751 454.948 374.731 455.087 375.81C455.238 376.858 455.057 378.087 454.544 379.497C453.791 381.564 452.496 383.026 450.659 383.883C448.865 384.719 446.793 384.71 444.444 383.855ZM453.963 362.525C455.937 363.243 457.386 364.231 458.311 365.49C459.236 366.749 459.738 368.245 459.818 369.976L454.628 369.471C454.576 369.026 454.456 368.628 454.265 368.274C454.105 367.933 453.876 367.636 453.577 367.386C453.278 367.135 452.894 366.924 452.424 366.753C451.641 366.468 450.962 366.434 450.387 366.65C449.854 366.846 449.485 367.226 449.28 367.79C449.063 368.385 449.036 368.996 449.198 369.623C449.403 370.229 449.735 370.829 450.193 371.422L444.751 371.463C444.349 370.714 444.058 369.809 443.876 368.75C443.705 367.659 443.831 366.534 444.253 365.375C444.617 364.373 445.22 363.546 446.06 362.894C446.901 362.242 447.982 361.855 449.303 361.733C450.656 361.622 452.209 361.886 453.963 362.525Z" fill="#0B0B0B"/>
<path d="M73.516 291.043C73.7502 288.645 74.0114 286.417 74.2997 284.358C74.6078 282.342 74.9473 280.532 75.318 278.929C75.6773 277.357 76.0507 276.038 76.4383 274.973C77.2364 272.781 78.2635 271.08 79.5198 269.87C80.8074 268.671 82.2216 267.856 83.7624 267.423C85.346 266.971 86.9422 266.825 88.5512 266.985C90.1716 267.113 91.7179 267.445 93.1901 267.981C94.6936 268.528 96.0262 269.155 97.1879 269.862C97.604 268.914 97.8449 268.008 97.9107 267.145C98.0077 266.294 97.9553 265.512 97.7533 264.8C97.5826 264.099 97.2724 263.49 96.8226 262.971C96.4041 262.464 95.8816 262.097 95.2552 261.869C94.66 261.652 94.0079 261.592 93.2987 261.689C92.601 261.754 91.8833 261.972 91.1456 262.342C90.4392 262.723 89.6915 263.267 88.9024 263.973L84.8071 259.29C86.3483 257.687 87.8979 256.548 89.4558 255.874C91.0252 255.168 92.5219 254.808 93.9458 254.794C95.4125 254.761 96.7566 254.966 97.9782 255.411C99.8576 256.095 101.323 257.089 102.373 258.394C103.466 259.678 104.202 261.117 104.58 262.709C104.97 264.27 105.106 265.845 104.989 267.434C104.872 269.023 104.574 270.475 104.095 271.791C103.73 272.793 103.256 273.755 102.671 274.678C102.13 275.581 101.576 276.372 101.009 277.053C100.473 277.744 100.001 278.264 99.5904 278.611C98.0386 277.514 96.5352 276.577 95.0802 275.799C93.6252 275.021 92.2541 274.451 90.967 274.089C89.7226 273.707 88.5664 273.57 87.4984 273.678C86.4731 273.766 85.5617 274.126 84.7641 274.758C83.9979 275.401 83.3867 276.35 82.9307 277.603C82.5089 278.761 82.124 280.111 81.7761 281.652C81.4168 283.224 81.1187 284.871 80.8818 286.594C80.645 288.317 80.4608 290.041 80.3293 291.767L73.516 291.043ZM134.552 292.613C132.36 291.815 130.6 290.998 129.273 290.16C127.989 289.302 127.065 288.381 126.502 287.395C125.949 286.378 125.695 285.275 125.738 284.084C125.781 282.894 126.039 281.551 126.512 280.056L135.034 253.574L141.612 255.968L134.236 279.302C133.774 280.766 133.537 281.904 133.526 282.715C133.514 283.527 133.807 284.184 134.405 284.685C135.034 285.198 136.038 285.705 137.416 286.207C138.607 286.64 139.338 287.261 139.612 288.07C139.927 288.859 139.92 289.707 139.589 290.616C139.236 291.587 138.611 292.281 137.713 292.7C136.828 293.087 135.774 293.058 134.552 292.613ZM109.275 283.413C108.429 283.105 107.596 282.713 106.776 282.238C105.976 281.805 105.415 281.494 105.093 281.306L108.466 274.818C110.524 275.887 112.6 276.713 114.693 277.298C116.829 277.862 118.859 278.033 120.785 277.812C122.752 277.57 124.513 276.828 126.065 275.584C127.629 274.308 128.878 272.386 129.813 269.818L129.665 278.118C128.514 280.111 127.228 281.647 125.807 282.726C124.428 283.785 122.98 284.499 121.462 284.869C119.986 285.219 118.507 285.337 117.023 285.222C115.539 285.108 114.138 284.864 112.82 284.491C111.49 284.149 110.308 283.789 109.275 283.413ZM121.813 280.687C121.674 279.608 121.388 278.298 120.956 276.757C120.535 275.185 119.956 273.413 119.219 271.442C118.524 269.451 117.671 267.314 116.657 265.03C115.656 262.714 114.499 260.289 113.187 257.754L118.899 254.778C120.809 258.595 122.33 261.773 123.463 264.314C124.595 266.854 125.46 268.961 126.058 270.633C126.698 272.285 127.135 273.667 127.368 274.781C127.633 275.906 127.815 276.965 127.914 277.959L121.813 280.687ZM134.584 292.625L137.448 286.218C138.481 286.594 139.355 286.824 140.07 286.906C140.796 286.958 141.471 286.76 142.095 286.313C142.762 285.846 143.474 285.059 144.232 283.952C145.032 282.824 146.024 281.269 147.206 279.288L152.904 282.638C152.639 283.074 152.33 283.582 151.977 284.163C151.623 284.744 151.28 285.346 150.947 285.97C150.625 286.562 150.372 287.109 150.19 287.61C149.871 288.487 149.896 289.294 150.266 290.032C150.648 290.739 151.621 291.377 153.187 291.947C153.971 292.232 154.672 292.399 155.293 292.447C155.957 292.476 156.6 292.267 157.224 291.82C157.891 291.353 158.614 290.534 159.395 289.364C160.218 288.174 161.192 286.524 162.314 284.414L168.157 287.658C167.77 288.333 167.365 289.055 166.943 289.824C166.522 290.592 166.138 291.304 165.793 291.959C165.449 292.614 165.196 293.161 165.037 293.599C164.889 294.006 164.856 294.438 164.938 294.894C165.063 295.329 165.399 295.771 165.946 296.218C166.524 296.677 167.408 297.123 168.598 297.556C169.444 297.864 170.204 298.016 170.879 298.014C171.586 298.022 172.187 297.833 172.682 297.446C173.209 297.07 173.621 296.475 173.917 295.661C174.339 294.502 174.626 292.886 174.777 290.813C174.929 288.739 175.021 286.538 175.053 284.208L182.396 284.646C182.407 286.176 182.321 287.776 182.138 289.448C181.998 291.1 181.775 292.686 181.47 294.206C181.208 295.707 180.883 296.99 180.495 298.055C179.914 299.652 179.144 300.986 178.187 302.057C177.241 303.096 176.16 303.873 174.944 304.388C173.728 304.904 172.414 305.152 171.001 305.135C169.589 305.117 168.131 304.835 166.627 304.288C164.81 303.626 163.385 302.913 162.352 302.146C161.33 301.349 160.659 300.413 160.341 299.339C160.065 298.245 160.106 296.913 160.466 295.341L162.063 295.922C160.733 297.531 159.506 298.61 158.384 299.159C157.273 299.677 156.114 299.841 154.907 299.649C153.731 299.47 152.312 299.078 150.652 298.473C149.619 298.097 148.594 297.6 147.577 296.982C146.603 296.343 145.853 295.432 145.327 294.247C144.8 293.062 144.67 291.472 144.935 289.475L147.506 290.305C146.176 291.913 144.819 292.962 143.434 293.452C142.082 293.953 140.68 294.099 139.231 293.891C137.793 293.651 136.244 293.229 134.584 292.625Z" fill="#0B0B0B"/>
<path d="M221.006 323.814L227.094 307.087C227.641 305.584 227.627 304.355 227.052 303.401C226.477 302.446 225.344 301.662 223.652 301.046C222.024 300.453 220.335 300.122 218.586 300.053C216.88 299.965 215.344 300.044 213.977 300.291L216.098 294.465C217.166 294.357 218.609 294.386 220.429 294.552C222.26 294.686 224.256 295.147 226.418 295.933C228.078 296.538 229.492 297.283 230.659 298.169C231.858 299.066 232.538 300.218 232.7 301.625C233.867 302.511 234.516 303.652 234.647 305.048C234.82 306.423 234.57 308.035 233.898 309.883L227.912 326.328L221.006 323.814ZM213.129 321.479C210.435 320.499 208.586 319.098 207.581 317.278C206.608 315.47 206.543 313.406 207.387 311.088C208.299 308.583 209.921 306.903 212.254 306.049C214.618 305.207 217.799 305.336 221.797 306.436L227.982 308.155L226.135 313.23L220.732 311.848C218.784 311.352 217.331 311.249 216.374 311.54C215.449 311.841 214.815 312.462 214.473 313.402C214.131 314.341 214.172 315.154 214.596 315.841C215.052 316.539 215.765 317.064 216.736 317.418C217.112 317.554 217.499 317.66 217.898 317.734C218.308 317.777 218.686 317.808 219.034 317.828L218.037 322.467C217.362 322.47 216.595 322.386 215.735 322.215C214.875 322.043 214.006 321.798 213.129 321.479ZM231.567 304.299L228.894 299.655C230.127 299.678 231.16 299.522 231.991 299.186C232.835 298.819 233.426 298.218 233.765 297.384L239.92 299.624C239.566 300.595 239.021 301.461 238.283 302.221C237.588 302.961 236.676 303.516 235.548 303.886C234.452 304.267 233.125 304.405 231.567 304.299ZM241.248 331.873C239.651 331.292 238.216 330.557 236.943 329.668C235.659 328.81 234.526 327.83 233.543 326.728L237.287 322.29C237.828 322.948 238.527 323.611 239.384 324.277C240.241 324.944 241.139 325.448 242.079 325.79C243.833 326.429 245.466 326.278 246.979 325.339C248.502 324.368 249.749 322.552 250.718 319.889C251.63 317.383 251.809 315.285 251.254 313.593C250.699 311.901 249.325 310.656 247.133 309.858C246.099 309.482 244.977 309.251 243.767 309.165C242.568 309.048 241.528 309.078 240.648 309.254L242.752 303.475C243.882 303.39 245.104 303.444 246.417 303.638C247.73 303.832 249.075 304.18 250.453 304.682C253.335 305.731 255.49 307.118 256.92 308.844C258.349 310.571 259.121 312.59 259.237 314.902C259.365 317.184 258.921 319.718 257.907 322.506C256.288 326.954 254.038 329.966 251.159 331.543C248.279 333.12 244.976 333.23 241.248 331.873ZM256.657 303.588C255.185 303.052 254.106 302.411 253.42 301.664C252.734 300.918 252.338 300.153 252.233 299.37C252.108 298.544 252.182 297.755 252.456 297.003C252.649 296.471 252.933 295.936 253.306 295.397C253.691 294.828 254.137 294.334 254.644 293.916L259.526 296.437C259.383 296.634 259.251 296.852 259.128 297.091C258.986 297.287 258.88 297.479 258.812 297.667C258.652 298.106 258.668 298.502 258.858 298.855C259.029 299.165 259.428 299.435 260.054 299.663L270.156 303.339L268.497 307.897L256.657 303.588ZM273.405 342.885L279.493 326.159C280.04 324.655 280.026 323.427 279.451 322.472C278.876 321.518 277.743 320.733 276.051 320.118C274.422 319.525 272.734 319.194 270.985 319.125C269.279 319.036 267.743 319.116 266.376 319.363L268.496 313.537C269.564 313.429 271.008 313.458 272.828 313.623C274.659 313.758 276.655 314.218 278.817 315.005C280.477 315.609 281.89 316.354 283.058 317.24C284.257 318.138 284.937 319.29 285.099 320.697C286.266 321.583 286.915 322.724 287.046 324.119C287.219 325.495 286.969 327.107 286.297 328.955L280.311 345.399L273.405 342.885ZM265.528 340.551C262.834 339.57 260.985 338.17 259.98 336.35C259.007 334.541 258.942 332.478 259.786 330.16C260.698 327.654 262.32 325.974 264.653 325.121C267.017 324.278 270.198 324.408 274.196 325.508L280.381 327.227L278.534 332.301L273.13 330.92C271.183 330.424 269.73 330.321 268.773 330.611C267.848 330.913 267.214 331.533 266.872 332.473C266.53 333.413 266.571 334.226 266.995 334.912C267.45 335.61 268.164 336.136 269.135 336.489C269.511 336.626 269.898 336.732 270.297 336.806C270.707 336.849 271.085 336.88 271.433 336.9L270.436 341.539C269.761 341.542 268.994 341.457 268.134 341.286C267.274 341.115 266.405 340.87 265.528 340.551ZM283.966 323.371L281.293 318.727C282.526 318.75 283.559 318.593 284.39 318.258C285.233 317.89 285.825 317.29 286.164 316.455L292.319 318.696C291.965 319.667 291.42 320.532 290.682 321.292C289.987 322.033 289.075 322.588 287.947 322.958C286.851 323.339 285.524 323.477 283.966 323.371ZM296.095 351.676C293.557 350.753 291.737 349.469 290.632 347.825C289.539 346.151 289.017 344.222 289.066 342.041C289.126 339.828 289.618 337.453 290.542 334.916C291.534 332.191 292.652 330.044 293.897 328.475C295.185 326.887 296.575 325.796 298.067 325.204C299.571 324.581 301.165 324.345 302.848 324.497C304.573 324.628 306.36 325.03 308.208 325.703C311.028 326.729 313.14 327.941 314.547 329.34C315.953 330.739 316.77 332.295 316.997 334.01C317.256 335.736 317.032 337.57 316.325 339.512L310.22 356.285L303.172 353.72L309.072 337.51C309.608 336.038 309.652 334.795 309.206 333.781C308.802 332.747 307.785 331.934 306.156 331.341C305.06 330.942 304.003 330.823 302.987 330.985C302.013 331.128 301.08 331.693 300.188 332.681C299.328 333.68 298.504 335.26 297.718 337.421C297.182 338.894 296.85 340.245 296.721 341.475C296.593 342.705 296.728 343.748 297.126 344.602C297.556 345.468 298.319 346.101 299.415 346.5C299.76 346.625 300.094 346.729 300.419 346.812C300.786 346.874 301.107 346.92 301.38 346.949L300.123 352.45C299.542 352.487 298.874 352.422 298.119 352.253C297.396 352.096 296.721 351.904 296.095 351.676ZM298.297 318.743L299.374 315.783L304.838 315.537L321.611 321.642L319.816 326.575L298.297 318.743ZM314.845 321.52L316.777 316.211L322.791 318.4L320.859 323.709L314.845 321.52Z" fill="#0B0B0B"/>
<path d="M114.678 209.131C112.517 208.345 110.781 207.216 109.472 205.747C108.193 204.288 107.419 202.516 107.149 200.432C106.891 198.316 107.24 195.942 108.198 193.311C109.429 189.928 111.203 187.346 113.519 185.564C115.834 183.781 118.478 182.757 121.448 182.49C124.43 182.192 127.502 182.619 130.666 183.77C133.548 184.819 135.854 186.084 137.585 187.566C139.328 189.016 140.592 190.611 141.377 192.351C142.174 194.06 142.552 195.847 142.512 197.713C142.483 199.547 142.144 201.356 141.494 203.142C140.935 204.677 140.243 206.092 139.416 207.387C138.601 208.651 137.721 209.803 136.775 210.842L146.689 214.451L154.47 193.073L161.471 195.621L151.86 222.026L127.757 213.253L128.907 209.362C129.89 208.514 130.853 207.427 131.796 206.103C132.739 204.779 133.541 203.209 134.202 201.392C134.92 199.419 135.17 197.612 134.951 195.972C134.764 194.343 134.112 192.917 132.996 191.695C131.892 190.442 130.321 189.444 128.285 188.703C126.155 187.928 124.156 187.768 122.288 188.223C120.42 188.678 118.786 189.609 117.387 191.016C116 192.391 114.936 194.096 114.195 196.132C113.625 197.698 113.335 199.03 113.326 200.126C113.329 201.191 113.564 202.057 114.03 202.723C114.54 203.37 115.249 203.859 116.157 204.189C116.878 204.452 117.524 204.527 118.097 204.416C118.7 204.317 119.225 204.046 119.669 203.605C120.145 203.175 120.519 202.584 120.793 201.833C121.226 200.642 121.228 199.614 120.798 198.748C120.411 197.863 119.654 197.215 118.526 196.804C117.211 196.325 115.893 196.289 114.575 196.696C113.267 197.072 112.026 197.56 110.849 198.16L111.457 193.274C113.015 192.599 114.667 192.154 116.413 191.938C118.159 191.722 120.018 191.973 121.992 192.691C124.498 193.603 126.277 195.049 127.33 197.029C128.383 199.008 128.437 201.298 127.491 203.898C126.829 205.715 125.883 207.144 124.653 208.186C123.465 209.208 122.019 209.817 120.316 210.013C118.656 210.189 116.777 209.895 114.678 209.131ZM168.316 228.654C166.154 227.867 164.419 226.739 163.109 225.269C161.831 223.811 161.057 222.039 160.787 219.954C160.517 217.87 160.861 215.512 161.819 212.881C162.959 209.748 164.739 207.292 167.161 205.513C169.582 203.734 172.488 202.717 175.88 202.462C179.272 202.206 183.004 202.82 187.076 204.302C189.018 205.009 190.726 205.772 192.201 206.593C193.719 207.394 195.08 208.332 196.284 209.409C197.489 210.486 198.656 211.762 199.786 213.238L200.687 214.417C202.244 216.864 203.301 219.466 203.859 222.223C204.428 224.948 204.176 227.783 203.104 230.727C202.409 232.638 201.429 234.161 200.164 235.297C198.931 236.445 197.472 237.138 195.789 237.376C194.137 237.627 192.325 237.393 190.351 236.674C188.096 235.853 186.418 234.764 185.316 233.405C184.246 232.058 183.638 230.559 183.493 228.91C183.391 227.242 183.648 225.561 184.264 223.87C184.879 222.178 185.723 220.641 186.794 219.257C187.876 217.842 189.181 216.597 190.708 215.52C192.235 214.444 193.968 213.532 195.908 212.784L197.266 212.267C199.55 211.644 201.787 211.394 203.977 211.517C206.179 211.609 208.642 212.151 211.367 213.143C213.058 213.759 214.553 214.427 215.852 215.148C217.162 215.837 218.352 216.661 219.422 217.618C220.493 218.575 221.505 219.742 222.458 221.117L223.201 222.292C224.283 223.998 225.094 225.766 225.635 227.594C226.218 229.403 226.489 231.24 226.449 233.105C226.44 234.982 226.082 236.891 225.375 238.833C224.68 240.744 223.7 242.267 222.435 243.403C221.201 244.551 219.743 245.244 218.06 245.482C216.408 245.732 214.595 245.498 212.622 244.78C210.367 243.959 208.688 242.87 207.587 241.511C206.516 240.163 205.909 238.665 205.764 237.016C205.662 235.347 205.919 233.667 206.534 231.976C207.15 230.284 207.999 228.731 209.082 227.316C210.196 225.912 211.489 224.698 212.962 223.673C214.446 222.617 216.029 221.775 217.713 221.146L219.896 220.557C221.359 220.238 222.788 220.067 224.18 220.041C225.573 220.016 227.155 220.202 228.926 220.598C230.74 220.975 232.963 221.642 235.594 222.599L250.535 228.037L248.705 233.065L241.986 230.619L234.205 251.997L227.205 249.449L234.986 228.071L232.918 227.319C231.258 226.715 229.863 226.26 228.732 225.955C227.633 225.661 226.673 225.472 225.853 225.386C225.033 225.3 224.247 225.316 223.495 225.432C222.775 225.56 221.973 225.765 221.09 226.047C219.891 226.32 218.78 226.838 217.758 227.601C216.746 228.332 215.852 229.23 215.074 230.295C214.328 231.372 213.721 232.552 213.253 233.836C212.592 235.653 212.385 237.05 212.633 238.026C212.88 239.003 213.395 239.634 214.178 239.919C214.93 240.193 215.59 240.185 216.156 239.894C216.766 239.584 217.286 239.082 217.716 238.387C218.189 237.672 218.591 236.861 218.921 235.952C219.377 234.699 219.635 233.357 219.696 231.924C219.799 230.472 219.642 229.049 219.227 227.657C218.854 226.244 218.183 224.971 217.212 223.837C216.179 222.29 214.993 221.114 213.655 220.307C212.328 219.47 210.928 218.783 209.456 218.247C207.357 217.483 205.512 217.095 203.92 217.084C202.371 217.052 201.028 217.184 199.892 217.48C198.502 217.79 197.227 218.319 196.068 219.068C194.92 219.785 193.915 220.696 193.051 221.801C192.219 222.917 191.53 224.227 190.983 225.73C190.356 227.453 190.139 228.828 190.332 229.856C190.568 230.865 191.109 231.523 191.955 231.831C192.707 232.104 193.366 232.096 193.933 231.805C194.511 231.484 195.015 230.976 195.445 230.281C195.918 229.566 196.32 228.755 196.651 227.846C197.357 225.904 197.55 223.864 197.229 221.725C196.939 219.598 196.074 217.686 194.634 215.992C193.526 214.453 192.185 213.167 190.611 212.133C189.079 211.079 187.311 210.187 185.306 209.457C182.643 208.488 180.224 208.069 178.049 208.199C175.884 208.298 174.03 208.812 172.486 209.74C170.942 210.668 169.744 211.863 168.893 213.327C168.736 213.66 168.563 213.988 168.375 214.309C168.219 214.642 168.026 215.122 167.798 215.749C167.24 217.284 166.946 218.578 166.917 219.631C166.92 220.697 167.17 221.568 167.668 222.246C168.178 222.893 168.887 223.381 169.795 223.712C170.516 223.974 171.162 224.05 171.734 223.939C172.338 223.839 172.862 223.569 173.307 223.128C173.782 222.698 174.157 222.107 174.431 221.355C174.853 220.196 174.854 219.168 174.436 218.271C174.049 217.385 173.291 216.737 172.164 216.327C170.848 215.848 169.547 215.818 168.259 216.236C166.984 216.623 165.726 217.105 164.487 217.683L165.095 212.796C166.653 212.122 168.305 211.676 170.051 211.46C171.797 211.245 173.656 211.496 175.629 212.214C178.167 213.137 179.946 214.583 180.968 216.551C182.021 218.531 182.075 220.821 181.128 223.42C180.467 225.237 179.537 226.672 178.338 227.726C177.15 228.748 175.704 229.357 174.001 229.553C172.341 229.729 170.446 229.429 168.316 228.654ZM253.542 259.674C251.193 258.819 249.24 257.753 247.682 256.477C246.136 255.169 245.084 253.722 244.527 252.136C243.98 250.518 244.032 248.816 244.682 247.031C245.309 245.308 246.352 244.003 247.81 243.115C249.311 242.207 251.305 241.797 253.791 241.886C256.277 241.975 259.321 242.675 262.923 243.986L272.884 247.612C274.889 248.341 276.52 249.024 277.779 249.659C279.037 250.295 280.068 250.971 280.871 251.689C281.685 252.376 282.391 253.165 282.989 254.057C283.689 255.056 284.106 256.201 284.24 257.491C284.416 258.762 284.253 260.086 283.752 261.464C282.828 264.001 281.29 265.694 279.137 266.542C277.015 267.401 274.45 267.284 271.443 266.189C270.691 265.916 269.847 265.555 268.91 265.108C267.993 264.703 267.168 264.243 266.433 263.727L269.322 259.298C269.715 259.583 270.119 259.837 270.535 260.059C270.962 260.25 271.426 260.437 271.928 260.619C273.243 261.098 274.342 261.196 275.225 260.915C276.12 260.602 276.778 259.866 277.2 258.707C277.496 257.892 277.51 257.17 277.243 256.541C277.018 255.892 276.575 255.305 275.915 254.781C275.286 254.268 274.513 253.809 273.596 253.404C272.69 252.968 271.736 252.568 270.734 252.203L260.35 248.424C259.254 248.025 258.182 247.706 257.134 247.466C256.129 247.207 255.219 247.124 254.404 247.218C253.695 247.314 253.114 247.546 252.661 247.913C252.208 248.281 251.868 248.777 251.64 249.404C251.207 250.594 251.373 251.648 252.139 252.565C252.936 253.494 254.164 254.26 255.825 254.864C257.046 255.309 258.148 255.497 259.131 255.429C260.156 255.341 261.08 254.897 261.904 254.097C262.738 253.266 263.475 251.973 264.113 250.219L267.824 240.024L260.729 237.441L258.113 244.63L251.543 243.09L256.263 230.122L285.3 240.691L283.47 245.718L274.637 242.503L270.96 252.605C270.162 254.797 269.31 256.456 268.404 257.581C267.541 258.685 266.558 259.534 265.456 260.126C263.841 260.957 262.028 261.308 260.018 261.179C258.05 261.031 255.891 260.529 253.542 259.674ZM273.76 231.17C272.633 230.759 271.84 230.063 271.382 229.08C270.935 228.066 270.917 226.995 271.327 225.868C271.737 224.74 272.434 223.947 273.417 223.489C274.411 223 275.471 222.96 276.599 223.37C277.695 223.769 278.467 224.476 278.914 225.49C279.372 226.473 279.396 227.528 278.985 228.655C278.575 229.783 277.873 230.592 276.879 231.081C275.896 231.539 274.857 231.569 273.76 231.17ZM296.535 275.322C294.186 274.467 292.232 273.401 290.675 272.125C289.129 270.817 288.077 269.37 287.519 267.784C286.973 266.166 287.025 264.464 287.675 262.679C288.302 260.956 289.344 259.651 290.803 258.763C292.304 257.855 294.297 257.445 296.784 257.534C299.27 257.623 302.314 258.323 305.916 259.634L315.877 263.26C317.881 263.989 319.513 264.672 320.772 265.307C322.03 265.943 323.061 266.62 323.864 267.337C324.678 268.024 325.384 268.813 325.982 269.705C326.682 270.704 327.099 271.849 327.233 273.14C327.409 274.41 327.246 275.734 326.744 277.112C325.821 279.649 324.283 281.342 322.129 282.19C320.007 283.049 317.443 282.932 314.436 281.837C313.684 281.564 312.84 281.203 311.903 280.756C310.986 280.351 310.16 279.891 309.426 279.375L312.315 274.946C312.708 275.231 313.112 275.485 313.528 275.707C313.955 275.898 314.419 276.085 314.92 276.267C316.236 276.746 317.335 276.845 318.218 276.563C319.112 276.25 319.77 275.514 320.192 274.355C320.489 273.54 320.503 272.819 320.236 272.189C320.011 271.54 319.568 270.953 318.908 270.429C318.278 269.916 317.505 269.457 316.588 269.053C315.683 268.617 314.729 268.216 313.727 267.851L303.343 264.072C302.247 263.673 301.175 263.354 300.127 263.114C299.122 262.855 298.212 262.772 297.397 262.866C296.688 262.962 296.107 263.194 295.654 263.561C295.201 263.929 294.861 264.425 294.633 265.052C294.199 266.242 294.366 267.296 295.132 268.213C295.929 269.142 297.157 269.908 298.817 270.513C300.039 270.957 301.141 271.145 302.124 271.077C303.149 270.989 304.073 270.545 304.896 269.745C305.731 268.914 306.468 267.621 307.106 265.867L310.817 255.672L303.722 253.089L301.106 260.278L294.536 258.738L299.256 245.77L328.293 256.339L326.463 261.366L317.63 258.151L313.953 268.253C313.155 270.446 312.303 272.104 311.397 273.229C310.534 274.334 309.551 275.182 308.449 275.774C306.834 276.605 305.021 276.956 303.01 276.827C301.043 276.679 298.884 276.177 296.535 275.322ZM365.007 269.063C367.92 270.123 370.057 271.611 371.417 273.525C372.789 275.408 373.505 277.584 373.564 280.053C373.655 282.533 373.204 285.136 372.212 287.861C371.346 290.242 370.34 292.128 369.194 293.52C368.081 294.924 366.746 295.91 365.191 296.48C364.083 296.892 362.922 297.108 361.709 297.128C360.496 297.147 359.103 296.978 357.532 296.618C356.002 296.239 354.141 295.65 351.949 294.852L329.631 286.729L339.242 260.324L346.243 262.872L338.462 284.25L347.107 287.397L351.348 275.745C352.055 273.803 352.834 272.295 353.686 271.221C354.569 270.159 355.566 269.369 356.677 268.851C357.819 268.345 359.075 268.11 360.445 268.148C361.857 268.165 363.378 268.47 365.007 269.063ZM363.647 274.262C363.24 274.113 362.81 274.028 362.357 274.005C361.935 273.993 361.511 274.087 361.084 274.286C360.528 274.545 360.026 275.001 359.575 275.653C359.168 276.285 358.673 277.4 358.092 278.997L354.108 289.945L355.893 290.595C357.553 291.199 358.938 291.437 360.049 291.309C361.203 291.161 362.172 290.592 362.959 289.601C363.776 288.622 364.527 287.193 365.211 285.313C365.838 283.59 366.246 281.983 366.434 280.491C366.634 278.967 366.522 277.667 366.098 276.59C365.685 275.482 364.868 274.706 363.647 274.262ZM359.229 262.278C358.101 261.867 357.308 261.171 356.85 260.188C356.403 259.174 356.385 258.104 356.796 256.976C357.206 255.848 357.903 255.055 358.885 254.597C359.879 254.108 360.94 254.068 362.068 254.478C363.164 254.877 363.936 255.584 364.382 256.598C364.841 257.581 364.865 258.636 364.454 259.763C364.044 260.891 363.341 261.7 362.347 262.189C361.365 262.647 360.325 262.677 359.229 262.278Z" fill="#0B0B0B"/>
<path d="M258.833 184.606C255.92 183.546 253.773 182.427 252.392 181.251C251.042 180.086 250.282 178.763 250.112 177.282C249.953 175.769 250.18 174.025 250.793 172.049L259.314 145.566L265.892 147.96L258.516 171.295C258.054 172.759 257.818 173.896 257.806 174.708C257.794 175.52 258.088 176.176 258.685 176.678C259.315 177.19 260.318 177.698 261.697 178.199C262.887 178.632 263.619 179.253 263.892 180.062C264.208 180.851 264.2 181.7 263.87 182.608C263.516 183.579 262.891 184.274 261.994 184.692C261.108 185.079 260.054 185.051 258.833 184.606ZM272.964 157.824L274.161 154.535L286.446 155.282L285.215 158.665L272.964 157.824ZM271.168 162.757L272.365 159.468L284.651 160.215L283.419 163.598L271.168 162.757ZM258.897 184.629L261.761 178.222C262.951 178.656 263.93 178.888 264.699 178.92C265.5 178.963 266.223 178.729 266.87 178.22C267.559 177.69 268.284 176.819 269.045 175.606C269.837 174.404 270.788 172.764 271.9 170.686L277.678 173.96C277.445 174.407 277.151 174.921 276.798 175.501C276.476 176.094 276.148 176.702 275.815 177.325C275.524 177.929 275.276 178.513 275.071 179.076C274.798 179.828 274.72 180.527 274.84 181.174C275.002 181.8 275.455 182.409 276.198 182.998C276.972 183.599 278.174 184.196 279.803 184.789C280.993 185.222 281.725 185.843 281.998 186.652C282.282 187.43 282.259 188.273 281.929 189.181C281.575 190.152 280.95 190.847 280.053 191.265C279.198 191.664 278.16 191.641 276.939 191.196C274.777 190.409 273.097 189.567 271.899 188.67C270.7 187.773 269.948 186.719 269.644 185.508C269.34 184.298 269.401 182.813 269.829 181.053L272.084 181.874C270.973 183.172 269.877 184.138 268.794 184.773C267.723 185.377 266.638 185.727 265.539 185.823C264.44 185.92 263.335 185.837 262.224 185.574C261.133 185.355 260.024 185.04 258.897 184.629ZM263.327 198.48C262.418 198.149 261.749 197.551 261.319 196.685C260.921 195.83 260.887 194.949 261.218 194.041C261.548 193.132 262.152 192.448 263.029 191.987C263.927 191.568 264.829 191.524 265.738 191.855C266.646 192.185 267.294 192.794 267.681 193.68C268.088 194.608 268.126 195.526 267.795 196.435C267.465 197.343 266.857 197.991 265.971 198.378C265.116 198.776 264.235 198.81 263.327 198.48ZM276.929 191.192L279.793 184.786C281.484 185.401 283.194 185.917 284.923 186.334C286.651 186.75 288.367 187.055 290.07 187.249C291.773 187.443 293.437 187.499 295.064 187.417C296.721 187.347 298.33 187.116 299.891 186.727C299.156 185.821 298.315 184.965 297.367 184.159C296.419 183.352 295.353 182.627 294.168 181.983C293.026 181.319 291.766 180.737 290.388 180.235C289.887 180.053 289.349 179.874 288.774 179.701C288.23 179.538 287.659 179.401 287.061 179.29C286.474 179.147 285.876 179.036 285.267 178.956L286.67 172.177C287.669 172.257 288.687 172.433 289.724 172.704C290.803 172.955 291.734 173.223 292.517 173.508C294.209 174.123 295.691 174.875 296.964 175.764C298.268 176.665 299.412 177.613 300.397 178.61C301.414 179.619 302.336 180.593 303.165 181.533C304.024 182.485 304.856 183.319 305.659 184.037C306.493 184.766 307.364 185.296 308.272 185.627L310.011 186.26L308.488 192.782C307.119 192.355 305.753 192.159 304.392 192.196C303.073 192.213 301.709 192.355 300.299 192.622C298.932 192.869 297.46 193.114 295.882 193.355C294.336 193.608 292.634 193.752 290.777 193.785C288.92 193.819 286.853 193.652 284.575 193.284C282.296 192.916 279.748 192.219 276.929 191.192ZM301.483 212.155L301.208 205.457C303.073 205.497 304.832 205.392 306.483 205.142C308.167 204.903 309.69 204.518 311.055 203.986C312.419 203.454 313.577 202.758 314.528 201.898C315.491 201.007 316.2 199.935 316.656 198.682C317.135 197.366 317.362 195.817 317.337 194.034C317.312 192.252 317.173 190.392 316.92 188.455L324.152 187.735C324.363 188.912 324.466 190.138 324.463 191.414C324.503 192.669 324.504 193.787 324.466 194.767C324.429 195.747 324.4 196.41 324.38 196.757C324.272 198.421 324.502 199.64 325.071 200.414C325.672 201.201 326.834 201.907 328.557 202.534C329.747 202.967 330.479 203.588 330.752 204.397C331.068 205.186 331.06 206.035 330.73 206.943C330.376 207.914 329.751 208.609 328.854 209.027C327.968 209.414 326.914 209.386 325.693 208.941C324.408 208.474 323.349 207.875 322.515 207.146C321.681 206.417 321.097 205.583 320.764 204.646C320.463 203.721 320.41 202.744 320.607 201.716L321.986 203.335C321.194 204.927 320.076 206.294 318.632 207.435C317.207 208.62 315.562 209.582 313.697 210.322C311.831 211.061 309.851 211.582 307.754 211.883C305.658 212.185 303.568 212.275 301.483 212.155ZM325.749 208.961L328.613 202.555C329.333 202.817 330.007 202.867 330.633 202.705C331.302 202.523 332.073 202.111 332.945 201.471C333.828 200.799 334.913 199.864 336.201 198.665C337.824 197.128 339.331 196.009 340.721 195.309C342.142 194.62 343.465 194.25 344.69 194.199C345.957 194.129 347.139 194.293 348.235 194.692C349.614 195.193 350.789 195.958 351.763 196.987C352.737 198.015 353.474 199.206 353.975 200.559C354.487 201.88 354.739 203.284 354.73 204.771C354.763 206.237 354.53 207.66 354.028 209.038C353.424 210.698 352.516 212.071 351.306 213.155C350.138 214.22 348.785 214.916 347.247 215.243C345.752 215.55 344.205 215.413 342.608 214.832C341.261 214.341 339.78 213.536 338.166 212.417C336.551 211.297 335.031 209.626 333.605 207.405L338.07 202.592C339.127 204.076 340.186 205.259 341.248 206.142C342.341 207.037 343.295 207.632 344.109 207.929C344.736 208.157 345.275 208.282 345.728 208.305C346.181 208.328 346.553 208.233 346.843 208.019C347.134 207.806 347.364 207.464 347.535 206.994C347.775 206.337 347.863 205.606 347.801 204.803C347.738 204 347.527 203.266 347.165 202.603C346.846 201.919 346.342 201.452 345.653 201.201C344.995 200.962 344.34 201.007 343.688 201.337C343.079 201.648 342.389 202.177 341.62 202.926C340.894 203.655 340.016 204.506 338.988 205.48C337.743 206.658 336.599 207.608 335.557 208.328C334.526 209.017 333.516 209.501 332.528 209.779C331.582 210.038 330.553 210.089 329.439 209.932C328.357 209.787 327.127 209.463 325.749 208.961Z" fill="#0B0B0B"/>
</svg>
