<svg width="709" height="686" viewBox="0 0 709 686" fill="none" xmlns="http://www.w3.org/2000/svg">
<circle cx="356.919" cy="329.331" r="217.5" transform="rotate(-125 356.919 329.331)" fill="#0B0B0B"/>
<path d="M432.148 401.989L404.798 362.928" stroke="#525252" stroke-width="2" stroke-linecap="round" stroke-dasharray="4 4"/>
<path d="M436.134 399.198L408.783 360.137" stroke="#525252" stroke-width="2" stroke-linecap="round" stroke-dasharray="4 4"/>
<path d="M440.12 396.407L412.769 357.346" stroke="#525252" stroke-width="2" stroke-linecap="round" stroke-dasharray="4 4"/>
<path d="M443.309 394.174L415.958 355.114" stroke="#525252" stroke-width="2" stroke-linecap="round" stroke-dasharray="4 4"/>
<path d="M255.004 408.415L269.977 394.921L252.893 406.023L268.159 392.325L250.873 403.139L266.139 389.44L248.651 399.965L263.917 386.267L246.429 396.792L261.897 383.382L244.207 393.619L260.17 380.292L242.187 390.734L257.453 377.035L239.966 387.561L250.166 377.839L241.48 365.434L250.259 359.287L248.037 356.114L250.378 354.474L247.954 351.013L233.03 361.463L233.887 359.573L226.53 362.145L231.867 356.688L229.596 356.558L235.7 349.705L225.82 354.903L227.354 352.11L224.023 353.582L228.12 350.713L218.422 354.925L224.324 347.783L222.951 348.314L230.225 340.641L222.485 343.911L222.374 343.129L218.367 345.504L217.559 344.351L211.595 347.667L219.092 341.557L218.284 340.404L220.918 338.559L222.298 332.434L228.444 328.131L225.616 324.092L227.149 321.299L211.821 331.172L211.981 328.91L206.986 331.118L207.258 329.638L203.433 331.027L206.046 327.907L204.854 327.452L212.38 317.023L200.522 321.887L203.135 318.767L198.139 320.976L202.508 316.627L192.81 320.838L200.105 314.44L196.956 314.926L205.038 308.406L189.689 317.004L200.413 303.047L207.527 297.636L204.497 293.308L206.545 291.874L204.525 288.989L189.197 298.862L190.437 296.274L179.325 298.466L183.109 294.527L180.838 294.398L189.756 284.713L176.052 291.3L178.261 287.604L170.681 288.612L183.202 275.975L167.045 283.419L178.527 273.659L177.134 272.915L186.791 266.154L181.741 258.942L169.158 267.752" stroke="#525252" stroke-width="2"/>
<circle cx="350.679" cy="463.786" r="1.94631" transform="rotate(-125 350.679 463.786)" fill="#525252"/>
<circle cx="350.679" cy="463.786" r="9.7047" transform="rotate(-125 350.679 463.786)" stroke="#525252" stroke-width="2"/>
<circle cx="350.56" cy="464.464" r="51.0638" transform="rotate(-125 350.56 464.464)" stroke="#525252" stroke-width="2"/>
<circle cx="350.56" cy="464.464" r="55.9564" transform="rotate(-125 350.56 464.464)" stroke="#525252" stroke-width="2" stroke-linecap="round" stroke-dasharray="8 8"/>
<rect x="305.319" y="439.679" width="8.7047" height="30.1141" transform="rotate(-125 305.319 439.679)" stroke="#525252" stroke-width="2"/>
<path d="M547.427 390.174L395.602 173.346" stroke="#525252" stroke-width="2"/>
<path d="M551.476 350.854L454.905 293.91" stroke="#525252" stroke-width="2"/>
<path d="M476.197 413.877L512.161 257.529" stroke="#525252" stroke-width="2"/>
<path d="M455.257 326.31L521.956 314.829" stroke="#525252" stroke-width="2"/>
<circle cx="473.671" cy="305.198" r="1.94631" transform="rotate(-125 473.671 305.198)" fill="#525252"/>
<ellipse cx="455.612" cy="294.677" rx="1.45973" ry="1.94631" transform="rotate(-125 455.612 294.677)" fill="#525252"/>
<circle cx="472.073" cy="282.557" r="1.94631" transform="rotate(-125 472.073 282.557)" fill="#525252"/>
<circle cx="467.608" cy="276.18" r="1.94631" transform="rotate(-125 467.608 276.18)" fill="#525252"/>
<circle cx="463.143" cy="269.802" r="1.94631" transform="rotate(-125 463.143 269.802)" fill="#525252"/>
<circle cx="443.606" cy="241.902" r="1.94631" transform="rotate(-125 443.606 241.902)" fill="#525252"/>
<ellipse cx="424.349" cy="214.4" rx="1.45973" ry="1.94631" transform="rotate(-125 424.349 214.4)" fill="#525252"/>
<circle cx="500.578" cy="307.148" r="1.45973" transform="rotate(-125 500.578 307.148)" fill="#525252"/>
<circle cx="502.211" cy="301.846" r="1.94631" transform="rotate(-125 502.211 301.846)" fill="#525252"/>
<circle cx="506.355" cy="282.313" r="1.94631" transform="rotate(-125 506.355 282.313)" fill="#525252"/>
<ellipse cx="511.493" cy="259.113" rx="1.45973" ry="1.94631" transform="rotate(-125 511.493 259.113)" fill="#525252"/>
<circle cx="510.347" cy="327.038" r="1.94631" transform="rotate(-125 510.347 327.038)" fill="#525252"/>
<circle cx="518.679" cy="331.302" r="1.45973" transform="rotate(-125 518.679 331.302)" fill="#525252"/>
<ellipse cx="529.083" cy="337.678" rx="1.94631" ry="1.45973" transform="rotate(-125 529.083 337.678)" fill="#525252"/>
<circle cx="525.1" cy="358.287" r="1.94631" transform="rotate(-125 525.1 358.287)" fill="#525252"/>
<ellipse cx="510.309" cy="337.163" rx="1.45973" ry="1.94631" transform="rotate(-125 510.309 337.163)" fill="#525252"/>
<rect x="356.877" y="274.085" width="59.3087" height="43.7383" transform="rotate(-125 356.877 274.085)" stroke="#525252" stroke-width="2"/>
<rect x="313.034" y="304.785" width="59.3087" height="43.7383" transform="rotate(-125 313.034 304.785)" stroke="#525252" stroke-width="2"/>
<path d="M313.027 304.822L349.298 278.577L311.233 302.26L347.504 276.014L309.24 299.413L345.51 273.167L307.246 296.566L343.517 270.32L305.851 294.573L341.324 267.188" stroke="#525252" stroke-width="2"/>
<path d="M348.509 226.55C354.635 222.261 363.246 223.891 367.725 230.288C372.205 236.685 370.791 245.334 364.665 249.624C358.539 253.914 349.928 252.283 345.449 245.886C340.969 239.489 342.382 230.84 348.509 226.55Z" stroke="#525252" stroke-width="2"/>
<path d="M271.336 335.203L279.936 295.131L251.829 303.605L261.196 262.135L230.927 271.26L240.698 230.369L210.43 239.494L211.355 235.83" stroke="#525252" stroke-width="2"/>
<path d="M456.79 452.451L397.623 367.952" stroke="#525252" stroke-width="2"/>
<rect x="391.413" y="379.395" width="4.81208" height="11.6242" transform="rotate(-125 391.413 379.395)" stroke="#525252" stroke-width="2"/>
<rect x="117.738" y="401.103" width="440" height="365" transform="rotate(-45 117.738 401.103)" fill="#FAFAFA" stroke="#0B0B0B" stroke-width="4"/>
<path d="M225.869 413.179L220.814 418.235L201.651 399.073L190.514 410.209L209.677 429.372L204.656 434.393L181.074 410.811L202.287 389.597L225.869 413.179ZM235.537 403.512L230.517 408.532L206.935 384.95L217.966 373.919C220.44 371.444 223.104 370.242 225.956 370.313C228.808 370.336 231.318 371.433 233.487 373.601C235.631 375.746 236.728 378.256 236.775 381.132C236.822 384.007 235.62 386.671 233.168 389.122L227.158 395.132L235.537 403.512ZM228.077 385.374C229.091 384.361 229.633 383.253 229.704 382.051C229.774 380.802 229.326 379.694 228.36 378.727C227.394 377.761 226.298 377.325 225.072 377.419C223.846 377.466 222.727 377.997 221.713 379.01L216.375 384.349L222.739 390.713L228.077 385.374ZM257.423 381.626L252.579 386.469L228.997 362.887L234.018 357.867L249.256 373.105L244.943 346.942L250.104 341.78L273.686 365.362L268.666 370.383L252.862 354.579L257.423 381.626ZM291.135 347.914L278.336 360.713L254.754 337.131L267.164 324.721C269.309 322.576 271.56 321.503 273.917 321.503C276.274 321.456 278.289 322.27 279.963 323.943C281.4 325.381 282.214 326.972 282.402 328.716C282.591 330.46 282.225 332.028 281.306 333.418C282.767 332.334 284.488 331.91 286.468 332.145C288.448 332.381 290.168 333.23 291.63 334.691C293.468 336.53 294.388 338.651 294.388 341.055C294.388 343.459 293.303 345.745 291.135 347.914ZM275.508 335.257C276.356 334.408 276.792 333.501 276.816 332.534C276.84 331.568 276.474 330.708 275.72 329.953C274.966 329.199 274.094 328.846 273.104 328.893C272.114 328.893 271.206 329.305 270.381 330.13L264.088 336.423L269.215 341.55L275.508 335.257ZM285.478 344.873C286.421 343.931 286.928 342.952 286.998 341.939C287.045 340.902 286.645 339.959 285.796 339.11C285.018 338.333 284.099 337.956 283.038 337.979C281.954 337.979 280.941 338.45 279.998 339.393L273.528 345.863L279.008 351.343L285.478 344.873ZM306.8 332.248L301.78 337.269L278.198 313.687L283.218 308.666L306.8 332.248ZM321.982 317.066L316.927 322.122L297.764 302.96L290.87 309.854L286.45 305.434L305.259 286.625L309.679 291.045L302.82 297.904L321.982 317.066Z" fill="#0B0B0B"/>
<path d="M259.881 479.577L254.86 484.597L231.278 461.015L242.309 449.984C244.784 447.509 247.448 446.307 250.3 446.378C253.152 446.402 255.662 447.498 257.83 449.666C259.975 451.811 261.071 454.321 261.118 457.197C261.165 460.072 259.963 462.736 257.512 465.187L251.502 471.197L259.881 479.577ZM252.421 461.439C253.434 460.426 253.976 459.318 254.047 458.116C254.118 456.867 253.67 455.759 252.704 454.793C251.737 453.826 250.641 453.39 249.416 453.484C248.19 453.532 247.07 454.062 246.057 455.075L240.718 460.414L247.082 466.778L252.421 461.439ZM261.543 419.578C262.463 419.554 263.252 419.872 263.912 420.532C264.572 421.192 264.902 421.994 264.902 422.937C264.902 423.879 264.572 424.681 263.912 425.341C263.252 426.001 262.451 426.331 261.508 426.331C260.565 426.331 259.764 426.001 259.104 425.341C258.444 424.681 258.126 423.891 258.149 422.972C258.149 422.029 258.479 421.228 259.139 420.568C259.799 419.908 260.601 419.578 261.543 419.578ZM254.048 427.073C254.967 427.05 255.757 427.368 256.417 428.028C257.077 428.688 257.407 429.489 257.407 430.432C257.43 431.351 257.112 432.141 256.452 432.801C255.769 433.484 254.955 433.826 254.013 433.826C253.093 433.802 252.304 433.461 251.644 432.801C250.984 432.141 250.666 431.351 250.689 430.432C250.689 429.489 251.019 428.688 251.679 428.028C252.339 427.368 253.129 427.05 254.048 427.073ZM293.611 445.847L276.923 462.535L253.341 438.953L270.029 422.265L274.448 426.684L262.781 438.352L267.766 443.337L279.186 431.917L283.605 436.336L272.185 447.756L277.524 453.095L289.191 441.427L293.611 445.847ZM316.627 422.83L310.864 428.593L297.854 424.845L294.177 428.522L302.556 436.902L297.535 441.922L273.953 418.34L284.984 407.309C287.412 404.882 290.04 403.668 292.868 403.668C295.72 403.644 298.266 404.752 300.505 406.991C302.438 408.924 303.499 410.998 303.687 413.214C303.899 415.406 303.451 417.386 302.344 419.153L316.627 422.83ZM295.025 418.835C296.062 417.798 296.628 416.667 296.722 415.441C296.793 414.192 296.345 413.084 295.379 412.118C294.412 411.151 293.316 410.715 292.091 410.809C290.841 410.88 289.698 411.434 288.661 412.471L283.393 417.739L289.757 424.103L295.025 418.835ZM329.057 411.249C324.862 415.444 320.289 417.518 315.34 417.471L314.244 410.93C318.392 411.025 321.951 409.587 324.921 406.617C326.217 405.321 326.971 404.071 327.184 402.869C327.396 401.62 327.136 400.63 326.406 399.9C325.769 399.263 324.897 399.075 323.789 399.334C322.705 399.57 321.562 400.1 320.36 400.925C319.181 401.726 317.826 402.539 316.294 403.364C314.762 404.189 313.265 404.885 311.804 405.45C310.366 405.992 308.822 406.122 307.172 405.839C305.546 405.533 304.038 404.684 302.647 403.294C300.62 401.267 299.736 398.756 299.995 395.763C300.231 392.746 301.704 389.882 304.415 387.172C308.162 383.424 312.323 381.456 316.895 381.267L317.779 387.737C314.196 387.879 311.05 389.305 308.339 392.015C307.279 393.076 306.666 394.113 306.501 395.127C306.336 396.14 306.619 397.012 307.349 397.743C307.915 398.309 308.728 398.462 309.789 398.202C310.849 397.896 311.969 397.342 313.148 396.541C314.35 395.716 315.717 394.914 317.249 394.137C318.781 393.312 320.277 392.64 321.739 392.121C323.2 391.556 324.756 391.438 326.406 391.768C328.056 392.051 329.564 392.876 330.931 394.243C333.194 396.505 334.208 399.145 333.972 402.162C333.76 405.156 332.122 408.184 329.057 411.249ZM362.667 376.791L357.611 381.847L347.711 371.947L336.574 383.084L346.474 392.984L341.453 398.004L317.871 374.422L322.892 369.402L332.155 378.665L343.292 367.528L334.029 358.265L339.085 353.209L362.667 376.791ZM351.934 329.187C352.853 329.163 353.643 329.482 354.303 330.142C354.963 330.801 355.293 331.603 355.293 332.546C355.293 333.488 354.963 334.29 354.303 334.95C353.643 335.61 352.842 335.94 351.899 335.94C350.956 335.94 350.155 335.61 349.495 334.95C348.835 334.29 348.517 333.5 348.54 332.581C348.54 331.638 348.87 330.837 349.53 330.177C350.19 329.517 350.991 329.187 351.934 329.187ZM344.439 336.682C345.358 336.659 346.148 336.977 346.808 337.637C347.468 338.297 347.798 339.098 347.798 340.041C347.821 340.96 347.503 341.75 346.843 342.41C346.16 343.093 345.346 343.435 344.404 343.435C343.484 343.412 342.695 343.07 342.035 342.41C341.375 341.75 341.057 340.96 341.08 340.041C341.08 339.098 341.41 338.297 342.07 337.637C342.73 336.977 343.52 336.659 344.439 336.682ZM384.002 355.456L367.314 372.144L343.732 348.562L360.42 331.874L364.839 336.293L353.172 347.961L358.157 352.946L369.577 341.526L373.996 345.945L362.576 357.365L367.915 362.704L379.582 351.037L384.002 355.456ZM409.033 330.424L404.19 335.268L377.567 331.131L392.947 346.511L387.926 351.531L364.344 327.949L369.506 322.787L395.245 326.676L380.431 311.863L385.451 306.842L409.033 330.424ZM422.982 316.476L413.683 325.774L390.101 302.192L399.4 292.894C403.1 289.193 407.19 287.272 411.668 287.131C416.17 286.966 420.189 288.651 423.724 292.187C427.26 295.722 428.957 299.729 428.815 304.208C428.65 308.662 426.706 312.752 422.982 316.476ZM418.562 312.056C420.825 309.794 421.909 307.295 421.815 304.561C421.744 301.803 420.672 299.387 418.598 297.313C416.429 295.145 414.013 294.025 411.35 293.955C408.663 293.86 406.152 294.98 403.819 297.313L399.541 301.591L414.284 316.334L418.562 312.056ZM455.748 283.709L439.06 300.397L415.478 276.815L432.166 260.127L436.585 264.547L424.918 276.214L429.903 281.199L441.323 269.779L445.742 274.199L434.323 285.619L439.661 290.957L451.329 279.29L455.748 283.709ZM470.173 269.284L465.117 274.34L445.955 255.177L439.061 262.072L434.641 257.652L453.45 238.843L457.87 243.263L451.011 250.122L470.173 269.284ZM481.809 258.497C479.146 261.16 476.27 262.504 473.183 262.527L471.521 256.481C473.831 256.434 475.646 255.751 476.966 254.431C478.073 253.323 478.616 252.097 478.592 250.754C478.592 249.387 478.015 248.126 476.86 246.971L461.091 231.202L466.112 226.182L481.951 242.021C484.638 244.708 485.922 247.501 485.804 250.4C485.663 253.276 484.331 255.975 481.809 258.497ZM511.06 228.398L494.372 245.085L470.79 221.503L487.478 204.816L491.897 209.235L480.23 220.902L485.215 225.887L496.635 214.468L501.054 218.887L489.634 230.307L494.973 235.646L506.64 223.978L511.06 228.398Z" fill="#0B0B0B"/>
<path d="M380.831 559.444L375.776 564.5L359.265 547.989L369.129 571.147L366.937 573.339L343.779 563.475L360.29 579.986L355.27 585.006L331.688 561.424L338.723 554.389L358.699 562.909L350.178 542.933L357.249 535.862L380.831 559.444ZM398.314 541.962L385.515 554.761L361.933 531.179L374.343 518.769C376.488 516.624 378.738 515.552 381.096 515.552C383.453 515.505 385.468 516.318 387.141 517.991C388.579 519.429 389.392 521.02 389.581 522.764C389.769 524.509 389.404 526.076 388.485 527.467C389.946 526.382 391.667 525.958 393.647 526.194C395.627 526.429 397.347 527.278 398.809 528.739C400.647 530.578 401.566 532.699 401.566 535.103C401.566 537.507 400.482 539.794 398.314 541.962ZM382.687 529.305C383.535 528.457 383.971 527.549 383.995 526.583C384.018 525.616 383.653 524.756 382.899 524.002C382.144 523.247 381.272 522.894 380.282 522.941C379.292 522.941 378.385 523.354 377.56 524.179L371.267 530.472L376.393 535.598L382.687 529.305ZM392.657 538.922C393.6 537.979 394.106 537.001 394.177 535.987C394.224 534.95 393.823 534.007 392.975 533.159C392.197 532.381 391.278 532.004 390.217 532.027C389.133 532.027 388.119 532.499 387.177 533.442L380.707 539.912L386.187 545.392L392.657 538.922ZM430.95 509.326L425.222 515.054L419.777 512.508L409.666 522.62L412.176 528.1L406.448 533.827L391.988 501.124L398.281 494.831L430.95 509.326ZM413.979 509.468L400.155 502.998L406.625 516.822L413.979 509.468ZM419.206 494.553L417.226 496.533C411.216 492.455 407.987 490.193 407.539 489.745C406.879 489.085 406.549 488.284 406.549 487.341C406.525 486.374 406.855 485.549 407.539 484.866C408.199 484.206 409.012 483.888 409.978 483.911C410.945 483.888 411.758 484.206 412.418 484.866L419.206 494.553ZM422.056 456.914L421.42 467.732L418.273 470.879L417.919 461.05L422.056 456.914ZM454.442 485.834L437.754 502.522L414.172 478.94L430.86 462.252L435.279 466.672L423.612 478.339L428.597 483.324L440.017 471.904L444.436 476.324L433.016 487.743L438.355 493.082L450.022 481.415L454.442 485.834ZM463.387 476.889L458.366 481.91L434.784 458.328L439.805 453.307L463.387 476.889ZM479.912 461.212C476.33 464.795 472.205 466.657 467.538 466.798C462.871 466.892 458.746 465.148 455.164 461.566C451.581 457.983 449.848 453.87 449.966 449.227C450.084 444.536 451.934 440.4 455.517 436.817C459.925 432.409 465.134 431.042 471.144 432.716L468.952 439.15C467.444 438.679 465.864 438.632 464.215 439.009C462.565 439.339 461.15 440.093 459.972 441.272C457.827 443.417 456.79 445.915 456.861 448.767C456.931 451.619 458.086 454.165 460.325 456.404C462.565 458.643 465.11 459.798 467.962 459.869C470.814 459.939 473.313 458.902 475.458 456.757C476.636 455.579 477.402 454.176 477.756 452.55C478.133 450.9 478.074 449.309 477.579 447.777L483.978 445.55C485.605 451.654 484.249 456.875 479.912 461.212ZM513.554 426.722L508.498 431.778L498.598 421.878L487.461 433.015L497.361 442.915L492.341 447.935L468.759 424.353L473.779 419.333L483.042 428.596L494.179 417.459L484.916 408.196L489.972 403.14L513.554 426.722ZM540.192 400.084L534.464 405.811L529.02 403.266L518.908 413.377L521.418 418.857L515.691 424.585L501.23 391.881L507.524 385.588L540.192 400.084ZM523.221 400.225L509.398 393.755L515.868 407.579L523.221 400.225ZM547.39 392.886L542.37 397.906L518.788 374.324L529.819 363.293C532.293 360.818 534.957 359.616 537.809 359.687C540.661 359.711 543.171 360.807 545.34 362.975C547.484 365.12 548.58 367.63 548.628 370.506C548.675 373.381 547.473 376.045 545.021 378.496L539.011 384.506L547.39 392.886ZM539.93 374.748C540.944 373.735 541.486 372.627 541.557 371.425C541.627 370.176 541.179 369.068 540.213 368.102C539.247 367.135 538.151 366.699 536.925 366.793C535.699 366.841 534.58 367.371 533.566 368.384L528.228 373.723L534.592 380.087L539.93 374.748ZM583.799 356.477L578.072 362.204L572.627 359.659L562.515 369.77L565.026 375.25L559.298 380.978L544.838 348.274L551.131 341.981L583.799 356.477ZM566.829 356.618L553.005 350.148L559.475 363.972L566.829 356.618Z" fill="#0B0B0B"/>
<path d="M327.056 512.811L321.329 518.538L315.884 515.993L305.773 526.104L308.283 531.584L302.555 537.312L288.095 504.608L294.388 498.315L327.056 512.811ZM310.086 512.952L296.262 506.482L302.732 520.306L310.086 512.952ZM344.225 495.642L329.234 510.633L305.652 487.051L310.673 482.031L329.835 501.193L339.805 491.223L344.225 495.642ZM358.37 482.345C354.811 485.905 350.722 487.708 346.102 487.755C341.482 487.755 337.405 485.987 333.869 482.451C330.333 478.916 328.577 474.85 328.601 470.254C328.625 465.611 330.416 461.509 333.975 457.95C337.558 454.368 341.647 452.564 346.243 452.541C350.863 452.494 354.953 454.25 358.512 457.809C362.071 461.368 363.827 465.457 363.78 470.077C363.756 474.673 361.953 478.763 358.37 482.345ZM346.526 480.896C349.307 481.037 351.771 480.036 353.915 477.891C356.06 475.746 357.062 473.283 356.921 470.501C356.779 467.72 355.589 465.21 353.35 462.971C351.111 460.732 348.6 459.541 345.819 459.4C343.038 459.258 340.575 460.26 338.43 462.405C336.285 464.55 335.283 467.013 335.425 469.794C335.59 472.552 336.792 475.05 339.031 477.29C341.27 479.529 343.768 480.731 346.526 480.896ZM395.021 444.846L389.965 449.902L380.066 440.002L368.929 451.139L378.829 461.039L373.808 466.059L350.226 442.477L355.247 437.457L364.51 446.72L375.647 435.583L366.383 426.32L371.439 421.264L395.021 444.846ZM421.66 418.208L415.932 423.935L410.487 421.389L400.376 431.501L402.886 436.981L397.158 442.709L382.698 410.005L388.991 403.712L421.66 418.208ZM404.689 418.349L390.865 411.879L397.335 425.703L404.689 418.349Z" fill="#0B0B0B"/>
<path d="M449.598 391.118C446.038 394.677 441.949 396.48 437.329 396.527C432.709 396.527 428.632 394.759 425.096 391.224C421.561 387.688 419.805 383.622 419.828 379.026C419.852 374.383 421.643 370.282 425.202 366.722C428.785 363.14 432.874 361.337 437.471 361.313C442.09 361.266 446.18 363.022 449.739 366.581C453.298 370.14 455.054 374.23 455.007 378.849C454.983 383.446 453.18 387.535 449.598 391.118ZM437.754 389.668C440.535 389.809 442.998 388.808 445.143 386.663C447.288 384.518 448.289 382.055 448.148 379.274C448.007 376.492 446.816 373.982 444.577 371.743C442.338 369.504 439.828 368.313 437.046 368.172C434.265 368.031 431.802 369.032 429.657 371.177C427.512 373.322 426.511 375.785 426.652 378.566C426.817 381.324 428.019 383.823 430.258 386.062C432.497 388.301 434.996 389.503 437.754 389.668ZM480.026 359.841L465.035 374.831L441.453 351.249L446.474 346.229L465.636 365.391L475.607 355.421L480.026 359.841ZM505.533 334.334L499.805 340.061L494.36 337.516L484.249 347.628L486.759 353.108L481.031 358.835L466.571 326.131L472.864 319.838L505.533 334.334ZM488.562 334.475L474.738 328.005L481.208 341.829L488.562 334.475Z" fill="#0B0B0B"/>
<path d="M367.997 271.051L362.942 276.107L353.042 266.207L341.905 277.344L351.805 287.244L346.784 292.264L323.202 268.682L328.223 263.662L337.486 272.925L348.623 261.788L339.36 252.525L344.415 247.469L367.997 271.051ZM356.417 231.437C358.467 229.387 360.494 227.854 362.498 226.841C364.478 225.804 366.564 225.061 368.756 224.614L369.993 230.518C368.39 230.895 366.835 231.461 365.326 232.215C363.818 232.969 362.403 234.006 361.083 235.326C359.575 236.835 358.691 238.237 358.432 239.534C358.149 240.806 358.444 241.879 359.316 242.751C359.976 243.411 360.777 243.764 361.72 243.812C362.686 243.835 363.865 243.434 365.255 242.609C366.622 241.761 368.296 240.347 370.276 238.367L372.397 236.245L376.569 240.417L374.2 242.786C371.56 245.426 369.828 247.724 369.003 249.681C368.178 251.59 368.367 253.145 369.569 254.347C370.347 255.125 371.23 255.585 372.22 255.726C373.21 255.821 374.33 255.549 375.579 254.913C376.805 254.253 378.16 253.181 379.645 251.696C380.446 250.894 381.26 249.963 382.085 248.903C382.886 247.818 383.628 246.699 384.312 245.544C384.972 244.365 385.49 243.234 385.868 242.15L390.358 246.64C389.721 248.172 388.755 249.822 387.459 251.59C386.186 253.334 384.595 255.161 382.686 257.07C380.352 259.403 378.101 261.041 375.933 261.984C373.741 262.903 371.69 263.186 369.781 262.833C367.872 262.479 366.175 261.56 364.69 260.075C362.946 258.331 362.18 256.316 362.392 254.029C362.604 251.696 363.735 249.315 365.786 246.887L365.68 246.781C364.265 247.818 362.851 248.596 361.437 249.115C360.046 249.61 358.679 249.751 357.336 249.539C356.016 249.303 354.778 248.608 353.624 247.453C352.28 246.11 351.502 244.554 351.29 242.786C351.078 241.018 351.396 239.168 352.245 237.235C353.117 235.279 354.507 233.346 356.417 231.437ZM410.561 228.487L395.57 243.478L371.988 219.896L377.009 214.875L396.171 234.038L406.142 224.068L410.561 228.487ZM424.707 215.19C421.147 218.749 417.058 220.552 412.438 220.6C407.818 220.6 403.741 218.832 400.205 215.296C396.67 211.761 394.914 207.695 394.937 203.099C394.961 198.455 396.752 194.354 400.311 190.795C403.894 187.212 407.983 185.409 412.58 185.386C417.199 185.339 421.289 187.095 424.848 190.654C428.407 194.213 430.163 198.302 430.116 202.922C430.092 207.518 428.289 211.608 424.707 215.19ZM412.862 213.741C415.644 213.882 418.107 212.88 420.252 210.735C422.397 208.591 423.398 206.128 423.257 203.346C423.116 200.565 421.925 198.055 419.686 195.816C417.447 193.576 414.937 192.386 412.155 192.245C409.374 192.103 406.911 193.105 404.766 195.25C402.621 197.395 401.619 199.858 401.761 202.639C401.926 205.397 403.128 207.895 405.367 210.134C407.606 212.374 410.105 213.576 412.862 213.741Z" fill="#0B0B0B"/>
</svg>
