<svg width="322" height="649" viewBox="0 0 322 649" fill="none" xmlns="http://www.w3.org/2000/svg">
<circle cx="324.198" cy="324.059" r="230" transform="rotate(-40 324.198 324.059)" fill="#0B0B0B"/>
<path d="M254.591 410.005L293.219 377.593" stroke="#525252" stroke-width="2" stroke-linecap="round" stroke-dasharray="4 4"/>
<path d="M257.898 413.947L296.526 381.535" stroke="#525252" stroke-width="2" stroke-linecap="round" stroke-dasharray="4 4"/>
<path d="M261.207 417.889L299.835 385.476" stroke="#525252" stroke-width="2" stroke-linecap="round" stroke-dasharray="4 4"/>
<path d="M263.854 421.043L302.481 388.63" stroke="#525252" stroke-width="2" stroke-linecap="round" stroke-dasharray="4 4"/>
<path d="M231.499 223.985L247.094 238.515L233.824 221.541L249.662 236.361L236.677 219.148L252.514 233.967L239.815 216.515L255.652 231.334L242.953 213.881L258.505 228.94L246.091 211.248L261.601 226.836L248.944 208.854L264.781 223.674L252.082 206.221L263.263 216.071L275.531 205.778L282.815 214.459L285.953 211.826L287.896 214.141L291.319 211.268L278.935 196.51L281.005 197.239L277.618 189.725L283.858 194.845L283.785 192.44L291.567 198.239L285.181 188.31L288.265 189.668L286.407 186.295L289.807 190.347L284.476 180.518L292.544 186.077L291.858 184.68L300.612 191.636L296.453 183.783L297.266 183.594L294.395 179.593L295.536 178.635L291.493 172.658L298.62 179.993L299.761 179.035L301.946 181.64L308.526 182.529L313.626 188.606L317.62 185.255L320.703 186.612L308.89 171.375L311.288 171.336L308.501 166.277L310.086 166.427L308.27 162.525L311.797 164.99L312.167 163.693L323.847 170.66L317.63 158.617L321.157 161.082L318.371 156.023L323.354 160.224L318.024 150.396L325.436 157.491L324.635 154.218L332.247 162.132L321.775 146.755L337.467 156.765L343.823 163.761L348.102 160.17L349.802 162.196L352.655 159.802L340.842 144.564L343.682 145.633L340.349 134.128L344.847 137.751L344.774 135.347L355.798 143.849L347.597 130.02L351.694 132.006L349.933 124.114L364.399 136.139L355.068 119.805L366.408 131.002L367.064 129.465L375.077 139.015L382.209 133.031L371.767 120.587" stroke="#525252" stroke-width="2"/>
<circle cx="181.983" cy="329.877" r="2.05817" transform="rotate(-40 181.983 329.877)" fill="#525252"/>
<circle cx="181.982" cy="329.878" r="10.3199" transform="rotate(-40 181.982 329.878)" stroke="#525252" stroke-width="2"/>
<circle cx="181.261" cy="329.814" r="54.0559" transform="rotate(-40 181.261 329.814)" stroke="#525252" stroke-width="2"/>
<circle cx="181.257" cy="329.814" r="59.1723" transform="rotate(-40 181.257 329.814)" stroke="#525252" stroke-width="2" stroke-linecap="round" stroke-dasharray="8 8"/>
<rect x="203.12" y="279.865" width="9.31991" height="31.9597" transform="rotate(-40 203.12 279.865)" stroke="#525252" stroke-width="2"/>
<path d="M277.664 530.357L492.088 350.434" stroke="#525252" stroke-width="2"/>
<path d="M319.457 530.999L370.544 424.019" stroke="#525252" stroke-width="2"/>
<path d="M246.129 457.503L414.148 480.98" stroke="#525252" stroke-width="2"/>
<circle cx="309.195" cy="503.898" r="2.05817" transform="rotate(-40 309.195 503.898)" fill="#525252"/>
<path d="M310.127 234.443L353.133 239.809L341.616 210.981L386.166 217.026L373.762 185.981L417.74 192.506L405.337 161.46L409.283 162.097" stroke="#525252" stroke-width="2"/>
<path d="M203.704 440.616L287.266 370.499" stroke="#525252" stroke-width="2"/>
<rect x="274.557" y="365.004" width="5.20358" height="12.4072" transform="rotate(-40 274.557 365.004)" stroke="#525252" stroke-width="2"/>
</svg>
