<svg width="281" height="281" viewBox="0 0 281 281" fill="none" xmlns="http://www.w3.org/2000/svg">
<mask id="mask0_213_124" style="mask-type:luminance" maskUnits="userSpaceOnUse" x="15" y="15" width="251" height="251">
<path d="M265.728 140.5C265.728 71.3383 209.661 15.2717 140.5 15.2717C71.3381 15.2717 15.2715 71.3383 15.2715 140.5C15.2715 209.662 71.3381 265.728 140.5 265.728C209.661 265.728 265.728 209.662 265.728 140.5Z" fill="white"/>
</mask>
<g mask="url(#mask0_213_124)">
<path d="M265.728 140.5C265.728 71.3383 209.661 15.2717 140.5 15.2717C71.3381 15.2717 15.2715 71.3383 15.2715 140.5C15.2715 209.662 71.3381 265.728 140.5 265.728C209.661 265.728 265.728 209.662 265.728 140.5Z" fill="#0B0B0B"/>
<path d="M184.19 166.224C166.879 197.711 146.484 223.542 127.551 239.864C118.08 248.03 109.039 253.76 100.991 256.66C92.9404 259.562 86.0656 259.577 80.7013 256.628C75.3371 253.679 71.6653 247.866 69.8015 239.513C67.9387 231.164 67.932 220.461 69.7511 208.088C73.3873 183.357 84.2685 152.295 101.579 120.808C118.889 89.3206 139.285 63.4892 158.217 47.1673C167.689 39.0022 176.73 33.2726 184.778 30.3716C192.829 27.4695 199.703 27.4554 205.068 30.4046C210.431 33.3535 214.104 39.1656 215.967 47.5181C217.831 55.8676 217.837 66.5709 216.018 78.9427C212.382 103.674 201.5 134.736 184.19 166.224Z" stroke="#FAFAFA" stroke-width="2"/>
<path d="M220.642 186.263C203.405 217.618 178.654 240.906 152.638 253.245C126.619 265.586 99.4563 266.938 77.1803 254.691C54.9042 242.445 41.4912 218.786 37.9695 190.207C34.4481 161.627 40.8472 128.252 58.0842 96.8974C75.3214 65.5429 100.073 42.2562 126.089 29.9162C152.107 17.5751 179.27 16.2229 201.547 28.4692C223.822 40.7155 237.235 64.3744 240.757 92.9553C244.278 121.534 237.88 154.909 220.642 186.263Z" stroke="#FAFAFA" stroke-width="2"/>
<path d="M205.404 32.8342L83.2305 251.22" stroke="#FAFAFA" stroke-width="2"/>
<path d="M91.6299 15.2717L265.728 114.538" stroke="#FAFAFA" stroke-width="2"/>
<path d="M59.5596 44.2881L265.728 158.826" stroke="#FAFAFA" stroke-width="2"/>
<path d="M30.543 73.3044L258.092 200.06" stroke="#FAFAFA" stroke-width="2"/>
<path d="M6.1084 109.957L233.657 236.712" stroke="#FAFAFA" stroke-width="2"/>
<path d="M-6.10938 143.554L221.44 270.31" stroke="#FAFAFA" stroke-width="2"/>
</g>
<path d="M273.364 140.5C273.364 67.1213 213.879 7.63599 140.5 7.63599C67.121 7.63599 7.63574 67.1213 7.63574 140.5C7.63574 213.879 67.121 273.364 140.5 273.364C213.879 273.364 273.364 213.879 273.364 140.5Z" stroke="#FAFAFA" stroke-width="10"/>
</svg>
