<svg width="1440" height="704" viewBox="0 0 1440 704" fill="none" xmlns="http://www.w3.org/2000/svg">
<g clip-path="url(#clip0_215_407)">
<path d="M1791.76 0.39619L-54.9253 672.534L-10.7017 794.037L1835.98 121.899L1791.76 0.39619Z" fill="#FAFAFA"/>
<path d="M1789.54 7.81115L-53.3853 678.581L-13.6517 787.748L1829.27 116.978L1789.54 7.81115Z" fill="#FAFAFA" stroke="#0B0B0B" stroke-width="4"/>
<path d="M1326.36 263.218L1303.15 271.666L1288.33 230.925L1291.8 229.66L1305.47 267.224L1325.21 260.042L1326.36 263.218ZM1337.42 259.196L1333.93 260.465L1319.1 219.724L1322.59 218.455L1337.42 259.196ZM1366.94 249.349C1361.11 251.47 1355.49 251.28 1350.07 248.781C1344.67 246.271 1340.85 241.919 1338.6 235.73C1336.35 229.54 1336.48 223.773 1339.02 218.424C1341.56 213.024 1345.75 209.264 1351.58 207.143C1357.77 204.889 1363.73 205.35 1369.45 208.524L1367.5 211.376C1365.4 210.158 1363.05 209.447 1360.44 209.243C1357.87 209.026 1355.3 209.386 1352.73 210.319C1347.88 212.084 1344.44 215.228 1342.4 219.75C1340.4 224.262 1340.35 229.143 1342.27 234.396C1344.16 239.608 1347.33 243.319 1351.79 245.526C1356.27 247.722 1360.93 247.938 1365.78 246.173C1368.26 245.27 1370.37 243.951 1372.09 242.217C1373.81 240.484 1375.1 238.701 1375.95 236.868L1372.4 227.096L1357 232.698L1355.87 229.583L1374.75 222.712L1379.93 236.943C1377.54 242.93 1373.21 247.068 1366.94 249.349ZM1423.82 227.747L1420.28 229.036L1413.23 209.674L1387.39 219.079L1394.44 238.442L1390.96 239.707L1376.13 198.967L1379.61 197.701L1386.23 215.903L1412.07 206.498L1405.45 188.296L1408.99 187.006L1423.82 227.747ZM1447.83 219.008L1444.29 220.298L1430.61 182.733L1417.3 187.58L1416.14 184.404L1446.32 173.421L1447.47 176.598L1434.16 181.444L1447.83 219.008Z" fill="#0B0B0B"/>
<path d="M1233.82 314.992L1218.94 320.409L1216.63 291.993L1196.31 311.705L1187.49 300.289L1208.86 282.758L1184.44 276.248L1190.17 261.333L1213.87 270.155L1209.32 244.098L1223.97 238.762L1226.19 266.955L1246.51 247.24L1255.42 258.882L1234.36 276.558L1258.69 282.841L1252.51 297.924L1229.04 289.016L1233.82 314.992Z" fill="#0B0B0B"/>
<path d="M987.06 386.714L961.472 396.027L946.644 355.287L971.377 346.285C975.286 344.862 978.669 344.83 981.516 346.192C984.364 347.553 986.272 349.579 987.25 352.267C988.154 354.751 988.261 357.064 987.563 359.209C986.859 361.309 985.564 362.956 983.688 364.147C986.053 363.655 988.304 364.081 990.452 365.42C992.584 366.719 994.125 368.671 995.074 371.278C996.185 374.332 996.091 377.317 994.799 380.231C993.508 383.145 990.932 385.305 987.06 386.714ZM973.98 362.354C974.628 362.118 975.12 361.685 975.445 361.06C975.756 360.393 975.785 359.714 975.533 359.022C975.281 358.329 974.837 357.868 974.2 357.639C973.549 357.369 972.894 357.354 972.245 357.59L962.717 361.058L964.451 365.822L973.98 362.354ZM979.971 377.674C980.863 377.349 981.477 376.872 981.803 376.246C982.151 375.566 982.184 374.839 981.903 374.065C981.636 373.332 981.151 372.817 980.447 372.52C979.728 372.182 978.936 372.171 978.081 372.482L968.186 376.084L970.076 381.275L979.971 377.674ZM1031.86 370.41L1004.06 380.527L989.231 339.787L1001.57 335.296L1012.48 365.286L1027.94 359.66L1031.86 370.41ZM1077.98 353.624L1063.99 358.713L1060.79 354.482L1046.13 359.818L1046.4 365.116L1032.41 370.208L1032.61 323.999L1048.12 318.352L1077.98 353.624ZM1053.58 344.933L1044.77 333.268L1045.52 347.867L1053.58 344.933ZM1098.8 346.873C1092.38 349.213 1086.31 349.208 1080.61 346.855C1074.93 344.448 1070.97 340.147 1068.72 333.958C1066.45 327.728 1066.72 321.889 1069.54 316.437C1072.35 310.985 1076.99 307.085 1083.46 304.728C1088.35 302.95 1092.7 302.657 1096.5 303.856C1100.35 305.039 1103.61 307.034 1106.29 309.84L1097.46 318.656C1096.34 317.218 1094.83 316.2 1092.95 315.593C1091.06 314.946 1089.21 314.947 1087.42 315.6C1084.49 316.668 1082.47 318.51 1081.35 321.132C1080.22 323.753 1080.19 326.511 1081.24 329.402C1082.29 332.293 1084.09 334.381 1086.64 335.669C1089.18 336.956 1091.91 337.068 1094.85 336.001C1096.64 335.348 1098.06 334.186 1099.11 332.512C1100.15 330.798 1100.64 329.027 1100.57 327.207L1112.98 328.225C1112.88 329.968 1112.57 331.67 1112.07 333.329C1111.55 334.947 1110.78 336.633 1109.76 338.389C1108.74 340.144 1107.28 341.781 1105.39 343.301C1103.53 344.762 1101.33 345.953 1098.8 346.873ZM1159.7 323.878L1144.67 329.347L1130.29 318.328L1129.14 322.206L1133.25 333.506L1120.91 337.997L1106.08 297.257L1118.42 292.766L1123.98 308.036L1129.11 288.874L1144.2 283.384L1135.7 307.921L1159.7 323.878Z" fill="#0B0B0B"/>
<path d="M597.003 528.684L567.135 539.555L552.307 498.814L582.175 487.943L585.509 497.105L566.147 504.153L568.459 510.505L587.394 503.613L590.729 512.775L571.794 519.667L574.306 526.569L593.668 519.522L597.003 528.684ZM641.339 512.547L628.939 517.06L615.103 506.601L611.226 523.507L598.766 528.042L605.394 501.973L584.854 486.968L597.253 482.455L609.901 492.309L613.134 476.675L625.594 472.14L619.543 496.754L641.339 512.547ZM663.986 504.304L653.48 508.128L641.987 476.549L630.565 480.707L627.23 471.545L660.519 459.428L663.853 468.59L652.493 472.725L663.986 504.304ZM715.102 485.699L703.069 490.079L691.248 478.887L685.873 480.843L690.853 494.525L680.347 498.349L665.519 457.609L685.92 450.183C690.317 448.583 694.246 448.605 697.704 450.252C701.162 451.898 703.603 454.676 705.025 458.585C706.211 461.843 706.368 464.806 705.495 467.476C704.648 470.09 703.265 472.184 701.348 473.758L715.102 485.699ZM690.845 468.658C692.271 468.139 693.331 467.315 694.027 466.186C694.722 465.056 694.818 463.799 694.314 462.415C693.825 461.071 692.951 460.19 691.692 459.772C690.433 459.354 689.092 459.404 687.666 459.923L679.359 462.947L682.538 471.681L690.845 468.658ZM760.309 469.245L748.399 473.58L744.249 468.45L728.185 474.297L728.303 480.894L716.393 485.229L716.896 438.909L730.089 434.107L760.309 469.245ZM738.043 460.333L727.272 446.892L727.66 464.112L738.043 460.333ZM787.139 459.48L763.318 468.15L748.49 427.41L771.578 419.006C775.365 417.628 778.675 417.599 781.508 418.92C784.325 420.2 786.246 422.245 787.268 425.055C788.157 427.498 788.234 429.799 787.498 431.957C786.802 434.101 785.538 435.76 783.706 436.934C786.024 436.46 788.264 436.912 790.426 438.293C792.614 439.618 794.168 441.542 795.087 444.067C796.228 447.202 796.146 450.207 794.84 453.08C793.534 455.953 790.967 458.087 787.139 459.48ZM774.887 435.51C775.946 435.124 776.69 434.508 777.119 433.66C777.575 432.756 777.617 431.795 777.246 430.777C776.89 429.8 776.256 429.132 775.341 428.773C774.452 428.359 773.479 428.344 772.42 428.73L762.219 432.442L764.687 439.222L774.887 435.51ZM781.167 451.623C782.429 451.164 783.288 450.483 783.743 449.579C784.224 448.62 784.265 447.591 783.865 446.491C783.479 445.433 782.794 444.691 781.809 444.265C780.865 443.825 779.762 443.835 778.5 444.294L767.933 448.14L770.6 455.47L781.167 451.623ZM838.248 434.998C835.573 440.445 831.1 444.309 824.83 446.592C818.558 448.874 812.628 448.796 807.037 446.358C801.486 443.905 797.592 439.604 795.354 433.456C793.116 427.307 793.334 421.509 796.01 416.062C798.726 410.601 803.218 406.729 809.49 404.446C815.76 402.164 821.671 402.249 827.222 404.702C832.771 407.155 836.666 411.456 838.904 417.605C841.142 423.753 840.923 429.551 838.248 434.998ZM821.45 437.308C824.749 436.107 827.008 434.017 828.229 431.036C829.449 428.055 829.445 424.875 828.215 421.495C826.985 418.115 824.944 415.677 822.093 414.178C819.242 412.679 816.167 412.53 812.869 413.731C809.529 414.946 807.249 417.044 806.029 420.025C804.808 423.005 804.813 426.185 806.043 429.565C807.273 432.945 809.314 435.384 812.165 436.883C815.016 438.381 818.111 438.523 821.45 437.308ZM878.473 426.237L851.598 436.019L836.769 395.278L847.275 391.455L858.769 423.033L875.138 417.075L878.473 426.237ZM901.091 418.005L883.928 424.252L869.1 383.511L886.202 377.286C892.717 374.915 898.682 374.819 904.085 377.003C909.534 379.17 913.384 383.372 915.651 389.602C917.919 395.832 917.678 401.546 914.911 406.749C912.176 411.895 907.566 415.648 901.091 418.005ZM897.696 408.865C901.156 407.605 903.512 405.526 904.763 402.626C905.998 399.687 906.042 396.65 904.901 393.515C903.701 390.216 901.749 387.883 899.038 386.518C896.328 385.153 893.181 385.122 889.598 386.426L882.94 388.849L891.099 411.266L897.696 408.865Z" fill="#0B0B0B"/>
<path d="M393.154 602.878L371.044 610.926L356.215 570.186L377.654 562.383C381.36 561.034 384.602 561.007 387.378 562.302C390.181 563.541 392.109 565.607 393.161 568.498C394.065 570.982 394.149 573.303 393.413 575.462C392.677 577.62 391.386 579.266 389.538 580.4C391.856 579.925 394.116 580.37 396.319 581.736C398.523 583.101 400.083 585.046 401.002 587.571C402.158 590.747 402.076 593.752 400.755 596.584C399.434 599.417 396.901 601.515 393.154 602.878ZM381.697 579.38C383.163 578.847 384.175 578.017 384.734 576.891C385.292 575.766 385.334 574.551 384.86 573.248C384.386 571.945 383.553 571.049 382.36 570.561C381.194 570.017 379.899 570.005 378.473 570.524L367.601 574.481L370.824 583.337L381.697 579.38ZM388.16 596.188C389.79 595.595 390.924 594.721 391.564 593.566C392.189 592.37 392.235 591.039 391.701 589.573C391.212 588.229 390.337 587.28 389.074 586.725C387.797 586.129 386.344 586.128 384.714 586.721L373.537 590.789L376.982 600.256L388.16 596.188ZM431.113 589.893C424.965 592.13 419.156 592.008 413.687 589.526C408.244 586.988 404.411 582.665 402.188 576.557C399.965 570.449 400.129 564.693 402.682 559.291C405.261 553.833 409.625 549.985 415.774 547.747C421.963 545.495 427.772 545.617 433.2 548.114C438.669 550.597 442.522 554.913 444.76 561.061C446.998 567.21 446.821 572.993 444.227 578.41C441.674 583.812 437.303 587.64 431.113 589.893ZM417.955 581.678C421.155 583.372 424.607 583.545 428.312 582.197C432.017 580.848 434.551 578.496 435.913 575.142C437.274 571.787 437.251 568.175 435.843 564.307C434.435 560.439 432.131 557.657 428.932 555.962C425.732 554.268 422.28 554.095 418.575 555.443C414.87 556.792 412.336 559.144 410.974 562.498C409.654 565.838 409.697 569.442 411.105 573.311C412.513 577.179 414.797 579.968 417.955 581.678ZM484.148 569.76L458.25 579.186L443.422 538.445L452.095 535.288L464.144 568.394L481.369 562.125L484.148 569.76ZM506.285 561.702L490.221 567.549L475.393 526.809L491.457 520.962C497.85 518.635 503.724 518.618 509.077 520.912C514.472 523.191 518.281 527.385 520.504 533.493C522.727 539.601 522.526 545.254 519.898 550.453C517.257 555.611 512.719 559.36 506.285 561.702ZM503.506 554.067C507.415 552.644 510.066 550.296 511.456 547.023C512.888 543.735 512.952 540.3 511.648 536.716C510.284 532.97 508.053 530.323 504.954 528.777C501.84 527.19 498.267 527.13 494.236 528.597L486.845 531.287L496.115 556.757L503.506 554.067Z" fill="#0B0B0B"/>
<path d="M52.7507 727.605C45.7468 730.154 39.4438 730.004 33.8415 727.155L35.8109 720.213C40.6763 722.685 45.654 722.994 50.744 721.142C53.4722 720.149 55.3082 718.858 56.2518 717.269C57.2361 715.666 57.4541 714.111 56.9057 712.604C56.3425 711.057 55.0834 710.132 53.1286 709.829C51.1589 709.485 48.9172 709.471 46.4035 709.786C43.8898 710.102 41.3187 710.323 38.6902 710.45C36.1024 710.561 33.6754 710.038 31.4093 708.88C29.1431 707.722 27.5063 705.758 26.4984 702.989C25.2535 699.569 25.5875 696.242 27.5006 693.01C29.4395 689.722 32.608 687.277 37.0058 685.677C43.2766 683.394 49.0558 683.435 54.3429 685.799L52.185 692.603C47.9639 690.634 43.4713 690.517 38.707 692.251C36.5895 693.022 35.0701 694.105 34.1487 695.501C33.2531 696.842 33.087 698.286 33.6502 699.833C34.0207 700.851 34.7595 701.551 35.8666 701.932C37.0143 702.298 38.3619 702.453 39.9095 702.397C41.4422 702.3 43.1174 702.152 44.9352 701.951C46.7936 701.736 48.6687 701.63 50.5606 701.633C52.4783 701.581 54.285 701.73 55.9808 702.081C57.6764 702.432 59.2261 703.206 60.6292 704.401C62.074 705.581 63.1734 707.21 63.9293 709.287C65.2632 712.952 65.0369 716.447 63.2497 719.772C61.4625 723.097 57.9628 725.708 52.7507 727.605ZM102.737 708.581L74.8238 718.741L59.9955 678.001L87.9091 667.841L90.1989 674.132L69.4317 681.691L73.2777 692.258L93.6174 684.855L95.9072 691.146L75.5675 698.549L79.6803 709.849L100.448 702.29L102.737 708.581ZM152.405 690.504L145.258 693.105L134.254 662.87L132.737 697.662L129.683 698.774L106.218 673.075L117.223 703.309L110.076 705.91L95.2481 665.17L105.326 661.502L126.141 684.292L127.498 653.432L137.577 649.764L152.405 690.504ZM168.222 684.747L161.075 687.348L146.247 646.608L153.393 644.007L168.222 684.747ZM197.467 674.103L176.883 681.595L162.055 640.854L182.089 633.562C185.712 632.244 188.906 632.211 191.668 633.465C194.456 634.664 196.391 636.75 197.473 639.722C198.363 642.165 198.426 644.494 197.664 646.708C196.928 648.867 195.636 650.513 193.789 651.646C196.107 651.172 198.374 651.638 200.593 653.044C202.836 654.394 204.411 656.312 205.315 658.795C206.5 662.053 206.405 665.085 205.029 667.892C203.693 670.684 201.172 672.754 197.467 674.103ZM186.759 650.954C188.55 650.302 189.777 649.302 190.44 647.954C191.102 646.606 191.152 645.159 190.588 643.611C190.01 642.023 189.034 640.926 187.661 640.319C186.287 639.713 184.704 639.735 182.913 640.387L171.491 644.544L175.337 655.111L186.759 650.954ZM193.467 668.434C195.421 667.723 196.77 666.678 197.514 665.301C198.243 663.883 198.282 662.278 197.629 660.486C197.051 658.898 196.02 657.775 194.535 657.116C193.036 656.417 191.309 656.423 189.354 657.134L177.627 661.403L181.739 672.702L193.467 668.434ZM248.56 649.627C246.088 654.999 241.819 658.79 235.752 660.998C229.684 663.207 223.977 663.047 218.631 660.52C213.269 657.952 209.477 653.614 207.254 647.506C205.03 641.398 205.155 635.658 207.626 630.286C210.083 624.872 214.344 621.061 220.412 618.853C226.48 616.645 232.194 616.824 237.555 619.392C242.902 621.919 246.687 626.237 248.91 632.345C251.133 638.453 251.017 644.213 248.56 649.627ZM233.44 654.646C237.471 653.179 240.225 650.608 241.701 646.935C243.162 643.222 243.122 639.247 241.581 635.013C240.024 630.737 237.5 627.667 234.009 625.802C230.517 623.937 226.755 623.738 222.724 625.205C218.652 626.687 215.878 629.265 214.402 632.938C212.967 636.596 213.027 640.563 214.583 644.839C216.139 649.114 218.643 652.192 222.094 654.072C225.585 655.937 229.368 656.128 233.44 654.646ZM288.298 641.043L263.194 650.18L248.365 609.44L255.512 606.839L268.05 641.288L286.008 634.752L288.298 641.043ZM309.895 633.182L294.748 638.695L279.919 597.955L295.067 592.442C301.379 590.144 307.199 590.17 312.527 592.52C317.856 594.869 321.616 599.057 323.809 605.084C325.988 611.07 325.792 616.675 323.22 621.899C320.689 627.109 316.248 630.87 309.895 633.182ZM307.606 626.891C311.881 625.335 314.793 622.753 316.339 619.147C317.886 615.54 317.932 611.742 316.48 607.751C314.983 603.639 312.511 600.711 309.063 598.968C305.657 597.211 301.755 597.132 297.357 598.733L289.356 601.645L299.604 629.803L307.606 626.891Z" fill="#0B0B0B"/>
</g>
<defs>
<clipPath id="clip0_215_407">
<rect width="1969" height="130" fill="white" transform="translate(-58 673.438) rotate(-20)"/>
</clipPath>
</defs>
</svg>
