<svg width="1440" height="301" viewBox="0 0 1440 301" fill="none" xmlns="http://www.w3.org/2000/svg">
<g clip-path="url(#clip0_215_398)">
<path d="M1752.31 173.503L-201.572 0.994141L-212.899 127.948L1740.98 300.457L1752.31 173.503Z" fill="#FAFAFA"/>
<path d="M1747.28 181.486L-202.589 8.93262L-212.441 119.605L1737.42 292.159L1747.28 181.486Z" fill="#FAFAFA" stroke="#0B0B0B" stroke-width="4"/>
<path d="M1244.96 215.448L1239.01 214.919L1233.29 197.25L1224.23 196.445L1219.02 213.142L1213.64 212.665L1227.01 170.659L1242.86 172.067C1246.13 172.358 1248.89 173.64 1251.12 175.91C1253.4 178.185 1254.39 180.992 1254.09 184.333C1253.73 188.316 1252.13 191.52 1249.31 193.946C1246.48 196.371 1242.97 197.548 1238.75 197.476L1244.96 215.448ZM1236.95 192.847L1237.15 192.865C1240.38 193.153 1242.98 192.477 1244.96 190.839C1246.98 189.163 1248.11 186.975 1248.35 184.277C1248.52 182.306 1247.92 180.612 1246.53 179.193C1245.18 177.735 1243.56 176.922 1241.66 176.753L1230.91 175.798L1225.76 191.853L1236.95 192.847ZM1281.29 218.676L1253.02 216.164L1266.37 174.157L1294.66 176.67L1293.2 181.333L1270.29 179.297L1265.93 192.833L1288.39 194.829L1286.93 199.491L1264.41 197.49L1259.78 211.973L1282.75 214.014L1281.29 218.676ZM1312.05 222.186C1306.14 221.662 1301.49 219.499 1298.09 215.7C1294.73 211.905 1293.3 207.223 1293.81 201.656C1294.46 194.332 1297.4 188.462 1302.62 184.048C1307.85 179.591 1313.89 177.667 1320.75 178.277C1324.68 178.626 1328.02 179.786 1330.74 181.755C1333.53 183.73 1335.59 186.201 1336.93 189.169L1331.87 190.986C1330.95 188.702 1329.37 186.857 1327.16 185.451C1324.97 184.049 1322.46 183.221 1319.61 182.968C1314.74 182.535 1310.29 184.125 1306.27 187.74C1302.29 191.358 1300.04 196.08 1299.52 201.905C1299.14 206.188 1300.14 209.753 1302.54 212.599C1304.98 215.449 1308.4 217.07 1312.8 217.461C1316.94 217.829 1320.85 216.644 1324.53 213.906L1327.33 205.347L1312.44 204.024L1313.9 199.362L1334.16 201.162L1329.25 216.592C1324.17 220.889 1318.44 222.754 1312.05 222.186ZM1356.11 226.102C1350.8 225.63 1346.77 223.977 1344.03 221.143C1341.33 218.313 1340.17 214.713 1340.56 210.344C1340.64 209.531 1340.85 208.491 1341.18 207.225L1349.35 181.531L1354.72 182.008L1346.62 207.58C1346.33 208.417 1346.14 209.307 1346.05 210.249C1345.79 213.247 1346.56 215.777 1348.38 217.838C1350.24 219.859 1352.95 221.029 1356.54 221.348C1360.33 221.685 1363.36 220.875 1365.63 218.918C1367.94 216.921 1369.73 213.864 1371.02 209.747L1379.18 184.181L1384.56 184.659L1376.45 210.295C1374.64 215.876 1372.16 220.038 1369 222.779C1365.85 225.478 1361.55 226.585 1356.11 226.102ZM1406.73 229.823L1381.3 227.563L1394.66 185.557L1400.03 186.034L1388.07 223.373L1408.19 225.161L1406.73 229.823ZM1451.68 233.817L1445.79 233.294L1444.97 223.637L1423.41 221.721L1416.67 230.706L1410.27 230.137L1440.97 189.672L1447.64 190.265L1451.68 233.817ZM1444.88 218.836L1442.87 195.41L1426.56 217.209L1444.88 218.836ZM1488.65 237.102L1482.69 236.573L1476.98 218.904L1467.92 218.099L1462.69 234.796L1457.33 234.319L1470.68 192.313L1486.54 193.722C1489.82 194.013 1492.58 195.294 1494.81 197.564C1497.08 199.838 1498.06 202.646 1497.77 205.987C1497.41 209.971 1495.82 213.175 1492.99 215.6C1490.17 218.026 1486.64 219.202 1482.43 219.13L1488.65 237.102ZM1480.63 214.502L1480.82 214.519C1484.06 214.806 1486.66 214.131 1488.63 212.493C1490.66 210.816 1491.79 208.629 1492.03 205.93C1492.21 203.961 1491.6 202.266 1490.2 200.847C1488.86 199.389 1487.23 198.575 1485.34 198.407L1474.6 197.452L1469.43 213.507L1480.63 214.502Z" fill="#0B0B0B"/>
<path d="M1025.54 196.281L1000.95 194.096L1014.32 152.09L1018 152.418L1005.65 191.146L1026.55 193.003L1025.54 196.281ZM1038.07 197.395L1034.38 197.067L1047.74 155.06L1051.43 155.388L1038.07 197.395ZM1070.59 201.062C1064.77 200.544 1060.22 198.392 1056.95 194.604C1053.73 190.821 1052.36 186.209 1052.84 180.769C1053.51 173.403 1056.41 167.487 1061.55 163.022C1066.74 158.519 1072.66 156.562 1079.3 157.152C1083.05 157.486 1086.28 158.571 1088.99 160.409C1091.7 162.205 1093.74 164.545 1095.14 167.431L1091.68 168.808C1090.6 166.381 1088.88 164.458 1086.53 163.04C1084.23 161.584 1081.57 160.721 1078.55 160.453C1073.32 159.989 1068.54 161.722 1064.19 165.653C1059.88 169.544 1057.44 174.659 1056.87 180.997C1056.45 185.666 1057.52 189.517 1060.07 192.55C1062.67 195.587 1066.34 197.317 1071.08 197.738C1075.74 198.152 1080.08 196.811 1084.11 193.715L1087.29 183.636L1070.98 182.187L1071.99 178.974L1092.05 180.757L1087.25 195.742C1082.19 199.825 1076.64 201.599 1070.59 201.062ZM1129.61 205.529L1125.85 205.195L1132.22 185.232L1104.85 182.8L1098.49 202.763L1094.79 202.435L1108.16 160.429L1111.84 160.757L1105.92 179.528L1133.23 181.954L1139.22 163.189L1142.97 163.523L1129.61 205.529ZM1155.05 207.79L1151.3 207.456L1163.65 168.728L1149.54 167.474L1150.55 164.196L1182.52 167.037L1181.51 170.315L1167.4 169.061L1155.05 207.79Z" fill="#0B0B0B"/>
<path d="M37.2983 109.825L13.7431 107.732L27.1051 65.726L48.0718 67.5892C51.6957 67.9112 54.453 69.1708 56.3426 71.3678C58.2798 73.5259 59.1194 76.0396 58.8613 78.9093C58.6042 81.7789 57.4065 84.2196 55.269 86.2314C53.1352 88.2005 50.7186 89.1946 48.021 89.2139C49.9164 89.9004 51.3281 91.1266 52.2571 92.8929C53.2317 94.6201 53.6318 96.4689 53.4545 98.439C53.1504 101.823 51.6325 104.688 48.8988 107.036C46.1699 109.34 42.303 110.27 37.2983 109.825ZM42.5835 84.3919C44.6115 84.5721 46.124 84.1885 47.1229 83.241C48.1683 82.2547 48.7558 81.0333 48.8872 79.5771C48.9866 78.4635 48.64 77.4829 47.8463 76.6353C47.0964 75.7916 46.0957 75.3141 44.8443 75.2028L33.9079 74.2311L31.0001 83.3626L42.5835 84.3919ZM37.2969 101.86C39.281 102.036 40.9039 101.641 42.1654 100.674C43.4687 99.7103 44.1922 98.4362 44.3348 96.8516C44.4502 95.5667 44.113 94.4789 43.323 93.5885C42.5331 92.6981 41.4268 92.1896 40.0031 92.063L28.4844 91.0395L25.3899 100.802L37.2969 101.86ZM79.88 114.386C73.7543 113.842 68.8425 111.636 65.1456 107.767C61.4498 103.898 59.8603 99.073 60.3802 93.291C61.0108 86.2668 63.9601 80.5496 69.2261 76.1391C74.4968 71.6859 80.6699 69.7736 87.7444 70.4023C93.8273 70.9429 98.7172 73.1474 102.414 77.016C106.111 80.8846 107.701 85.6886 107.186 91.4278C106.555 98.4519 103.604 104.191 98.3336 108.644C93.1067 113.101 86.9555 115.015 79.88 114.386ZM81.125 106.338C85.2666 106.706 88.9246 105.433 92.1 102.521C95.322 99.5691 97.1395 95.802 97.5505 91.2191C97.8705 87.6642 96.981 84.7359 94.8828 82.434C92.7883 80.0893 89.9729 78.7598 86.4357 78.4454C82.2503 78.0736 78.5685 79.3653 75.3893 82.3207C72.2149 85.2334 70.4212 88.981 70.0092 93.5638C69.6902 97.1187 70.5778 100.069 72.6713 102.413C74.7695 104.715 77.5877 106.023 81.125 106.338ZM133.573 118.381L106.135 115.942L119.497 73.9362L128.686 74.7528L117.858 108.889L136.042 110.505L133.573 118.381ZM156.962 120.459L140.007 118.952L153.369 76.9462L170.065 78.4298C175.07 78.8746 179.271 80.9964 182.669 84.7953C186.111 88.5981 187.592 93.1764 187.11 98.53C186.903 100.843 186.374 103.106 185.522 105.318C184.718 107.492 183.487 109.584 181.828 111.595C180.212 113.61 178.274 115.337 176.014 116.777C173.8 118.178 171.053 119.229 167.772 119.93C164.492 120.632 160.888 120.808 156.962 120.459ZM159.042 112.549L159.366 112.578C164.413 113.026 168.584 111.864 171.877 109.092C175.217 106.28 177.085 102.669 177.481 98.2572C177.762 95.1306 176.983 92.4279 175.144 90.149C173.304 87.8701 170.789 86.5889 167.597 86.3052L160.09 85.6382L151.73 111.899L159.042 112.549Z" fill="#0B0B0B"/>
<path d="M251.513 128.291L219.869 125.479L233.231 83.4727L264.875 86.2846L261.808 95.7259L241.359 93.9087L239.271 100.458L259.332 102.241L256.33 111.688L236.27 109.905L234 117.021L254.513 118.844L251.513 128.291ZM298.485 132.465L285.931 131.349L280.5 117.008L267.164 129.682L253.38 128.457L275.796 107.654L267.713 86.5368L280.267 87.6525L285.067 101.03L297.092 89.1476L310.876 90.3724L289.853 110.198L298.485 132.465ZM322.479 134.597L311.349 133.608L321.644 101.043L309.543 99.9676L312.609 90.5265L347.877 93.6604L344.876 103.107L332.775 102.032L322.479 134.597ZM376.634 139.409L364.339 138.317L361.62 123.569L355.407 123.017L350.943 137.126L339.813 136.137L353.175 94.1312L372.847 95.8793C376.687 96.2205 379.861 97.6682 382.372 100.223C384.925 102.781 386.035 105.923 385.7 109.649C385.365 113.375 383.973 116.533 381.522 119.121C379.076 121.667 376.175 123.222 372.82 123.787L376.634 139.409ZM367.079 114.341L367.274 114.358C369.172 114.527 370.723 114.211 371.924 113.412C373.175 112.573 373.87 111.361 374.012 109.776C374.116 108.62 373.75 107.616 372.913 106.764C372.077 105.913 371.032 105.432 369.782 105.321L361.305 104.567L358.408 113.57L367.079 114.341ZM424.53 143.666L412.429 142.59L412.206 136.354L395.187 134.841L391.203 140.704L378.002 139.531L407.607 98.9681L421.584 100.21L424.53 143.666ZM412.231 126.642L411.737 110.344L401.23 125.664L412.231 126.642ZM453.02 146.197L427.718 143.949L441.08 101.943L463.599 103.944C467.439 104.285 470.323 105.577 472.253 107.821C474.182 110.065 475.017 112.621 474.759 115.491C474.51 118.275 473.295 120.671 471.113 122.679C468.976 124.691 466.603 125.689 463.996 125.673C465.891 126.359 467.305 127.564 468.237 129.288C469.17 131.011 469.549 132.836 469.376 134.764C469.237 136.306 468.822 137.78 468.13 139.186C467.439 140.593 466.453 141.886 465.173 143.068C463.939 144.21 462.274 145.077 460.178 145.668C458.08 146.258 455.695 146.435 453.02 146.197ZM457.787 120.005C459.383 120.147 460.56 119.863 461.32 119.154C462.127 118.405 462.579 117.474 462.68 116.36C462.76 115.461 462.502 114.704 461.905 114.09C461.355 113.436 460.584 113.066 459.591 112.978L449.367 112.069L447.109 119.056L457.787 120.005ZM452.886 136.795C454.439 136.933 455.706 136.636 456.685 135.903C457.668 135.126 458.215 134.117 458.326 132.875C458.414 131.89 458.162 131.069 457.568 130.412C456.98 129.712 456.146 129.314 455.067 129.218L444.196 128.252L441.756 135.806L452.886 136.795ZM495.446 150.744C489.147 150.185 484.089 147.922 480.271 143.956C476.453 139.99 474.803 135.117 475.322 129.334C475.945 122.396 478.91 116.745 484.216 112.381C489.525 107.975 495.804 106.093 503.052 106.737C509.307 107.293 514.345 109.554 518.163 113.52C522.029 117.447 523.703 122.28 523.188 128.019C522.561 135 519.592 140.694 514.283 145.101C508.973 149.507 502.694 151.389 495.446 150.744ZM496.971 141.037C500.724 141.37 503.998 140.258 506.793 137.7C509.593 135.1 511.172 131.808 511.529 127.825C511.806 124.741 511.018 122.145 509.163 120.038C507.308 117.93 504.763 116.732 501.527 116.445C497.774 116.111 494.498 117.245 491.699 119.846C488.903 122.403 487.327 125.674 486.969 129.657C486.692 132.741 487.481 135.336 489.335 137.444C491.19 139.552 493.735 140.749 496.971 141.037ZM549.72 154.79L521.246 152.26L534.608 110.254L545.739 111.243L535.379 143.802L552.721 145.343L549.72 154.79ZM573.554 156.908L555.499 155.304L568.86 113.297L586.656 114.879C591.703 115.327 595.992 117.457 599.519 121.267C603.09 125.082 604.636 129.666 604.154 135.019C603.947 137.332 603.441 139.575 602.637 141.749C601.837 143.88 600.626 145.974 599.007 148.032C597.39 150.047 595.453 151.774 593.193 153.214C590.933 154.653 588.097 155.718 584.687 156.408C581.319 157.102 577.609 157.268 573.554 156.908ZM576.166 147.427L576.49 147.455C580.977 147.854 584.678 146.823 587.595 144.362C590.556 141.906 592.212 138.707 592.567 134.767C592.809 132.068 592.107 129.718 590.46 127.715C588.814 125.713 586.589 124.587 583.785 124.337L576.99 123.734L569.63 146.846L576.166 147.427Z" fill="#0B0B0B"/>
<path d="M664.012 164.55L636.898 162.14L650.26 120.134L674.268 122.267C678.323 122.628 681.311 123.973 683.233 126.302C685.201 128.592 686.057 131.172 685.799 134.042C685.557 136.74 684.367 139.095 682.229 141.107C680.092 143.119 677.719 144.117 675.112 144.101C677.046 144.834 678.46 146.039 679.353 147.716C680.289 149.396 680.67 151.2 680.497 153.128C680.362 154.627 679.949 156.079 679.257 157.486C678.57 158.849 677.608 160.124 676.37 161.309C675.133 162.494 673.443 163.402 671.299 164.032C669.159 164.618 666.73 164.791 664.012 164.55ZM668.254 137.663C669.376 137.763 670.198 137.556 670.723 137.041C671.29 136.53 671.611 135.868 671.684 135.054C671.738 134.455 671.567 133.943 671.17 133.519C670.82 133.056 670.278 132.792 669.545 132.727L660.097 131.888L658.417 136.789L668.254 137.663ZM663.623 153.636C664.702 153.732 665.61 153.532 666.351 153.036C667.091 152.541 667.502 151.843 667.582 150.944C667.648 150.216 667.463 149.616 667.026 149.146C666.637 148.637 666.077 148.349 665.343 148.284L655.054 147.37L653.333 152.721L663.623 153.636ZM711.463 168.766L682.019 166.15L695.381 124.144L708.453 125.305L698.631 156.228L715.003 157.683L711.463 168.766ZM760.329 173.109L746.158 171.849L746.155 166.798L730.624 165.418L727.52 170.193L712.054 168.819L741.335 128.227L757.772 129.688L760.329 173.109ZM746.2 155.404L746.211 141.483L737.658 154.645L746.2 155.404ZM784.328 176.018C777.986 175.455 772.798 173.181 768.764 169.196C764.773 165.214 763.043 160.269 763.574 154.358C764.228 147.077 767.241 141.365 772.614 137.223C778.031 133.085 784.406 131.342 791.739 131.994C794.76 132.262 797.462 132.912 799.848 133.945C802.278 134.981 804.226 136.277 805.696 137.832C807.208 139.391 808.414 141.009 809.301 142.685C810.198 144.362 810.824 146.145 811.171 148.032L798.266 150.836C798.059 148.788 797.211 147.094 795.722 145.753C794.237 144.369 792.373 143.577 790.13 143.378C786.721 143.075 783.784 144.066 781.318 146.351C778.855 148.593 777.476 151.363 777.18 154.66C776.953 157.187 777.642 159.429 779.25 161.385C780.904 163.302 783.176 164.389 786.067 164.646C787.75 164.795 789.475 164.474 791.241 163.681C793.055 162.849 794.391 161.781 795.247 160.475L804.883 167.937C802.109 171.23 798.861 173.489 795.142 174.713C791.47 175.897 787.865 176.333 784.328 176.018ZM846.274 180.746L831.002 179.389L825.736 163.314L821.977 166.607L818.259 178.256L805.187 177.095L818.544 135.088L831.616 136.25L826.894 151.113L842.298 137.199L858.924 138.676L836.434 156.753L846.274 180.746Z" fill="#0B0B0B"/>
<path d="M929.385 201.422L913.573 201.306L921.286 174.262L895.422 185.483L891.133 171.902L917.22 163.059L896.629 148.644L907.163 136.835L926.275 153.14L931.066 127.501L946.628 127.614L938.925 154.422L964.778 143.2L969.077 157.02L943.23 166.102L963.822 180.279L952.796 192.084L933.926 175.781L929.385 201.422Z" fill="#0B0B0B"/>
</g>
<defs>
<clipPath id="clip0_215_398">
<rect width="1965" height="130" fill="white" transform="translate(-204.583) rotate(5)"/>
</clipPath>
</defs>
</svg>
