<svg width="300" height="200" viewBox="0 0 300 200" fill="none" xmlns="http://www.w3.org/2000/svg">
<g clip-path="url(#clip0_230_94)">
<path d="M121.503 10.0719L5.9979 167.332L0.934419 174.29L4.62544 173.754L10.3861 173.364L281.048 143.938L289.779 131.465L121.503 10.0719Z" fill="#FAFAFA"/>
<path d="M125.205 33.7673L123.263 16.2139L282.565 132.38L276.395 140.398L125.205 33.7673Z" fill="#FAFAFA"/>
<path d="M158.071 112.226L173.068 116.741" stroke="#0B0B0B" stroke-width="4"/>
<path d="M116.515 118.869L78.9835 136.448" stroke="#0B0B0B" stroke-width="4"/>
<path d="M134.447 95.5964L130.707 74.2695" stroke="#0B0B0B" stroke-width="4"/>
<path d="M97.1089 160.012L68.2952 123.505L102.507 77.9904" stroke="#0B0B0B" stroke-width="4"/>
<path d="M192.556 149.154L220.276 108.988L164.566 69.9492" stroke="#0B0B0B" stroke-width="4"/>
<path d="M45.2344 141.999L60.7006 163.475" stroke="#0B0B0B" stroke-width="4"/>
<path d="M24.9855 167.894L10.0529 169.504L123.152 14.9834" stroke="#0B0B0B" stroke-width="4"/>
<path d="M125.411 34.6971L123.973 18.269L283.31 131.886L276.786 140.217" stroke="#0B0B0B" stroke-width="4"/>
<path d="M125.31 34.4876L25.18 167.804L273.205 139.884L125.31 34.4876Z" fill="#FAFAFA" stroke="#0B0B0B" stroke-width="4"/>
<path d="M116.116 118.03L75.8986 140.458" stroke="#0B0B0B" stroke-width="4"/>
<path d="M269.332 138.087L159.832 107.703" stroke="#0B0B0B" stroke-width="4"/>
<path d="M136.396 95.1959L131.19 73.7866" stroke="#0B0B0B" stroke-width="4"/>
<path d="M107.683 58.8982L151.392 52.7847" stroke="#0B0B0B" stroke-width="4"/>
<path d="M91.3808 79.0989L173.933 68.6389" stroke="#0B0B0B" stroke-width="4"/>
<path d="M90.2712 160.137L61.1367 120.959" stroke="#0B0B0B" stroke-width="4"/>
<path d="M148.314 107.816C148.958 109.802 148.411 112.031 146.826 114.057C145.245 116.077 142.681 117.819 139.496 118.76C136.31 119.701 133.163 119.646 130.663 118.831C128.156 118.013 126.385 116.47 125.741 114.483C125.097 112.497 125.645 110.268 127.23 108.243C128.81 106.223 131.374 104.481 134.56 103.54C137.746 102.599 140.893 102.654 143.392 103.469C145.9 104.286 147.67 105.83 148.314 107.816Z" fill="#0B0B0B" stroke="#0B0B0B" stroke-width="4"/>
<path d="M129.848 45.704C130.403 47.1032 129.62 48.8877 127.816 49.5657C126.011 50.2438 124.2 49.4335 123.645 48.0344C123.092 46.6354 123.873 44.8508 125.678 44.1728C127.482 43.4948 129.293 44.305 129.848 45.704Z" fill="#0B0B0B" stroke="#0B0B0B" stroke-width="4"/>
<path d="M59.2104 149.726C59.8441 151.324 58.9496 153.365 56.8867 154.14C54.824 154.916 52.7538 153.989 52.12 152.39C51.486 150.79 52.3806 148.75 54.4434 147.975C56.5064 147.199 58.5764 148.126 59.2104 149.726Z" fill="#0B0B0B" stroke="#0B0B0B" stroke-width="4"/>
<path d="M158.44 103.636C159.805 107.435 158.87 111.728 156.017 115.645C153.17 119.553 148.474 122.982 142.584 124.947C136.694 126.912 130.803 127.016 126.056 125.642C121.299 124.264 117.806 121.448 116.441 117.65C115.074 113.851 116.01 109.558 118.863 105.641C121.71 101.733 126.407 98.3041 132.296 96.3388C138.186 94.3736 144.078 94.2696 148.825 95.6444C153.582 97.0218 157.074 99.8382 158.44 103.636Z" stroke="#0B0B0B" stroke-width="4"/>
<path d="M10.1796 168.865L123.156 16.2085L125.112 35.1083L25.4333 167.316L10.1796 168.865Z" fill="#0B0B0B"/>
</g>
<defs>
<clipPath id="clip0_230_94">
<rect width="285" height="175" fill="white" transform="translate(16) rotate(5)"/>
</clipPath>
</defs>
</svg>
