<svg width="680" height="581" viewBox="0 0 680 581" fill="none" xmlns="http://www.w3.org/2000/svg">
<g clip-path="url(#clip0_230_33)">
<path d="M526.53 113.63L69.6626 188.327L55.7663 191.018L57.9318 192.782L68.9143 201.108L597.479 570.284L630.657 563.337L526.53 113.63Z" fill="#FAFAFA"/>
<path d="M496.463 155.719L520.986 124.365L622.056 559.555L598.163 562.906L496.463 155.719Z" fill="#FAFAFA"/>
<path d="M430.346 333.467L450.107 364.071" stroke="#0B0B0B" stroke-width="4"/>
<path d="M345.018 279.585L249.467 249.611" stroke="#0B0B0B" stroke-width="4"/>
<path d="M414.404 269.896L441.717 229.655" stroke="#0B0B0B" stroke-width="4"/>
<path d="M244.455 315.829L250.906 212.1L385.068 191.819" stroke="#0B0B0B" stroke-width="4"/>
<path d="M433.421 446.692L547.376 424.953L509.5 275.322" stroke="#0B0B0B" stroke-width="4"/>
<path d="M179.918 206.102L173.456 264.815" stroke="#0B0B0B" stroke-width="4"/>
<path d="M102.176 216.423L72.7543 195.805L522.751 122.207" stroke="#0B0B0B" stroke-width="4"/>
<path d="M495.348 157.538L521.326 125.014L622.21 559.061L599.153 563.217" stroke="#0B0B0B" stroke-width="4"/>
<path d="M495.503 157.045L102.671 216.579L596.648 560.805L495.503 157.045Z" fill="#FAFAFA" stroke="#0B0B0B" stroke-width="4"/>
<path d="M345.638 277.61L237.521 251.287" stroke="#0B0B0B" stroke-width="4"/>
<path d="M418.55 272.282L443.357 229.628" stroke="#0B0B0B" stroke-width="4"/>
<path d="M487.098 483.596L544.456 453.322L498.054 268.478" stroke="#0B0B0B" stroke-width="4"/>
<path d="M442.015 325.739L543.96 453.167" stroke="#0B0B0B" stroke-width="4"/>
<path d="M424.846 169.046L513.204 227.134" stroke="#0B0B0B" stroke-width="4"/>
<path d="M363.289 176.311L528.434 287.77" stroke="#0B0B0B" stroke-width="4"/>
<path d="M256.217 313.01C257.024 306.395 259.067 291.453 259.539 288.563L449.495 419.737L414.307 424.426L256.217 313.01Z" stroke="#0B0B0B" stroke-width="4"/>
<path d="M231.958 305.401L242.094 196.863" stroke="#0B0B0B" stroke-width="4"/>
<path d="M430.012 173.378L441.871 229.161L512.584 229.108" stroke="#0B0B0B" stroke-width="4"/>
<path d="M430.475 315.818C427.76 321.683 421.514 325.56 413.099 326.767C404.708 327.971 394.448 326.451 384.373 321.794C374.296 317.139 366.493 310.313 361.979 303.145C357.452 295.957 356.365 288.693 359.081 282.828C361.797 276.963 368.043 273.088 376.458 271.88C384.848 270.676 395.108 272.197 405.185 276.852C415.26 281.509 423.063 288.335 427.578 295.502C432.105 302.69 433.192 309.954 430.475 315.818Z" fill="#0B0B0B" stroke="#0B0B0B" stroke-width="4"/>
<path d="M491.698 186.464C489.835 191.166 483.422 193.675 476.901 191.096C470.38 188.517 467.421 182.304 469.283 177.601C471.146 172.898 477.559 170.39 484.08 172.968C490.602 175.547 493.56 181.761 491.698 186.464Z" fill="#0B0B0B" stroke="#0B0B0B" stroke-width="4"/>
<path d="M566.307 503.271C564.444 507.974 558.032 510.482 551.51 507.903C544.989 505.324 542.031 499.111 543.893 494.408C545.756 489.705 552.168 487.197 558.69 489.775C565.211 492.354 568.169 498.568 566.307 503.271Z" fill="#0B0B0B" stroke="#0B0B0B" stroke-width="4"/>
<path d="M179.568 238.112C177.705 242.814 171.292 245.322 164.771 242.744C158.25 240.166 155.291 233.951 157.153 229.249C159.016 224.546 165.429 222.038 171.95 224.617C178.471 227.195 181.43 233.409 179.568 238.112Z" fill="#0B0B0B" stroke="#0B0B0B" stroke-width="4"/>
<path d="M444.721 320.178C441.114 328.433 432.58 333.91 421.198 335.796C409.84 337.678 395.922 335.912 382.195 329.927C368.468 323.943 357.706 314.951 351.363 305.352C345.008 295.732 343.223 285.757 346.829 277.502C350.434 269.246 358.969 263.771 370.351 261.884C381.708 260.001 395.626 261.768 409.353 267.752C423.081 273.736 433.843 282.729 440.185 292.329C446.541 301.947 448.326 311.923 444.721 320.178Z" stroke="#0B0B0B" stroke-width="4"/>
<path d="M74.0053 194.971L520.805 124.192L494.159 157.742L103.908 216.186L74.0053 194.971Z" fill="#0B0B0B"/>
</g>
<defs>
<clipPath id="clip0_230_33">
<rect width="660" height="415" fill="white" transform="translate(115) rotate(16)"/>
</clipPath>
</defs>
</svg>
